<svg xmlns="http://www.w3.org/2000/svg" width="273.58" height="28" viewBox="0 0 273.58 28">
    <defs>
        <style>
            .prefix__cls-1,.prefix__cls-2{fill:#122277}.prefix__cls-1{fill-rule:evenodd}.prefix__cls-3{fill:none;stroke:#858585}
        </style>
    </defs>
    <g id="prefix__그룹_664" data-name="그룹 664" transform="translate(-42.096 -434)">
        <path id="prefix__패스_276" d="M8.974 12.948a3.8 3.8 0 0 0 3.811-3.811A3.921 3.921 0 0 0 8.974 5.19 3.8 3.8 0 0 0 5.163 9a4.017 4.017 0 0 0 3.811 3.948zM2.577 2.6a9.047 9.047 0 0 1 12.794 12.8l-6.4 6.4-6.4-6.4a9.294 9.294 0 0 1 .006-12.8z" class="prefix__cls-1" data-name="패스 276" transform="translate(45.975 434.05)"/>
        <path id="prefix__패스_1297" d="M6.469-2.842a3.191 3.191 0 0 1-.82 2.209 2.9 2.9 0 0 1-2.133.75A2.687 2.687 0 0 1 1.3-.835a4.219 4.219 0 0 1-.773-2.716v-1.435a4.111 4.111 0 0 1 .8-2.71 2.731 2.731 0 0 1 2.215-.952 2.75 2.75 0 0 1 2.118.779 3.544 3.544 0 0 1 .82 2.238H4.752a2.3 2.3 0 0 0-.278-1.245 1.1 1.1 0 0 0-.935-.343 1.045 1.045 0 0 0-.979.483 3.38 3.38 0 0 0-.3 1.591v1.611a3.718 3.718 0 0 0 .28 1.747 1.044 1.044 0 0 0 .976.475 1.128 1.128 0 0 0 .938-.331 2.181 2.181 0 0 0 .293-1.2zm4.1 2.262a1.633 1.633 0 0 1-1.383.7 1.553 1.553 0 0 1-1.324-.6 2.879 2.879 0 0 1-.451-1.749V-6.34h1.653v4.148q.012.926.615.926a.855.855 0 0 0 .82-.492V-6.34h1.67V0h-1.558zm5.918-4.16l-.551-.047a.9.9 0 0 0-.92.6V0h-1.668v-6.34h1.564l.047.686a1.2 1.2 0 0 1 1.084-.8 1.161 1.161 0 0 1 .457.076zm3.979 0l-.551-.047a.9.9 0 0 0-.92.6V0h-1.669v-6.34h1.564l.047.686a1.2 1.2 0 0 1 1.084-.8 1.161 1.161 0 0 1 .457.076zM23.76.117a2.6 2.6 0 0 1-1.992-.762 3.066 3.066 0 0 1-.715-2.18v-.5a3.6 3.6 0 0 1 .656-2.314 2.275 2.275 0 0 1 1.881-.814 2.152 2.152 0 0 1 1.8.765 3.653 3.653 0 0 1 .61 2.26v.814h-3.3a1.713 1.713 0 0 0 .311 1.028 1.052 1.052 0 0 0 .85.325 1.864 1.864 0 0 0 1.389-.568l.65 1a2.142 2.142 0 0 1-.885.683 3.037 3.037 0 0 1-1.255.263zm-1.043-3.89h1.658v-.152a1.772 1.772 0 0 0-.187-.861.652.652 0 0 0-.609-.293.689.689 0 0 0-.63.311 2.138 2.138 0 0 0-.232.995zm5.742-2.567l.047.627a1.759 1.759 0 0 1 1.471-.744q1.635 0 1.682 2.291V0h-1.665v-4.043a1.457 1.457 0 0 0-.161-.782.627.627 0 0 0-.565-.243.774.774 0 0 0-.7.463V0H26.9v-6.34zm6.316-1.56v1.56h.85v1.248h-.85v3.146a.927.927 0 0 0 .1.516.463.463 0 0 0 .4.141 1.549 1.549 0 0 0 .393-.041l-.014 1.289a2.583 2.583 0 0 1-.914.158q-1.605 0-1.623-1.84v-3.369h-.732V-6.34h.732V-7.9zM2.344 11H.68V2h1.664zm1.09-3.375a3.442 3.442 0 0 1 .68-2.262 2.31 2.31 0 0 1 1.881-.82 2.323 2.323 0 0 1 1.893.82 3.462 3.462 0 0 1 .68 2.273v.4a3.448 3.448 0 0 1-.675 2.264 2.313 2.313 0 0 1-1.887.814 2.325 2.325 0 0 1-1.9-.817 3.46 3.46 0 0 1-.677-2.271zm1.666.416q0 1.7.908 1.7.838 0 .9-1.418l.006-.7a2.668 2.668 0 0 0-.24-1.286.748.748 0 0 0-.68-.419.729.729 0 0 0-.659.419A2.7 2.7 0 0 0 5.1 7.625zm6.791 1.7q.721 0 .732-.937h1.557a2.329 2.329 0 0 1-.639 1.676 2.167 2.167 0 0 1-1.617.639 2.312 2.312 0 0 1-1.869-.762A3.439 3.439 0 0 1 9.4 8.111v-.5a3.549 3.549 0 0 1 .636-2.279 2.274 2.274 0 0 1 1.878-.785 2.149 2.149 0 0 1 1.652.647 2.634 2.634 0 0 1 .615 1.837h-1.56a1.662 1.662 0 0 0-.176-.82.6.6 0 0 0-.562-.287.67.67 0 0 0-.621.308 2.623 2.623 0 0 0-.2 1.192v.645a5.174 5.174 0 0 0 .076 1.081.814.814 0 0 0 .252.451.768.768 0 0 0 .499.139zM18.129 11a2.317 2.317 0 0 1-.141-.492 1.417 1.417 0 0 1-1.207.609 1.786 1.786 0 0 1-1.321-.527 1.853 1.853 0 0 1-.524-1.365 1.919 1.919 0 0 1 .636-1.541 2.78 2.78 0 0 1 1.828-.557h.5v-.51a.955.955 0 0 0-.146-.6.525.525 0 0 0-.428-.176q-.621 0-.621.727h-1.652a1.835 1.835 0 0 1 .659-1.45 2.454 2.454 0 0 1 1.667-.571 2.253 2.253 0 0 1 1.614.542 2.034 2.034 0 0 1 .571 1.55v2.978A3.121 3.121 0 0 0 19.8 10.9v.1zm-.979-1.184a.925.925 0 0 0 .469-.111.788.788 0 0 0 .287-.264V8.123h-.4a.851.851 0 0 0-.665.27 1.035 1.035 0 0 0-.243.721q.002.702.552.702zM22.693 3.1v1.56h.85v1.248h-.85v3.147a.927.927 0 0 0 .1.516.463.463 0 0 0 .4.141 1.549 1.549 0 0 0 .393-.041l-.012 1.289a2.583 2.583 0 0 1-.914.158q-1.605 0-1.623-1.84v-3.37H20.3V4.66h.732V3.1zm3.5 7.9h-1.666V4.66h1.664zm-1.74-7.98a.857.857 0 0 1 .246-.633 1 1 0 0 1 1.313 0 .857.857 0 0 1 .246.633.9.9 0 1 1-1.8 0zm2.83 4.605a3.442 3.442 0 0 1 .68-2.262 2.58 2.58 0 0 1 3.773 0 3.462 3.462 0 0 1 .68 2.273v.4a3.448 3.448 0 0 1-.676 2.264 2.6 2.6 0 0 1-3.782 0 3.46 3.46 0 0 1-.677-2.271zm1.664.416q0 1.7.908 1.7.838 0 .9-1.418l.006-.7a2.668 2.668 0 0 0-.24-1.286.748.748 0 0 0-.68-.419.729.729 0 0 0-.659.419 2.7 2.7 0 0 0-.237 1.286zm6.016-3.381l.047.627a1.759 1.759 0 0 1 1.471-.744q1.635 0 1.682 2.291V11H36.5V6.957a1.457 1.457 0 0 0-.161-.782.627.627 0 0 0-.565-.243.774.774 0 0 0-.7.463V11H33.4V4.66z" class="prefix__cls-2" data-name="패스 1297" transform="translate(71 444)"/>
        <path id="prefix__패스_1298" d="M0 0h231.213" class="prefix__cls-3" data-name="패스 1298" transform="translate(42.096 461.5)"/>
        <path id="prefix__패스_1299" d="M0 0h31.918" class="prefix__cls-3" data-name="패스 1299" transform="translate(283.758 461.5)"/>
        <path id="prefix__패스_1300" d="M.3-5.083h2.644v2.438a.669.669 0 0 0 .138.494.806.806 0 0 0 .529.127h.552a.76.76 0 0 0 .506-.127.669.669 0 0 0 .138-.494v-11.868h2.668v12.236Q7.475 0 4.968 0H2.806Q.3 0 .3-2.277zm13.8-6.21h2.622V0h-2.577v-1.127A1.466 1.466 0 0 1 12.512 0H11.8a2.044 2.044 0 0 1-2.347-2.277v-9.016h2.6v8.648a.669.669 0 0 0 .138.494.76.76 0 0 0 .506.127h.69q.713 0 .713-.759zm8.786 0h.69q2.369 0 2.369 2.277V0h-2.623v-8.648a.669.669 0 0 0-.138-.495.76.76 0 0 0-.506-.127h-.69q-.713 0-.713.759V0h-2.6v-11.293h2.576v1.035a1.5 1.5 0 0 1 1.634-1.035zm9.5 0h2.574V.851q0 2.277-2.507 2.277h-4.347V1.15h3.588a.76.76 0 0 0 .506-.127.669.669 0 0 0 .138-.494v-1.794a1.492 1.492 0 0 1-1.587.965h-.713a2.044 2.044 0 0 1-2.346-2.277v-6.44a2.044 2.044 0 0 1 2.346-2.277h.713a1.463 1.463 0 0 1 1.633 1.1zm-1.449 8.97h.69a.732.732 0 0 0 .552-.172.894.894 0 0 0 .161-.61V-8.51q0-.759-.713-.759h-.69a.76.76 0 0 0-.506.127.669.669 0 0 0-.138.495v5.7a.669.669 0 0 0 .138.495.76.76 0 0 0 .504.129zm5.911-3.542v-1.909h5.589v1.909zm12.029-5.428h2.576V.851q0 2.277-2.507 2.277H44.6V1.15h3.588a.76.76 0 0 0 .506-.127.669.669 0 0 0 .138-.494v-1.794a1.492 1.492 0 0 1-1.59.965h-.713a2.044 2.044 0 0 1-2.346-2.277v-6.44a2.044 2.044 0 0 1 2.346-2.277h.713a1.463 1.463 0 0 1 1.633 1.1zm-1.449 8.97h.69a.732.732 0 0 0 .552-.172.894.894 0 0 0 .161-.61V-8.51q0-.759-.713-.759h-.69a.76.76 0 0 0-.506.127.669.669 0 0 0-.138.495v5.7a.669.669 0 0 0 .138.495.76.76 0 0 0 .504.129zm10.58-8.97h2.622V0h-2.578v-1.127A1.466 1.466 0 0 1 56.419 0h-.713a2.044 2.044 0 0 1-2.346-2.277v-9.016h2.6v8.648a.669.669 0 0 0 .138.494.76.76 0 0 0 .506.127h.69q.713 0 .713-.759zm4.37 8.188h2.806v1.656L63.25 3.266h-.874zm12.995.46V-5.75a.668.668 0 0 0-.138-.494.76.76 0 0 0-.506-.127h-1.865a2.064 2.064 0 0 1-2.369-2.3v-3.565q0-2.277 2.484-2.277h2.53q2.484 0 2.484 2.277v2.024h-2.668v-1.656a.668.668 0 0 0-.138-.495.76.76 0 0 0-.506-.126h-.874a.806.806 0 0 0-.529.126.668.668 0 0 0-.138.495v2.921a.668.668 0 0 0 .138.494.806.806 0 0 0 .529.127h1.817q2.415 0 2.415 2.254v3.8Q78.039 0 75.532 0h-2.484q-2.507 0-2.507-2.277v-2h2.645v1.633a.668.668 0 0 0 .138.494.806.806 0 0 0 .529.127h.874a.76.76 0 0 0 .506-.127.668.668 0 0 0 .138-.495zm6.854-8.648h2.438q2.484 0 2.484 2.277V-4.9h-4.9v2.323a.711.711 0 0 0 .127.494.755.755 0 0 0 .517.127h1.057a.76.76 0 0 0 .506-.127.668.668 0 0 0 .138-.494v-.851h2.53v1.15Q87.124 0 84.617 0h-2.392q-2.507 0-2.507-2.277v-6.739q0-2.277 2.507-2.277zm.023 4.715h2.39V-8.74a.668.668 0 0 0-.138-.495.76.76 0 0 0-.502-.126h-1.1a.76.76 0 0 0-.506.127.668.668 0 0 0-.138.495zm8.947-4.715h2.6q2.438 0 2.438 2.277v6.739Q96.232 0 93.794 0h-2.6q-2.461 0-2.461-2.277v-6.739q.001-2.277 2.462-2.277zm2.484 8.717v-6.141a.668.668 0 0 0-.138-.495.806.806 0 0 0-.529-.126h-1.06a.806.806 0 0 0-.529.126.668.668 0 0 0-.138.495v6.141a.668.668 0 0 0 .138.494.806.806 0 0 0 .529.127h1.058a.806.806 0 0 0 .529-.127.668.668 0 0 0 .138-.494zm9.016-8.717h2.622V0h-2.576v-1.127A1.466 1.466 0 0 1 101.108 0h-.708a2.044 2.044 0 0 1-2.346-2.277v-9.016h2.6v8.648a.668.668 0 0 0 .138.494.76.76 0 0 0 .506.127h.69q.713 0 .713-.759zM109.871 0h-2.6v-15.387h2.6z" class="prefix__cls-2" data-name="패스 1300" transform="translate(127 452)"/>
        <path id="prefix__패스_1301" d="M3.146-11.352v1.87H.616V-11.7q0-2.178 2.4-2.178h2.22q2.4 0 2.4 2.178v2.97q0 1.364-.924 1.672a1.458 1.458 0 0 1 .924 1.584v3.3Q7.634 0 5.236 0H3.014q-2.4 0-2.4-2.178v-2.2h2.53v1.848a.639.639 0 0 0 .132.473.727.727 0 0 0 .484.121h.75a.727.727 0 0 0 .484-.121.639.639 0 0 0 .132-.473V-5.5a.727.727 0 0 0-.121-.484.678.678 0 0 0-.5-.132H2.816v-1.848H4.51a.727.727 0 0 0 .484-.121.639.639 0 0 0 .132-.473v-2.794a.639.639 0 0 0-.132-.473.727.727 0 0 0-.484-.121h-.748a.727.727 0 0 0-.484.121.639.639 0 0 0-.132.473zM9.328 0v-2.97h2.684V0zm6.578-11.352v1.87h-2.53V-11.7q0-2.178 2.4-2.178H18q2.4 0 2.4 2.178v2.97q0 1.364-.924 1.672a1.458 1.458 0 0 1 .924 1.584v3.3Q20.394 0 18 0h-2.226q-2.4 0-2.4-2.178v-2.2h2.53v1.848a.639.639 0 0 0 .132.473.727.727 0 0 0 .484.121h.748a.727.727 0 0 0 .484-.121.639.639 0 0 0 .132-.473V-5.5a.727.727 0 0 0-.121-.484.678.678 0 0 0-.495-.132h-1.692v-1.848h1.694a.727.727 0 0 0 .484-.121.639.639 0 0 0 .132-.473v-2.794a.639.639 0 0 0-.132-.473.727.727 0 0 0-.484-.121h-.748a.727.727 0 0 0-.484.121.639.639 0 0 0-.132.473z" class="prefix__cls-2" data-name="패스 1301" transform="translate(289 453)"/>
        <path id="prefix__패스_276-2" d="M8.974 12.948a3.8 3.8 0 0 0 3.811-3.811A3.921 3.921 0 0 0 8.974 5.19 3.8 3.8 0 0 0 5.163 9a4.017 4.017 0 0 0 3.811 3.948zM2.577 2.6a9.047 9.047 0 0 1 12.794 12.8l-6.4 6.4-6.4-6.4a9.294 9.294 0 0 1 .006-12.8z" class="prefix__cls-1" data-name="패스 276" transform="translate(45.975 434.05)"/>
        <path id="prefix__선_3" d="M0 0L231.213 0" class="prefix__cls-3" data-name="선 3" transform="translate(42.096 461.5)"/>
        <path id="prefix__선_3-2" d="M0 0L31.918 0" class="prefix__cls-3" data-name="선 3" transform="translate(283.758 461.5)"/>
        <path id="prefix__패스_1302" d="M.3-5.083h2.644v2.438a.669.669 0 0 0 .138.494.806.806 0 0 0 .529.127h.552a.76.76 0 0 0 .506-.127.669.669 0 0 0 .138-.494v-11.868h2.668v12.236Q7.475 0 4.968 0H2.806Q.3 0 .3-2.277zm13.8-6.21h2.622V0h-2.577v-1.127A1.466 1.466 0 0 1 12.512 0H11.8a2.044 2.044 0 0 1-2.347-2.277v-9.016h2.6v8.648a.669.669 0 0 0 .138.494.76.76 0 0 0 .506.127h.69q.713 0 .713-.759zm8.786 0h.69q2.369 0 2.369 2.277V0h-2.623v-8.648a.669.669 0 0 0-.138-.495.76.76 0 0 0-.506-.127h-.69q-.713 0-.713.759V0h-2.6v-11.293h2.576v1.035a1.5 1.5 0 0 1 1.634-1.035zm9.5 0h2.574V.851q0 2.277-2.507 2.277h-4.347V1.15h3.588a.76.76 0 0 0 .506-.127.669.669 0 0 0 .138-.494v-1.794a1.492 1.492 0 0 1-1.587.965h-.713a2.044 2.044 0 0 1-2.346-2.277v-6.44a2.044 2.044 0 0 1 2.346-2.277h.713a1.463 1.463 0 0 1 1.633 1.1zm-1.449 8.97h.69a.732.732 0 0 0 .552-.172.894.894 0 0 0 .161-.61V-8.51q0-.759-.713-.759h-.69a.76.76 0 0 0-.506.127.669.669 0 0 0-.138.495v5.7a.669.669 0 0 0 .138.495.76.76 0 0 0 .504.129zm5.911-3.542v-1.909h5.589v1.909zm12.029-5.428h2.576V.851q0 2.277-2.507 2.277H44.6V1.15h3.588a.76.76 0 0 0 .506-.127.669.669 0 0 0 .138-.494v-1.794a1.492 1.492 0 0 1-1.59.965h-.713a2.044 2.044 0 0 1-2.346-2.277v-6.44a2.044 2.044 0 0 1 2.346-2.277h.713a1.463 1.463 0 0 1 1.633 1.1zm-1.449 8.97h.69a.732.732 0 0 0 .552-.172.894.894 0 0 0 .161-.61V-8.51q0-.759-.713-.759h-.69a.76.76 0 0 0-.506.127.669.669 0 0 0-.138.495v5.7a.669.669 0 0 0 .138.495.76.76 0 0 0 .504.129zm10.58-8.97h2.622V0h-2.578v-1.127A1.466 1.466 0 0 1 56.419 0h-.713a2.044 2.044 0 0 1-2.346-2.277v-9.016h2.6v8.648a.669.669 0 0 0 .138.494.76.76 0 0 0 .506.127h.69q.713 0 .713-.759zm4.37 8.188h2.806v1.656L63.25 3.266h-.874zm12.995.46V-5.75a.668.668 0 0 0-.138-.494.76.76 0 0 0-.506-.127h-1.865a2.064 2.064 0 0 1-2.369-2.3v-3.565q0-2.277 2.484-2.277h2.53q2.484 0 2.484 2.277v2.024h-2.668v-1.656a.668.668 0 0 0-.138-.495.76.76 0 0 0-.506-.126h-.874a.806.806 0 0 0-.529.126.668.668 0 0 0-.138.495v2.921a.668.668 0 0 0 .138.494.806.806 0 0 0 .529.127h1.817q2.415 0 2.415 2.254v3.8Q78.039 0 75.532 0h-2.484q-2.507 0-2.507-2.277v-2h2.645v1.633a.668.668 0 0 0 .138.494.806.806 0 0 0 .529.127h.874a.76.76 0 0 0 .506-.127.668.668 0 0 0 .138-.495zm6.854-8.648h2.438q2.484 0 2.484 2.277V-4.9h-4.9v2.323a.711.711 0 0 0 .127.494.755.755 0 0 0 .517.127h1.057a.76.76 0 0 0 .506-.127.668.668 0 0 0 .138-.494v-.851h2.53v1.15Q87.124 0 84.617 0h-2.392q-2.507 0-2.507-2.277v-6.739q0-2.277 2.507-2.277zm.023 4.715h2.39V-8.74a.668.668 0 0 0-.138-.495.76.76 0 0 0-.502-.126h-1.1a.76.76 0 0 0-.506.127.668.668 0 0 0-.138.495zm8.947-4.715h2.6q2.438 0 2.438 2.277v6.739Q96.232 0 93.794 0h-2.6q-2.461 0-2.461-2.277v-6.739q.001-2.277 2.462-2.277zm2.484 8.717v-6.141a.668.668 0 0 0-.138-.495.806.806 0 0 0-.529-.126h-1.06a.806.806 0 0 0-.529.126.668.668 0 0 0-.138.495v6.141a.668.668 0 0 0 .138.494.806.806 0 0 0 .529.127h1.058a.806.806 0 0 0 .529-.127.668.668 0 0 0 .138-.494zm9.016-8.717h2.622V0h-2.576v-1.127A1.466 1.466 0 0 1 101.108 0h-.708a2.044 2.044 0 0 1-2.346-2.277v-9.016h2.6v8.648a.668.668 0 0 0 .138.494.76.76 0 0 0 .506.127h.69q.713 0 .713-.759zM109.871 0h-2.6v-15.387h2.6z" class="prefix__cls-2" data-name="패스 1302" transform="translate(127 452)"/>
    </g>
</svg>
