<svg xmlns="http://www.w3.org/2000/svg" width="324.588" height="21.561" viewBox="0 0 324.588 21.561">
    <defs>
        <style>
            .prefix__cls-1{fill:#ffa200;fill-rule:evenodd}
        </style>
    </defs>
    <g id="prefix__그룹_626" data-name="그룹 626" transform="translate(-19 -205)">
        <g id="prefix__그룹_605" data-name="그룹 605" transform="translate(0 15)">
            <g id="prefix__Instagram" transform="translate(229.47 190)">
                <path id="prefix__패스_3" d="M10.781 1.917a33.056 33.056 0 0 1 4.312.12 5.556 5.556 0 0 1 2.036.359 4.207 4.207 0 0 1 2.036 2.036 5.556 5.556 0 0 1 .359 2.036c0 1.078.12 1.437.12 4.312a33.055 33.055 0 0 1-.12 4.312 5.556 5.556 0 0 1-.359 2.036 4.207 4.207 0 0 1-2.036 2.036 5.556 5.556 0 0 1-2.036.359c-1.078 0-1.437.12-4.312.12a33.055 33.055 0 0 1-4.312-.12 5.556 5.556 0 0 1-2.036-.359A4.207 4.207 0 0 1 2.4 17.129a5.556 5.556 0 0 1-.359-2.036c0-1.078-.12-1.437-.12-4.312a33.056 33.056 0 0 1 .12-4.312A5.556 5.556 0 0 1 2.4 4.432a4.3 4.3 0 0 1 .838-1.2 2.025 2.025 0 0 1 1.2-.838 5.556 5.556 0 0 1 2.036-.359 33.056 33.056 0 0 1 4.312-.12m0-1.917A35.393 35.393 0 0 0 6.349.12 7.4 7.4 0 0 0 3.713.6 4.689 4.689 0 0 0 1.8 1.8 4.689 4.689 0 0 0 .6 3.713a5.458 5.458 0 0 0-.48 2.636A35.393 35.393 0 0 0 0 10.781a35.393 35.393 0 0 0 .12 4.432 7.4 7.4 0 0 0 .48 2.635 4.689 4.689 0 0 0 1.2 1.917 4.689 4.689 0 0 0 1.917 1.2 7.4 7.4 0 0 0 2.635.479 35.392 35.392 0 0 0 4.432.12 35.392 35.392 0 0 0 4.432-.12 7.4 7.4 0 0 0 2.635-.479 5.026 5.026 0 0 0 3.114-3.114 7.4 7.4 0 0 0 .479-2.635c0-1.2.12-1.557.12-4.432a35.392 35.392 0 0 0-.12-4.432 7.4 7.4 0 0 0-.479-2.635 4.689 4.689 0 0 0-1.2-1.917A4.689 4.689 0 0 0 17.848.6a7.4 7.4 0 0 0-2.635-.48A35.393 35.393 0 0 0 10.781 0m0 5.271a5.421 5.421 0 0 0-5.51 5.51 5.51 5.51 0 1 0 5.51-5.51m0 9.1a3.529 3.529 0 0 1-3.594-3.594 3.529 3.529 0 0 1 3.594-3.594 3.529 3.529 0 0 1 3.594 3.594 3.529 3.529 0 0 1-3.594 3.594M16.53 3.713a1.318 1.318 0 1 0 1.318 1.318 1.329 1.329 0 0 0-1.318-1.318" class="prefix__cls-1" data-name="패스 3"/>
            </g>
            <path id="prefix__Chat" d="M6.288 10.061a1.188 1.188 0 0 0 1.258 1.258h5.031a1.26 1.26 0 0 0 1.258-1.258A1.188 1.188 0 0 0 12.576 8.8h-5.03a1.26 1.26 0 0 0-1.258 1.261zM0 6.288A6.227 6.227 0 0 1 6.288 0h7.546a6.227 6.227 0 0 1 6.288 6.288v12.576a1.188 1.188 0 0 1-1.258 1.258H6.288A6.227 6.227 0 0 1 0 13.834z" class="prefix__cls-1" transform="translate(19 190.805)"/>
            <path id="prefix__합치기_1" d="M0 21.734a2.415 2.415 0 1 1 2.415 2.415A2.416 2.416 0 0 1 0 21.734zm0-9.66a2.415 2.415 0 1 1 2.415 2.415A2.414 2.414 0 0 1 0 12.074zm0-9.659a2.415 2.415 0 1 1 2.415 2.414A2.415 2.415 0 0 1 0 2.415z" data-name="합치기 1" transform="rotate(-90 261.56 -57.878)" style="fill:#ffa200"/>
            <text id="prefix___3_comments" data-name="3 comments" transform="translate(47.976 204.805)" style="fill:#2d2d2d;font-size:12px;font-family:Roboto-Regular,Roboto">
                <tspan x="0" y="0">3 comments</tspan>
            </text>
            <path id="prefix__패스_880" d="M87.307 21.561v-9.822h3.354l.479-3.833h-3.833V5.51c0-1.078.359-1.917 1.917-1.917h2.036V.12c-.479 0-1.677-.12-2.995-.12-2.875 0-4.911 1.8-4.911 5.031v2.875H80v3.833h3.354v9.822z" class="prefix__cls-1" data-name="패스 880" transform="translate(108.156 190)"/>
            <path id="prefix__패스_881" d="M44.881 19.626A12.563 12.563 0 0 0 57.557 6.95v-.6a9.813 9.813 0 0 0 2.173-2.298 10.022 10.022 0 0 1-2.535.724 4.7 4.7 0 0 0 1.932-2.414 11.073 11.073 0 0 1-2.777 1.087A4.311 4.311 0 0 0 53.091 2a4.536 4.536 0 0 0-4.467 4.467 2.353 2.353 0 0 0 .121.966 12.482 12.482 0 0 1-9.175-4.708 4.623 4.623 0 0 0-.6 2.294 4.8 4.8 0 0 0 1.93 3.742 4.07 4.07 0 0 1-2.052-.6 4.412 4.412 0 0 0 3.619 4.339 3.722 3.722 0 0 1-1.207.121 2.054 2.054 0 0 1-.845-.121 4.574 4.574 0 0 0 4.225 3.139 9.115 9.115 0 0 1-5.553 1.932A3.342 3.342 0 0 1 38 17.453a11.4 11.4 0 0 0 6.881 2.173" class="prefix__cls-1" data-name="패스 881" transform="translate(238.555 190.542)"/>
        </g>
    </g>
</svg>
