<svg xmlns="http://www.w3.org/2000/svg" width="328" height="131.839" viewBox="0 0 328 131.839">
    <defs>
        <style>
            .prefix__cls-1{fill:#00094f}
        </style>
    </defs>
    <g id="prefix__그룹_627" data-name="그룹 627" transform="translate(-16 -56.161)">
        <g id="prefix__그룹_163" data-name="그룹 163" transform="translate(-376.795 -155.226)">
            <path id="prefix__패스_877" d="M405.817 226.057l-6.057-7.621 5.838-7.049h-4.113l-5.558 6.977v-6.977h-3.132v14.67h3.132v-7.542l5.447 7.542z" class="prefix__cls-1" data-name="패스 877"/>
            <path id="prefix__패스_878" d="M514.036 217.126c.908 0 4.775.583 4.775 4.427a4.433 4.433 0 0 1-3.9 4.5h-9.121v-2.373h7.338a2 2 0 0 0 2.107-2.03c0-2.226-2.515-2.135-2.515-2.135h-2.81c-1.29 0-4.615-.466-4.615-3.9 0-4.129 4.121-4.231 4.121-4.231h8.351v2.345l-6.855.006c-2.215 0-2.18 1.719-2.18 1.719a1.752 1.752 0 0 0 1.939 1.676z" class="prefix__cls-1" data-name="패스 878" transform="translate(-86.016)"/>
            <path id="prefix__패스_879" d="M458.109 226.059a4.09 4.09 0 0 0 4.211-4.1 3.911 3.911 0 0 0-2.094-3.717s1.664-.571 1.507-3.114c-.226-3.683-4.385-3.742-4.385-3.742h-8.068v14.663s6.971.01 8.829.01zm-5.865-12.289h4.039s2.2-.1 2.2 1.724a1.676 1.676 0 0 1-1.827 1.7h-4.407zm3.68 9.9h-3.68v-4.125h4.541s2.294.084 2.294 2.037-1.72 2.089-3.155 2.089z" class="prefix__cls-1" data-name="패스 879" transform="translate(-43.188 -.002)"/>
        </g>
        <text id="prefix___Earthquake_Alert_Earthquake_with_magnitude_of_5_5_hits_6_km_north_of_Pohang_" data-name="[Earthquake Alert] Earthquake with magnitude of 5.5 hits 6 km north of Pohang" transform="translate(16 85)" style="fill:#2d2d2d;font-size:20px;font-family:Roboto-Medium,Roboto;font-weight:500">
            <tspan x="0" y="21">[Earthquake Alert] Earthquake with </tspan><tspan x="0" y="48">magnitude of 5.5 hits 6 km north of </tspan><tspan x="0" y="75">Pohang</tspan>
        </text>
        <text id="prefix__February_23_2019" data-name="February 23, 2019" transform="translate(16 185)" style="fill:#858585;font-size:12px;font-family:Roboto-Regular,Roboto">
            <tspan x="0" y="0">February 23, 2019</tspan>
        </text>
    </g>
</svg>
