<svg xmlns="http://www.w3.org/2000/svg" width="121.255" height="133" viewBox="0 0 121.255 133">
    <defs>
        <clipPath id="prefix__clip-path">
            <path id="prefix__패스_151" d="M0-11.747h15v-15H0z" class="prefix__cls-1" data-name="패스 151" transform="translate(0 26.747)"/>
        </clipPath>
        <clipPath id="prefix__clip-path-2">
            <path id="prefix__사각형_9" d="M0 0H25.038V19.486H0z" class="prefix__cls-1" data-name="사각형 9"/>
        </clipPath>
        <style>
            .prefix__cls-1{fill:#910004}.prefix__cls-5{fill:#fff}
        </style>
    </defs>
    <g id="prefix__그룹_659" data-name="그룹 659" transform="translate(-229.747 -269)">
        <g id="prefix__그룹_14" data-name="그룹 14" transform="translate(283 387)">
            <g id="prefix__그룹_13" data-name="그룹 13">
                <g id="prefix__그룹_12" data-name="그룹 12" transform="translate(-5.019 -3.925)">
                    <g id="prefix__그룹_11" data-name="그룹 11">
                        <g id="prefix__그룹_10" data-name="그룹 10" transform="translate(5.019 3.925)">
                            <path id="prefix__패스_150" d="M-5.949-11.747a7.5 7.5 0 0 0 7.5-7.5 7.5 7.5 0 0 0-7.5-7.5 7.5 7.5 0 0 0-7.5 7.5 7.5 7.5 0 0 0 7.5 7.5" class="prefix__cls-1" data-name="패스 150" transform="translate(13.449 26.747)"/>
                        </g>
                    </g>
                </g>
            </g>
        </g>
        <path id="prefix__패스_1303" d="M0 104V0" data-name="패스 1303" transform="translate(290.5 290.5)" style="fill:none;stroke:#910004"/>
        <path id="prefix__패스_980" d="M472.255 269.714l-60.673 17.616L351 269.714v-42.206h121.255z" class="prefix__cls-1" data-name="패스 980" transform="translate(-121.253 41.492)"/>
        <path id="prefix__패스_1304" d="M-49.446 0h-1.664v-6.516l-1.623.627v-1.382l3.111-1.271h.176zm7.327 0h-5.027v-1.172l2.309-2.936a6.431 6.431 0 0 0 .647-1.069 2.139 2.139 0 0 0 .208-.882 1.711 1.711 0 0 0-.2-.891.625.625 0 0 0-.565-.322.727.727 0 0 0-.642.375 1.971 1.971 0 0 0-.237 1.055h-1.664a3.165 3.165 0 0 1 .325-1.436 2.429 2.429 0 0 1 .914-1.011 2.5 2.5 0 0 1 1.333-.36 2.4 2.4 0 0 1 1.772.63 2.421 2.421 0 0 1 .63 1.79 3.416 3.416 0 0 1-.349 1.462 8.989 8.989 0 0 1-1.263 1.825l-1.1 1.564h2.9zm5.719-2.443l-.445.5V0H-38.5v-9h1.658v4.863l.205-.3 1.148-1.9h1.975l-1.84 2.613L-33.341 0h-1.9zm5.077-3.9l.047.586a1.784 1.784 0 0 1 1.471-.7 1.368 1.368 0 0 1 1.342.855 1.737 1.737 0 0 1 1.553-.855q1.664 0 1.705 2.3V0h-1.658v-4.049a1.5 1.5 0 0 0-.152-.785.568.568 0 0 0-.516-.234q-.463 0-.691.568l.012.2V0h-1.658v-4.037a1.594 1.594 0 0 0-.146-.788.558.558 0 0 0-.521-.243.759.759 0 0 0-.68.463V0h-1.658v-6.34zm11.385 0l.047.627a1.759 1.759 0 0 1 1.471-.744q1.635 0 1.682 2.291V0H-18.4v-4.043a1.457 1.457 0 0 0-.161-.782.627.627 0 0 0-.565-.243.774.774 0 0 0-.7.463V0H-21.5v-6.34zm4.075 2.965a3.442 3.442 0 0 1 .68-2.262 2.31 2.31 0 0 1 1.881-.82 2.323 2.323 0 0 1 1.893.82 3.462 3.462 0 0 1 .68 2.273v.4A3.448 3.448 0 0 1-11.4-.7a2.313 2.313 0 0 1-1.887.814 2.325 2.325 0 0 1-1.9-.817 3.46 3.46 0 0 1-.677-2.271zm1.664.416q0 1.7.908 1.7.838 0 .9-1.418l.006-.7a2.668 2.668 0 0 0-.24-1.286.748.748 0 0 0-.68-.419.729.729 0 0 0-.659.419 2.7 2.7 0 0 0-.236 1.291zm7.51-1.778l-.551-.047a.9.9 0 0 0-.92.6V0h-1.663v-6.34h1.564l.047.686a1.2 1.2 0 0 1 1.084-.8 1.161 1.161 0 0 1 .457.076zm2.951-3.16v1.56h.85v1.248h-.85v3.146a.927.927 0 0 0 .1.516.463.463 0 0 0 .4.141 1.549 1.549 0 0 0 .393-.041l-.014 1.289a2.583 2.583 0 0 1-.914.158q-1.605 0-1.623-1.84v-3.369h-.732V-6.34h.728V-7.9zm3.255 2.117a1.638 1.638 0 0 1 1.324-.674 1.538 1.538 0 0 1 1.318.609 3.063 3.063 0 0 1 .457 1.816V0H.952v-4.014a1.447 1.447 0 0 0-.173-.806.633.633 0 0 0-.56-.249.783.783 0 0 0-.7.416V0h-1.661v-9h1.659zm6.621 2.408a3.442 3.442 0 0 1 .68-2.262 2.31 2.31 0 0 1 1.882-.82 2.323 2.323 0 0 1 1.893.82 3.462 3.462 0 0 1 .68 2.273v.4A3.448 3.448 0 0 1 10.6-.7a2.313 2.313 0 0 1-1.89.817A2.325 2.325 0 0 1 6.815-.7a3.46 3.46 0 0 1-.677-2.271zm1.662.416q0 1.7.908 1.7.838 0 .9-1.418l.006-.7a2.668 2.668 0 0 0-.24-1.286.748.748 0 0 0-.674-.417.729.729 0 0 0-.659.419A2.7 2.7 0 0 0 7.8-3.375zM12.563 0v-5.092H11.8V-6.34h.768v-.568a2.31 2.31 0 0 1 .554-1.632 1.978 1.978 0 0 1 1.515-.583 3.152 3.152 0 0 1 .75.117l-.012 1.324a1.372 1.372 0 0 0-.4-.053q-.738 0-.738.879v.516h.99v1.248h-.99V0zm7.881-3v3h-1.723v-8.531h2.906a2.666 2.666 0 0 1 2.019.785 2.824 2.824 0 0 1 .754 2.039 2.64 2.64 0 0 1-.744 1.98A2.827 2.827 0 0 1 21.592-3zm0-1.436h1.184a.938.938 0 0 0 .762-.322 1.427 1.427 0 0 0 .27-.937 1.691 1.691 0 0 0-.275-1.017.883.883 0 0 0-.738-.384h-1.2zm4.632 1.061a3.442 3.442 0 0 1 .68-2.262 2.31 2.31 0 0 1 1.881-.82 2.323 2.323 0 0 1 1.893.82 3.462 3.462 0 0 1 .68 2.273v.4A3.448 3.448 0 0 1 29.535-.7a2.313 2.313 0 0 1-1.887.814 2.325 2.325 0 0 1-1.9-.817 3.46 3.46 0 0 1-.677-2.271zm1.664.416q0 1.7.908 1.7.838 0 .9-1.418l.006-.7a2.668 2.668 0 0 0-.24-1.286.748.748 0 0 0-.68-.419.729.729 0 0 0-.659.419 2.7 2.7 0 0 0-.237 1.286zm6-2.824a1.638 1.638 0 0 1 1.324-.674 1.538 1.538 0 0 1 1.318.609 3.063 3.063 0 0 1 .457 1.816V0h-1.666v-4.014A1.447 1.447 0 0 0 34-4.819a.633.633 0 0 0-.56-.249.783.783 0 0 0-.7.416V0h-1.661v-9h1.658zM39.918 0a2.317 2.317 0 0 1-.141-.492 1.417 1.417 0 0 1-1.207.609 1.786 1.786 0 0 1-1.321-.527 1.853 1.853 0 0 1-.524-1.365 1.919 1.919 0 0 1 .636-1.541 2.78 2.78 0 0 1 1.831-.557h.5v-.51a.955.955 0 0 0-.146-.6.525.525 0 0 0-.428-.176q-.621 0-.621.727h-1.655a1.835 1.835 0 0 1 .659-1.45 2.454 2.454 0 0 1 1.667-.571 2.253 2.253 0 0 1 1.614.542 2.034 2.034 0 0 1 .571 1.55v2.982A3.121 3.121 0 0 0 41.588-.1V0zm-.979-1.184a.925.925 0 0 0 .469-.111.788.788 0 0 0 .287-.264v-1.318h-.4a.851.851 0 0 0-.665.27 1.035 1.035 0 0 0-.243.721q.002.702.552.702zm5.013-5.156l.048.627a1.759 1.759 0 0 1 1.471-.744q1.635 0 1.682 2.291V0h-1.666v-4.043a1.457 1.457 0 0 0-.161-.782.627.627 0 0 0-.565-.243.774.774 0 0 0-.7.463V0h-1.667v-6.34zm4.069 2.977a3.934 3.934 0 0 1 .563-2.326 1.842 1.842 0 0 1 1.576-.768 1.521 1.521 0 0 1 1.33.68l.064-.562h1.494V0a2.428 2.428 0 0 1-.68 1.854 2.736 2.736 0 0 1-1.951.642 3.216 3.216 0 0 1-1.1-.208 2.028 2.028 0 0 1-.855-.53l.562-1.149a1.753 1.753 0 0 0 .609.4 1.856 1.856 0 0 0 .709.155 1.039 1.039 0 0 0 .8-.267 1.272 1.272 0 0 0 .249-.858V-.5a1.485 1.485 0 0 1-1.236.621 1.8 1.8 0 0 1-1.567-.788 3.886 3.886 0 0 1-.565-2.224zm1.658.416a2.7 2.7 0 0 0 .229 1.28.775.775 0 0 0 .727.4.845.845 0 0 0 .756-.369v-3.028a.83.83 0 0 0-.744-.4.788.788 0 0 0-.729.4 2.683 2.683 0 0 0-.237 1.3z" class="prefix__cls-5" data-name="패스 1304" transform="translate(290 288.541)"/>
        <path id="prefix__패스_1305" d="M-40.908-11.375l2.148 8.227 2.141-8.227h3V0h-2.3v-3.078l.211-4.742L-37.986 0h-1.562l-2.273-7.82.211 4.742V0h-2.3v-11.375zM-28.109 0a3.09 3.09 0 0 1-.191-.656 1.89 1.89 0 0 1-1.609.813 2.382 2.382 0 0 1-1.762-.7 2.47 2.47 0 0 1-.7-1.82 2.559 2.559 0 0 1 .848-2.055 3.707 3.707 0 0 1 2.441-.742h.672v-.68a1.273 1.273 0 0 0-.2-.8.7.7 0 0 0-.57-.234q-.828 0-.828.969h-2.202a2.447 2.447 0 0 1 .879-1.934 3.272 3.272 0 0 1 2.223-.762 3 3 0 0 1 2.152.723 2.713 2.713 0 0 1 .762 2.066v3.977a4.161 4.161 0 0 0 .313 1.711V0zm-1.3-1.578a1.233 1.233 0 0 0 .625-.148 1.051 1.051 0 0 0 .383-.352v-1.758h-.531a1.134 1.134 0 0 0-.887.359 1.38 1.38 0 0 0-.324.961q-.005.938.73.938zm4.309-2.906a5.246 5.246 0 0 1 .75-3.1 2.456 2.456 0 0 1 2.1-1.023 2.028 2.028 0 0 1 1.773.906l.086-.75h1.991V0a3.238 3.238 0 0 1-.9 2.473 3.648 3.648 0 0 1-2.6.855 4.288 4.288 0 0 1-1.461-.277 2.7 2.7 0 0 1-1.139-.707l.742-1.531a2.338 2.338 0 0 0 .813.535 2.475 2.475 0 0 0 .945.207 1.385 1.385 0 0 0 1.062-.355 1.7 1.7 0 0 0 .332-1.145v-.727a1.98 1.98 0 0 1-1.648.828 2.4 2.4 0 0 1-2.09-1.051 5.182 5.182 0 0 1-.756-2.964zm2.211.555a3.605 3.605 0 0 0 .3 1.707 1.033 1.033 0 0 0 .969.535 1.127 1.127 0 0 0 1.008-.492v-4.04a1.107 1.107 0 0 0-.992-.539 1.051 1.051 0 0 0-.973.539 3.578 3.578 0 0 0-.316 1.734zM-15-8.453l.063.836a2.345 2.345 0 0 1 1.961-.992q2.18 0 2.242 3.055V0h-2.219v-5.391a1.942 1.942 0 0 0-.215-1.043.836.836 0 0 0-.754-.324 1.033 1.033 0 0 0-.937.617V0h-2.219v-8.453zM-7.071 0H-9.29v-8.453h2.219zm-2.32-10.641a1.142 1.142 0 0 1 .328-.844 1.183 1.183 0 0 1 .875-.328 1.183 1.183 0 0 1 .875.328 1.142 1.142 0 0 1 .328.844 1.166 1.166 0 0 1-.324.844 1.164 1.164 0 0 1-.879.336 1.164 1.164 0 0 1-.879-.339 1.166 1.166 0 0 1-.324-.841zm6.362.109v2.078H-1.9v1.664h-1.13v4.2a1.236 1.236 0 0 0 .137.688.618.618 0 0 0 .527.188 2.066 2.066 0 0 0 .523-.055l-.015 1.714a3.444 3.444 0 0 1-1.218.211Q-5.217.156-5.24-2.3v-4.489h-.977v-1.664h.977v-2.078zM3.23-.773a2.178 2.178 0 0 1-1.844.93 2.071 2.071 0 0 1-1.766-.8 3.839 3.839 0 0 1-.6-2.332v-5.478h2.21v5.531q.016 1.234.82 1.234a1.141 1.141 0 0 0 1.094-.656v-6.109h2.227V0H3.293zm3.182-3.711a5.519 5.519 0 0 1 .7-3.1 2.328 2.328 0 0 1 2.05-1.025 1.974 1.974 0 0 1 1.625.844V-12h2.227V0h-2.008l-.1-.859A2.036 2.036 0 0 1 9.155.156 2.308 2.308 0 0 1 7.127-.859a5.341 5.341 0 0 1-.715-2.984zm2.219.555A4.034 4.034 0 0 0 8.9-2.184a.936.936 0 0 0 .9.5 1.078 1.078 0 0 0 .992-.586v-3.863a1.054 1.054 0 0 0-.992-.625.952.952 0 0 0-.891.492 3.831 3.831 0 0 0-.281 1.75zM17.813.156a3.465 3.465 0 0 1-2.656-1.015 4.089 4.089 0 0 1-.957-2.907v-.672a4.807 4.807 0 0 1 .875-3.086 3.034 3.034 0 0 1 2.508-1.086 2.87 2.87 0 0 1 2.4 1.02 4.87 4.87 0 0 1 .82 3.02v1.086h-4.4a2.284 2.284 0 0 0 .414 1.371 1.4 1.4 0 0 0 1.133.434 2.486 2.486 0 0 0 1.852-.758l.87 1.337a2.856 2.856 0 0 1-1.18.91 4.049 4.049 0 0 1-1.679.346zm-1.391-5.187h2.211v-.2a2.363 2.363 0 0 0-.25-1.148.87.87 0 0 0-.812-.391.919.919 0 0 0-.84.414 2.851 2.851 0 0 0-.309 1.325zm9-.562l.563-5.781H31.5v1.891h-3.7l-.2 2.438a2.341 2.341 0 0 1 1.32-.43 2.564 2.564 0 0 1 2.168 1 4.585 4.585 0 0 1 .762 2.828 4.064 4.064 0 0 1-.906 2.758A3.042 3.042 0 0 1 28.52.156a3.367 3.367 0 0 1-1.664-.426 3.137 3.137 0 0 1-1.207-1.184 3.408 3.408 0 0 1-.449-1.718h2.188a2.059 2.059 0 0 0 .352 1.1.92.92 0 0 0 .766.391.926.926 0 0 0 .844-.527 3.291 3.291 0 0 0 .3-1.574 2.559 2.559 0 0 0-.355-1.484 1.152 1.152 0 0 0-1-.5 1.17 1.17 0 0 0-.969.43l-.141.2zM33.3-1.125A1.165 1.165 0 0 1 33.652-2a1.276 1.276 0 0 1 .926-.344A1.3 1.3 0 0 1 35.5-2a1.143 1.143 0 0 1 .367.879 1.122 1.122 0 0 1-.371.879 1.326 1.326 0 0 1-.918.332 1.3 1.3 0 0 1-.918-.336 1.137 1.137 0 0 1-.36-.879zM41.759-4.4a2.122 2.122 0 0 1-1.539.719 2.378 2.378 0 0 1-2.043-1.043 4.692 4.692 0 0 1-.746-2.785 4.941 4.941 0 0 1 .422-2.059 3.4 3.4 0 0 1 1.176-1.449 2.915 2.915 0 0 1 1.684-.516 2.752 2.752 0 0 1 1.711.57 3.654 3.654 0 0 1 1.164 1.637A6.663 6.663 0 0 1 44-6.9v.8a7.217 7.217 0 0 1-1.277 4.543A4.406 4.406 0 0 1 39.1.117h-.227v-1.906h.148a2.641 2.641 0 0 0 1.949-.672 3.142 3.142 0 0 0 .789-1.939zm-.977-1.016q.641 0 1.008-.875V-7.3a4.134 4.134 0 0 0-.3-1.754q-.3-.637-.789-.637t-.77.629a3.62 3.62 0 0 0-.293 1.535 3.3 3.3 0 0 0 .3 1.551.932.932 0 0 0 .845.562z" class="prefix__cls-5" data-name="패스 1305" transform="translate(290 307.541)"/>
    </g>
</svg>
