<svg xmlns="http://www.w3.org/2000/svg" width="124" height="48" viewBox="0 0 124 48">
  <defs>
    <style>
      .cls-1 {
        fill: none;
        stroke: #858585;
      }

      .cls-2 {
        fill: #686868;
      }
    </style>
  </defs>
  <g id="그룹_662" data-name="그룹 662" transform="translate(-23 -69)">
    <path id="패스_1310" data-name="패스 1310" class="cls-1" d="M0,0H123.5" transform="translate(23.5 116.5)"/>
    <path id="패스_858" data-name="패스 858" class="cls-2" d="M2.1,2.1A6.355,6.355,0,0,1,7,0a6.355,6.355,0,0,1,4.9,2.1A6.355,6.355,0,0,1,14,7a6.355,6.355,0,0,1-2.1,4.9A6.355,6.355,0,0,1,7,14a6.355,6.355,0,0,1-4.9-2.1A6.986,6.986,0,0,1,0,7,6.355,6.355,0,0,1,2.1,2.1Zm8.05,8.05.817-.817L8.05,6.417,7,1.75H5.833V7a1.059,1.059,0,0,0,.35.817.407.407,0,0,0,.233.117Z" transform="translate(23 69)"/>
    <path id="패스_1311" data-name="패스 1311" class="cls-2" d="M5.427-4.272H2.158V-1H5.967V0H1V-9.242H5.9v1H2.158v2.971H5.427ZM10.7,0a2.471,2.471,0,0,1-.146-.749A1.784,1.784,0,0,1,9.03.127,1.969,1.969,0,0,1,7.573-.4a2,2,0,0,1-.524-1.476A2.088,2.088,0,0,1,7.76-3.536a2.926,2.926,0,0,1,1.949-.628h.825v-.73a1.174,1.174,0,0,0-.273-.876,1.166,1.166,0,0,0-.832-.26,1.149,1.149,0,0,0-.825.3,1.01,1.01,0,0,0-.317.765H7.163A1.82,1.82,0,0,1,7.474-5.97a2.167,2.167,0,0,1,.838-.752A2.514,2.514,0,0,1,9.487-7a2.236,2.236,0,0,1,1.6.524,2.05,2.05,0,0,1,.562,1.527v3.466A4.183,4.183,0,0,0,11.867-.1V0ZM9.2-.9a1.488,1.488,0,0,0,.787-.229,1.409,1.409,0,0,0,.546-.571V-3.333H9.9a2.126,2.126,0,0,0-1.263.359,1.139,1.139,0,0,0-.463.968,1.256,1.256,0,0,0,.235.847A1.021,1.021,0,0,0,9.2-.9Zm6.9-4.919a2.733,2.733,0,0,0-.508-.044,1.233,1.233,0,0,0-1.206.946V0H13.261V-6.868h1.092l.019.7A1.4,1.4,0,0,1,15.647-7a.989.989,0,0,1,.444.089Zm2.777-2.717v1.663H19.91v.908H18.875V-1.7a1.157,1.157,0,0,0,.133.616.5.5,0,0,0,.457.209,1.419,1.419,0,0,0,.451-.076L19.9,0a2.453,2.453,0,0,1-.781.127,1.181,1.181,0,0,1-1.016-.476,2.244,2.244,0,0,1-.349-1.346V-5.96H16.711v-.908h1.047V-8.531Zm3.361,2.368A1.982,1.982,0,0,1,23.874-7Q25.7-7,25.721-4.564V0H24.6V-4.513a1.871,1.871,0,0,0-.27-1.146A.971.971,0,0,0,23.525-6a1.14,1.14,0,0,0-.752.279,2.012,2.012,0,0,0-.536.73V0H21.113V-9.75h1.124Zm4.789,2.418a4.183,4.183,0,0,1,.584-2.428A2,2,0,0,1,29.349-7a1.776,1.776,0,0,1,1.549.8l.051-.673h1.028V2.641H30.853V-.6a1.781,1.781,0,0,1-1.511.73,1.994,1.994,0,0,1-1.708-.809,4,4,0,0,1-.609-2.358Zm1.124.641A3.256,3.256,0,0,0,28.5-1.39a1.24,1.24,0,0,0,1.13.559,1.342,1.342,0,0,0,1.219-.755V-5.269a1.373,1.373,0,0,0-1.212-.762,1.24,1.24,0,0,0-1.13.559,3.215,3.215,0,0,0-.362,1.682ZM37.141-.6a1.928,1.928,0,0,1-1.631.73A1.641,1.641,0,0,1,34.1-.517a3.155,3.155,0,0,1-.482-1.876V-6.868h1.117v4.393q0,1.606.965,1.606a1.407,1.407,0,0,0,1.409-.914V-6.868h1.124V0H37.166Zm6.186.6a2.471,2.471,0,0,1-.146-.749,1.784,1.784,0,0,1-1.523.876A1.969,1.969,0,0,1,40.2-.4a2,2,0,0,1-.524-1.476,2.088,2.088,0,0,1,.711-1.663,2.926,2.926,0,0,1,1.949-.628h.825v-.73a1.174,1.174,0,0,0-.273-.876,1.166,1.166,0,0,0-.832-.26,1.149,1.149,0,0,0-.825.3,1.01,1.01,0,0,0-.317.765H39.791A1.82,1.82,0,0,1,40.1-5.97a2.166,2.166,0,0,1,.838-.752A2.514,2.514,0,0,1,42.114-7a2.236,2.236,0,0,1,1.6.524,2.05,2.05,0,0,1,.562,1.527v3.466A4.183,4.183,0,0,0,44.495-.1V0Zm-1.5-.9a1.488,1.488,0,0,0,.787-.229,1.409,1.409,0,0,0,.546-.571V-3.333h-.635a2.126,2.126,0,0,0-1.263.359,1.139,1.139,0,0,0-.463.968,1.256,1.256,0,0,0,.235.847A1.021,1.021,0,0,0,41.829-.9Zm5.786-2.247-.6.686V0H45.895V-9.75h1.124v5.833l2.139-2.952H50.5L48.319-4l2.469,4H49.481ZM53.947.127a2.505,2.505,0,0,1-1.968-.765,3.306,3.306,0,0,1-.7-2.244v-.832a3.871,3.871,0,0,1,.67-2.409A2.222,2.222,0,0,1,53.82-7a2.141,2.141,0,0,1,1.8.768,3.947,3.947,0,0,1,.609,2.393V-3.1H52.4v.159a2.506,2.506,0,0,0,.416,1.606,1.466,1.466,0,0,0,1.2.5,1.941,1.941,0,0,0,.873-.187,2.168,2.168,0,0,0,.708-.594l.584.711A2.549,2.549,0,0,1,53.947.127ZM53.82-6.03a1.178,1.178,0,0,0-1.035.479A2.845,2.845,0,0,0,52.4-4.062h2.7v-.152a2.624,2.624,0,0,0-.352-1.4A1.086,1.086,0,0,0,53.82-6.03Zm6.24,2.285a4.138,4.138,0,0,1,.594-2.418A1.966,1.966,0,0,1,62.358-7a1.764,1.764,0,0,1,1.536.8V-9.75h1.124V0H63.989l-.057-.736a1.768,1.768,0,0,1-1.581.863A1.958,1.958,0,0,1,60.679-.7a3.964,3.964,0,0,1-.619-2.339Zm1.124.641a3.264,3.264,0,0,0,.343,1.7,1.221,1.221,0,0,0,1.117.543,1.33,1.33,0,0,0,1.25-.844V-5.173A1.351,1.351,0,0,0,62.65-6a1.221,1.221,0,0,0-1.117.543,3.221,3.221,0,0,0-.349,1.666ZM69.07.127A2.505,2.505,0,0,1,67.1-.638a3.306,3.306,0,0,1-.7-2.244v-.832a3.871,3.871,0,0,1,.67-2.409A2.222,2.222,0,0,1,68.943-7a2.141,2.141,0,0,1,1.8.768,3.947,3.947,0,0,1,.609,2.393V-3.1H67.522v.159a2.505,2.505,0,0,0,.416,1.606,1.466,1.466,0,0,0,1.2.5,1.941,1.941,0,0,0,.873-.187,2.168,2.168,0,0,0,.708-.594L71.3-.9A2.549,2.549,0,0,1,69.07.127ZM68.943-6.03a1.178,1.178,0,0,0-1.035.479,2.845,2.845,0,0,0-.381,1.489h2.7v-.152a2.625,2.625,0,0,0-.352-1.4A1.086,1.086,0,0,0,68.943-6.03Zm5.1-2.5v1.663h1.035v.908H74.044V-1.7a1.157,1.157,0,0,0,.133.616.5.5,0,0,0,.457.209,1.419,1.419,0,0,0,.451-.076L75.072,0a2.453,2.453,0,0,1-.781.127,1.181,1.181,0,0,1-1.016-.476,2.244,2.244,0,0,1-.349-1.346V-5.96H71.879v-.908h1.047V-8.531ZM78.738.127A2.505,2.505,0,0,1,76.77-.638a3.306,3.306,0,0,1-.7-2.244v-.832a3.871,3.871,0,0,1,.67-2.409A2.222,2.222,0,0,1,78.611-7a2.141,2.141,0,0,1,1.8.768,3.947,3.947,0,0,1,.609,2.393V-3.1H77.189v.159a2.505,2.505,0,0,0,.416,1.606,1.466,1.466,0,0,0,1.2.5,1.941,1.941,0,0,0,.873-.187,2.168,2.168,0,0,0,.708-.594l.584.711A2.549,2.549,0,0,1,78.738.127ZM78.611-6.03a1.178,1.178,0,0,0-1.035.479A2.845,2.845,0,0,0,77.2-4.062h2.7v-.152a2.625,2.625,0,0,0-.352-1.4A1.086,1.086,0,0,0,78.611-6.03Zm6.015,5.2a1.191,1.191,0,0,0,.9-.346,1.468,1.468,0,0,0,.368-.987h1.06a2.335,2.335,0,0,1-.7,1.641,2.228,2.228,0,0,1-1.622.651,2.389,2.389,0,0,1-1.946-.8,3.658,3.658,0,0,1-.67-2.39v-.755a3.641,3.641,0,0,1,.667-2.365A2.371,2.371,0,0,1,84.619-7a2.172,2.172,0,0,1,1.673.667,2.711,2.711,0,0,1,.657,1.822h-1.06a1.866,1.866,0,0,0-.365-1.143,1.129,1.129,0,0,0-.9-.381,1.288,1.288,0,0,0-1.111.492,2.837,2.837,0,0,0-.375,1.615v.876a3.055,3.055,0,0,0,.359,1.714A1.3,1.3,0,0,0,84.626-.832Zm4.961-7.7v1.663h1.035v.908H89.587V-1.7a1.157,1.157,0,0,0,.133.616.5.5,0,0,0,.457.209,1.419,1.419,0,0,0,.451-.076L90.615,0a2.453,2.453,0,0,1-.781.127,1.181,1.181,0,0,1-1.016-.476,2.244,2.244,0,0,1-.349-1.346V-5.96H87.422v-.908h1.047V-8.531ZM94.281.127a2.505,2.505,0,0,1-1.968-.765,3.306,3.306,0,0,1-.7-2.244v-.832a3.871,3.871,0,0,1,.67-2.409A2.222,2.222,0,0,1,94.154-7a2.141,2.141,0,0,1,1.8.768,3.947,3.947,0,0,1,.609,2.393V-3.1H92.732v.159a2.505,2.505,0,0,0,.416,1.606,1.466,1.466,0,0,0,1.2.5,1.941,1.941,0,0,0,.873-.187,2.168,2.168,0,0,0,.708-.594l.584.711A2.549,2.549,0,0,1,94.281.127ZM94.154-6.03a1.178,1.178,0,0,0-1.035.479,2.845,2.845,0,0,0-.381,1.489h2.7v-.152a2.625,2.625,0,0,0-.352-1.4A1.086,1.086,0,0,0,94.154-6.03Zm3.393,2.285a4.138,4.138,0,0,1,.594-2.418A1.966,1.966,0,0,1,99.845-7a1.764,1.764,0,0,1,1.536.8V-9.75H102.5V0h-1.028l-.057-.736a1.768,1.768,0,0,1-1.581.863A1.958,1.958,0,0,1,98.166-.7a3.964,3.964,0,0,1-.619-2.339ZM98.67-3.1a3.264,3.264,0,0,0,.343,1.7,1.221,1.221,0,0,0,1.117.543,1.33,1.33,0,0,0,1.25-.844V-5.173A1.351,1.351,0,0,0,100.137-6a1.221,1.221,0,0,0-1.117.543A3.221,3.221,0,0,0,98.67-3.79Z" transform="translate(42 81)"/>
    <path id="패스_1312" data-name="패스 1312" class="cls-2" d="M5.3-15.775V0H2.425V-13.575H.475v-2.2ZM9.975-12.9v2.35H7.1V-13.3q0-2.475,2.725-2.475h2.4q2.75,0,2.75,2.475v1.775a6.577,6.577,0,0,1-1.125,3.6L10.575-2.2H15.05V0H7.175V-2.075l4.075-6.6a5.156,5.156,0,0,0,.875-2.9V-12.9a.727.727,0,0,0-.15-.538.826.826,0,0,0-.55-.137H10.7a.876.876,0,0,0-.575.137A.727.727,0,0,0,9.975-12.9Zm6.55,5.525V-10.45H19.05v3.075Zm0,5.625V-4.825H19.05V-1.75Zm6.8-11.15v2.35H20.45V-13.3q0-2.475,2.725-2.475h2.4q2.75,0,2.75,2.475v1.775a6.577,6.577,0,0,1-1.125,3.6L23.925-2.2H28.4V0H20.525V-2.075l4.075-6.6a5.156,5.156,0,0,0,.875-2.9V-12.9a.727.727,0,0,0-.15-.538.826.826,0,0,0-.55-.137H24.05a.876.876,0,0,0-.575.137A.727.727,0,0,0,23.325-12.9ZM35.65-2.875V-12.9a.727.727,0,0,0-.15-.538.876.876,0,0,0-.575-.137h-1.15a.826.826,0,0,0-.55.137.727.727,0,0,0-.15.538V-2.875a.727.727,0,0,0,.15.537.826.826,0,0,0,.55.138h1.15a.876.876,0,0,0,.575-.138A.727.727,0,0,0,35.65-2.875ZM38.525-13.3V-2.475Q38.525,0,35.8,0H32.9q-2.725,0-2.725-2.475V-13.3q0-2.475,2.725-2.475h2.9Q38.525-15.775,38.525-13.3Zm10.8,1.025h.75q2.575,0,2.575,2.475v7.325Q52.65,0,50.075,0h-.75a1.642,1.642,0,0,1-1.75-1.05V3.4H44.75V-12.275h2.8v1.125A1.632,1.632,0,0,1,49.325-12.275Zm.475,9.4V-9.4a.727.727,0,0,0-.15-.538.826.826,0,0,0-.55-.137h-.75q-.775,0-.775.825v6.225q0,.825.775.825h.75a.826.826,0,0,0,.55-.138A.727.727,0,0,0,49.8-2.875ZM54.375,0V-3.375h3.05V0Zm14.6-12.275h.775A2.221,2.221,0,0,1,72.3-9.8V0H69.475V-9.4a.727.727,0,0,0-.15-.538.826.826,0,0,0-.55-.137h-.75q-.775,0-.775.825V0H64.4V-9.4a.727.727,0,0,0-.15-.538.826.826,0,0,0-.55-.137h-.75q-.775,0-.775.825V0H59.35V-12.275h2.8v1.125a1.632,1.632,0,0,1,1.775-1.125h.75a2.235,2.235,0,0,1,2.35,1.25A1.761,1.761,0,0,1,68.975-12.275ZM74.1,0V-3.375h3.05V0Z" transform="translate(26 110)"/>
  </g>
</svg>
