<svg xmlns="http://www.w3.org/2000/svg" width="20" height="20" viewBox="0 0 20 20">
    <defs>
        <style>
            .cls-1{fill:#cbcbcb}
        </style>
    </defs>
    <path id="패스_857" d="M20 18.239l-4.151-4.151a8.612 8.612 0 0 0 1.761-5.283A8.751 8.751 0 0 0 8.805 0 8.751 8.751 0 0 0 0 8.805a8.751 8.751 0 0 0 8.805 8.805 8.612 8.612 0 0 0 5.283-1.761L18.239 20zM2.516 8.805a6.228 6.228 0 0 1 6.289-6.289 6.228 6.228 0 0 1 6.289 6.289 6.228 6.228 0 0 1-6.289 6.289 6.228 6.228 0 0 1-6.289-6.289z" class="cls-1" data-name="패스 857"/>
</svg>
