<svg xmlns="http://www.w3.org/2000/svg" width="38.846" height="57.117" viewBox="0 0 38.846 57.117">
    <defs>
        <style>
            .prefix__cls-1{fill:#2d2d2d}
        </style>
    </defs>
    <g id="prefix__그룹_654" data-name="그룹 654" transform="translate(-304.568 -545)">
        <path id="prefix__패스_1283" d="M-6.947-1.746H-9.3L-9.753 0h-1.822l2.666-8.531h1.576L-4.65 0h-1.84zm-1.974-1.436h1.594l-.8-3.041zM-2.315 0h-1.664v-9h1.664zm3.724.117A2.6 2.6 0 0 1-.583-.645 3.066 3.066 0 0 1-1.3-2.824v-.5a3.6 3.6 0 0 1 .658-2.319 2.275 2.275 0 0 1 1.881-.814 2.152 2.152 0 0 1 1.8.765 3.653 3.653 0 0 1 .615 2.265v.814h-3.3a1.713 1.713 0 0 0 .311 1.028 1.052 1.052 0 0 0 .85.325A1.864 1.864 0 0 0 2.9-1.828l.65 1a2.142 2.142 0 0 1-.885.683 3.037 3.037 0 0 1-1.256.262zM.366-3.773h1.658v-.152a1.772 1.772 0 0 0-.187-.861.652.652 0 0 0-.609-.293.689.689 0 0 0-.628.309 2.138 2.138 0 0 0-.234.997zM7.6-4.74l-.551-.047a.9.9 0 0 0-.92.6V0H4.465v-6.34h1.564l.047.686a1.2 1.2 0 0 1 1.084-.8 1.161 1.161 0 0 1 .457.076zm2.95-3.16v1.56h.85v1.248h-.85v3.146a.927.927 0 0 0 .1.516.463.463 0 0 0 .4.141 1.549 1.549 0 0 0 .393-.041l-.014 1.289a2.583 2.583 0 0 1-.914.158q-1.605 0-1.623-1.84v-3.369h-.733V-6.34h.732V-7.9zM-16.3 6.26l-.551-.047a.9.9 0 0 0-.92.6V11h-1.664V4.66h1.564l.047.686a1.2 1.2 0 0 1 1.084-.8 1.161 1.161 0 0 1 .457.076zm3.179 4.857a2.6 2.6 0 0 1-1.992-.762 3.066 3.066 0 0 1-.715-2.18v-.5a3.6 3.6 0 0 1 .656-2.314 2.275 2.275 0 0 1 1.881-.814 2.152 2.152 0 0 1 1.8.765 3.653 3.653 0 0 1 .615 2.265v.814h-3.3a1.713 1.713 0 0 0 .311 1.028 1.052 1.052 0 0 0 .85.325 1.864 1.864 0 0 0 1.389-.568l.65 1a2.142 2.142 0 0 1-.885.683 3.037 3.037 0 0 1-1.257.258zm-1.043-3.891h1.664v-.152a1.772 1.772 0 0 0-.187-.861.652.652 0 0 0-.613-.293.689.689 0 0 0-.63.311 2.138 2.138 0 0 0-.231.996zm6.4 2.514q.721 0 .732-.937h1.559a2.329 2.329 0 0 1-.639 1.676 2.167 2.167 0 0 1-1.617.639 2.312 2.312 0 0 1-1.871-.763 3.439 3.439 0 0 1-.656-2.244v-.5a3.549 3.549 0 0 1 .636-2.283 2.274 2.274 0 0 1 1.878-.785 2.149 2.149 0 0 1 1.652.647 2.634 2.634 0 0 1 .615 1.837h-1.558a1.662 1.662 0 0 0-.176-.82.6.6 0 0 0-.562-.287.67.67 0 0 0-.621.308 2.623 2.623 0 0 0-.2 1.192v.645a5.174 5.174 0 0 0 .076 1.081.814.814 0 0 0 .252.451.768.768 0 0 0 .499.143zm5.664 1.377a2.6 2.6 0 0 1-1.992-.762A3.066 3.066 0 0 1-4.8 8.176v-.5a3.6 3.6 0 0 1 .656-2.314 2.275 2.275 0 0 1 1.881-.814 2.152 2.152 0 0 1 1.8.765 3.653 3.653 0 0 1 .611 2.259v.814h-3.3a1.713 1.713 0 0 0 .312 1.029 1.052 1.052 0 0 0 .85.325A1.864 1.864 0 0 0-.6 9.172l.65 1a2.142 2.142 0 0 1-.885.683 3.037 3.037 0 0 1-1.265.262zm-1.039-3.89h1.658v-.153a1.772 1.772 0 0 0-.187-.861.652.652 0 0 0-.609-.293.689.689 0 0 0-.63.311 2.138 2.138 0 0 0-.232.996zM2.706 11H1.042V4.66h1.664zM.965 3.02a.857.857 0 0 1 .246-.633.887.887 0 0 1 .656-.246.887.887 0 0 1 .656.246.857.857 0 0 1 .246.633.849.849 0 0 1-.9.885.849.849 0 0 1-.9-.885zm4.984 5.636l.8-4H8.48L6.74 11H5.158L3.412 4.66h1.734zm5.675 2.461a2.6 2.6 0 0 1-1.992-.762 3.066 3.066 0 0 1-.715-2.18v-.5a3.6 3.6 0 0 1 .656-2.314 2.275 2.275 0 0 1 1.881-.814 2.152 2.152 0 0 1 1.8.765 3.653 3.653 0 0 1 .615 2.265v.814h-3.3a1.713 1.713 0 0 0 .311 1.028 1.052 1.052 0 0 0 .85.325 1.864 1.864 0 0 0 1.389-.568l.65 1a2.142 2.142 0 0 1-.885.683 3.037 3.037 0 0 1-1.26.258zm-1.043-3.89h1.658v-.153a1.772 1.772 0 0 0-.187-.861.652.652 0 0 0-.609-.293.689.689 0 0 0-.63.311 2.138 2.138 0 0 0-.232.996zm3.882.41a4.139 4.139 0 0 1 .527-2.326 1.746 1.746 0 0 1 1.535-.768 1.48 1.48 0 0 1 1.219.633V2h1.67v9h-1.506l-.076-.645a1.527 1.527 0 0 1-1.312.762 1.731 1.731 0 0 1-1.52-.762 4.006 4.006 0 0 1-.536-2.238zm1.664.416a3.025 3.025 0 0 0 .2 1.31.7.7 0 0 0 .673.371.809.809 0 0 0 .744-.439V6.4a.79.79 0 0 0-.738-.469.714.714 0 0 0-.668.369 2.873 2.873 0 0 0-.211 1.313z" class="prefix__cls-1" data-name="패스 1283" transform="translate(324 591)"/>
        <g id="prefix__패스_1284" data-name="패스 1284" style="fill:none">
            <path d="M16 0A16 16 0 1 1 0 16 16 16 0 0 1 16 0z" style="stroke:none" transform="translate(308 545)"/>
            <path d="M16 3c-3.472 0-6.737 1.352-9.192 3.808C4.352 9.263 3 12.528 3 16c0 3.472 1.352 6.737 3.808 9.192C9.263 27.648 12.528 29 16 29c3.472 0 6.737-1.352 9.192-3.808C27.648 22.737 29 19.472 29 16c0-3.472-1.352-6.737-3.808-9.192C22.737 4.352 19.472 3 16 3m0-3c8.837 0 16 7.163 16 16s-7.163 16-16 16S0 24.837 0 16 7.163 0 16 0z" style="stroke:none;fill:#2d2d2d" transform="translate(308 545)"/>
        </g>
        <g id="prefix__그룹_229" data-name="그룹 229" transform="translate(315.2 553)">
            <path id="prefix__패스_848" d="M8.766.5v15.96a.361.361 0 0 1-.336.336.52.52 0 0 1-.336-.168l-4.536-4.364H.366c-.168 0-.168 0-.336-.168s0-.168 0-.336V5.04c0-.168 0-.168.168-.336a.587.587 0 0 1 .336-.168h3.192L8.262 0H8.6c.166.168.166.168.166.5z" class="prefix__cls-1" data-name="패스 848" transform="translate(.044)"/>
            <path id="prefix__빼기_2" d="M4.477 13.847a.661.661 0 0 1-.438-.088l-1.23-1.229a.107.107 0 0 0-.024-.062.081.081 0 0 0-.063-.025v-.088c0-.086 0-.175.088-.175A7.122 7.122 0 0 0 5 6.913a7.038 7.038 0 0 0-2.191-5.267c-.088 0-.088-.089-.088-.175v-.088a.086.086 0 0 1 .088-.088L4.038.066A.257.257 0 0 1 4.224 0a.58.58 0 0 1 .253.066 9.621 9.621 0 0 1 2.545 4.389 9.712 9.712 0 0 1 0 5 9.621 9.621 0 0 1-2.545 4.389zm-2.722-2.634a.482.482 0 0 1-.438-.175L.088 9.809a.107.107 0 0 0-.024-.062A.081.081 0 0 0 0 9.722v-.089c0-.086 0-.175.088-.175a3.529 3.529 0 0 0 1.054-2.545A3.531 3.531 0 0 0 .088 4.367.273.273 0 0 1 0 4.192V4.1a.086.086 0 0 1 .088-.088l1.229-1.225c.093-.093.157-.131.219-.131s.126.038.22.131A5.768 5.768 0 0 1 3.512 7a5.768 5.768 0 0 1-1.756 4.213z" class="prefix__cls-1" data-name="빼기 2" transform="translate(10.789 1.05)"/>
        </g>
    </g>
</svg>
