<svg xmlns="http://www.w3.org/2000/svg" width="20" height="21.053" viewBox="0 0 20 21.053">
    <defs>
        <style>
            .cls-1{fill:#2d2d2d;fill-rule:evenodd}
        </style>
    </defs>
    <g id="그룹_111" data-name="그룹 111" transform="translate(-321 -10)">
        <path id="패스_861" d="M269.868 13.158a2.632 2.632 0 1 0-2.632-2.632 2.639 2.639 0 0 0 2.632 2.632zm-5.395-8.421a7.421 7.421 0 0 1 3.158-1.711L268.684 0h2.632l1.053 3.026a9.189 9.189 0 0 1 3.158 1.711l3.158-.658L280 6.447l-2.105 2.368a7.5 7.5 0 0 1 .132 1.711c0 .526-.132 1.184-.132 1.711L280 14.605l-1.316 2.368-3.158-.658a7.421 7.421 0 0 1-3.158 1.711l-1.053 3.026h-2.632l-1.053-3.026a9.188 9.188 0 0 1-3.158-1.711l-3.158.658L260 14.605l2.105-2.368a7.5 7.5 0 0 1-.132-1.711c0-.526.132-1.184.132-1.711L260 6.447l1.316-2.368z" class="cls-1" data-name="패스 861" transform="translate(61 10)"/>
    </g>
</svg>
