<svg xmlns="http://www.w3.org/2000/svg" width="125" height="48" viewBox="0 0 125 48">
  <defs>
    <style>
      .cls-1, .cls-2 {
        fill: none;
      }

      .cls-1 {
        stroke: #858585;
      }

      .cls-3, .cls-4 {
        fill: #686868;
      }

      .cls-3 {
        fill-rule: evenodd;
      }
    </style>
  </defs>
  <g id="그룹_663" data-name="그룹 663" transform="translate(-22 -129)">
    <path id="패스_1313" data-name="패스 1313" class="cls-1" d="M0,0H123.5" transform="translate(23.5 176.5)"/>
    <g id="pin" transform="translate(-178 -306)">
      <rect id="사각형_1404" data-name="사각형 1404" class="cls-2" width="16" height="16" transform="translate(200 435)"/>
      <path id="패스_276" data-name="패스 276" class="cls-3" d="M6.23,8.962A2.638,2.638,0,0,0,8.872,6.32,2.719,2.719,0,0,0,6.23,3.583,2.638,2.638,0,0,0,3.587,6.225,2.785,2.785,0,0,0,6.23,8.962ZM1.794,1.79a6.272,6.272,0,0,1,8.87,8.87L6.23,15.1,1.794,10.66A6.443,6.443,0,0,1,1.794,1.79Z" transform="translate(201.079 435.05)"/>
    </g>
    <path id="패스_1314" data-name="패스 1314" class="cls-4" d="M6.792-2.933A3.412,3.412,0,0,1,5.957-.66,2.836,2.836,0,0,1,3.815.127,2.648,2.648,0,0,1,1.606-.93,4.564,4.564,0,0,1,.787-3.8V-5.472a4.427,4.427,0,0,1,.841-2.85A2.785,2.785,0,0,1,3.923-9.369,2.664,2.664,0,0,1,6-8.566a3.518,3.518,0,0,1,.8,2.295H5.618a2.855,2.855,0,0,0-.476-1.612,1.492,1.492,0,0,0-1.219-.482,1.657,1.657,0,0,0-1.454.74,3.829,3.829,0,0,0-.508,2.168v1.695a4.048,4.048,0,0,0,.473,2.152,1.533,1.533,0,0,0,1.381.749,1.669,1.669,0,0,0,1.308-.451,2.836,2.836,0,0,0,.5-1.619ZM11.581-.6A1.928,1.928,0,0,1,9.95.127,1.641,1.641,0,0,1,8.541-.517a3.155,3.155,0,0,1-.482-1.876V-6.868H9.176v4.393q0,1.606.965,1.606a1.407,1.407,0,0,0,1.409-.914V-6.868h1.124V0H11.607Zm5.488-5.211a2.733,2.733,0,0,0-.508-.044,1.233,1.233,0,0,0-1.206.946V0H14.232V-6.868h1.092l.019.7A1.4,1.4,0,0,1,16.618-7a.989.989,0,0,1,.444.089Zm3.825,0a2.733,2.733,0,0,0-.508-.044,1.233,1.233,0,0,0-1.206.946V0H18.056V-6.868h1.092l.019.7A1.4,1.4,0,0,1,20.443-7a.989.989,0,0,1,.444.089ZM24.217.127a2.505,2.505,0,0,1-1.968-.765,3.306,3.306,0,0,1-.7-2.244v-.832a3.871,3.871,0,0,1,.67-2.409A2.222,2.222,0,0,1,24.09-7a2.141,2.141,0,0,1,1.8.768A3.947,3.947,0,0,1,26.5-3.834V-3.1H22.668v.159a2.505,2.505,0,0,0,.416,1.606,1.466,1.466,0,0,0,1.2.5,1.941,1.941,0,0,0,.873-.187,2.168,2.168,0,0,0,.708-.594l.584.711A2.549,2.549,0,0,1,24.217.127ZM24.09-6.03a1.178,1.178,0,0,0-1.035.479,2.845,2.845,0,0,0-.381,1.489h2.7v-.152a2.624,2.624,0,0,0-.352-1.4A1.086,1.086,0,0,0,24.09-6.03Zm4.688-.838.032.743A2,2,0,0,1,30.479-7Q32.3-7,32.326-4.564V0H31.209V-4.513a1.871,1.871,0,0,0-.27-1.146A.971.971,0,0,0,30.13-6a1.14,1.14,0,0,0-.752.279,2.012,2.012,0,0,0-.536.73V0H27.718V-6.868Zm6.573-1.663v1.663h1.035v.908H35.351V-1.7a1.157,1.157,0,0,0,.133.616.5.5,0,0,0,.457.209,1.419,1.419,0,0,0,.451-.076L36.379,0A2.453,2.453,0,0,1,35.6.127a1.181,1.181,0,0,1-1.016-.476,2.244,2.244,0,0,1-.349-1.346V-5.96H33.186v-.908h1.047V-8.531ZM41.648,0H40.524V-9.75h1.124Zm1.4-3.751a3.591,3.591,0,0,1,.727-2.371A2.375,2.375,0,0,1,45.695-7a2.4,2.4,0,0,1,1.92.851,3.524,3.524,0,0,1,.746,2.317V-3.1a3.578,3.578,0,0,1-.724,2.361,2.383,2.383,0,0,1-1.93.87,2.391,2.391,0,0,1-1.914-.844A3.5,3.5,0,0,1,43.048-3Zm1.124.647a2.91,2.91,0,0,0,.416,1.666,1.294,1.294,0,0,0,1.12.606q1.485,0,1.53-2.146v-.774a2.912,2.912,0,0,0-.419-1.666,1.3,1.3,0,0,0-1.124-.613,1.279,1.279,0,0,0-1.108.613,2.916,2.916,0,0,0-.416,1.66ZM52.065-.832a1.191,1.191,0,0,0,.9-.346,1.468,1.468,0,0,0,.368-.987h1.06a2.335,2.335,0,0,1-.7,1.641,2.228,2.228,0,0,1-1.622.651,2.389,2.389,0,0,1-1.946-.8,3.658,3.658,0,0,1-.67-2.39v-.755a3.641,3.641,0,0,1,.667-2.365A2.371,2.371,0,0,1,52.058-7a2.172,2.172,0,0,1,1.673.667,2.711,2.711,0,0,1,.657,1.822h-1.06a1.866,1.866,0,0,0-.365-1.143,1.129,1.129,0,0,0-.9-.381,1.288,1.288,0,0,0-1.111.492,2.837,2.837,0,0,0-.375,1.615v.876a3.055,3.055,0,0,0,.359,1.714A1.3,1.3,0,0,0,52.065-.832ZM59.089,0a2.471,2.471,0,0,1-.146-.749,1.784,1.784,0,0,1-1.523.876A1.969,1.969,0,0,1,55.962-.4a2,2,0,0,1-.524-1.476,2.088,2.088,0,0,1,.711-1.663A2.926,2.926,0,0,1,58.1-4.164h.825v-.73a1.174,1.174,0,0,0-.273-.876,1.166,1.166,0,0,0-.832-.26,1.149,1.149,0,0,0-.825.3,1.01,1.01,0,0,0-.317.765H55.553a1.82,1.82,0,0,1,.311-1.006,2.166,2.166,0,0,1,.838-.752A2.514,2.514,0,0,1,57.876-7a2.236,2.236,0,0,1,1.6.524,2.05,2.05,0,0,1,.562,1.527v3.466A4.183,4.183,0,0,0,60.257-.1V0Zm-1.5-.9a1.488,1.488,0,0,0,.787-.229,1.409,1.409,0,0,0,.546-.571V-3.333h-.635a2.126,2.126,0,0,0-1.263.359,1.139,1.139,0,0,0-.463.968,1.256,1.256,0,0,0,.235.847A1.021,1.021,0,0,0,57.591-.9Zm5.532-7.636v1.663h1.035v.908H63.123V-1.7a1.157,1.157,0,0,0,.133.616.5.5,0,0,0,.457.209,1.419,1.419,0,0,0,.451-.076L64.151,0a2.453,2.453,0,0,1-.781.127,1.181,1.181,0,0,1-1.016-.476,2.244,2.244,0,0,1-.349-1.346V-5.96H60.958v-.908h1.047V-8.531ZM66.573,0H65.449V-6.868h1.124Zm.089-8.69a.719.719,0,0,1-.159.476.592.592,0,0,1-.482.19.584.584,0,0,1-.476-.19.719.719,0,0,1-.159-.476.744.744,0,0,1,.159-.482.575.575,0,0,1,.476-.2.58.58,0,0,1,.479.2A.738.738,0,0,1,66.662-8.69Zm1.311,4.938A3.591,3.591,0,0,1,68.7-6.122,2.375,2.375,0,0,1,70.619-7a2.4,2.4,0,0,1,1.92.851,3.524,3.524,0,0,1,.746,2.317V-3.1a3.578,3.578,0,0,1-.724,2.361,2.383,2.383,0,0,1-1.93.87,2.391,2.391,0,0,1-1.914-.844A3.5,3.5,0,0,1,67.972-3ZM69.1-3.1a2.91,2.91,0,0,0,.416,1.666,1.294,1.294,0,0,0,1.12.606q1.485,0,1.53-2.146v-.774a2.912,2.912,0,0,0-.419-1.666,1.3,1.3,0,0,0-1.124-.613,1.279,1.279,0,0,0-1.108.613,2.916,2.916,0,0,0-.416,1.66Zm6.567-3.764.032.743A2,2,0,0,1,77.364-7q1.822,0,1.847,2.431V0H78.094V-4.513a1.871,1.871,0,0,0-.27-1.146A.971.971,0,0,0,77.015-6a1.14,1.14,0,0,0-.752.279,2.012,2.012,0,0,0-.536.73V0H74.6V-6.868Z" transform="translate(42 141)"/>
    <path id="패스_1315" data-name="패스 1315" class="cls-4" d="M.325-5.525H3.2v2.65a.727.727,0,0,0,.15.537.876.876,0,0,0,.575.138h.6a.826.826,0,0,0,.55-.138.727.727,0,0,0,.15-.537v-12.9h2.9v13.3Q8.125,0,5.4,0H3.05Q.325,0,.325-2.475Zm15-6.75h2.85V0h-2.8V-1.225A1.593,1.593,0,0,1,13.6,0h-.775a2.221,2.221,0,0,1-2.55-2.475v-9.8H13.1v9.4a.727.727,0,0,0,.15.537.826.826,0,0,0,.55.138h.75q.775,0,.775-.825Zm9.55,0h.75q2.575,0,2.575,2.475V0H25.35V-9.4a.727.727,0,0,0-.15-.538.826.826,0,0,0-.55-.137H23.9q-.775,0-.775.825V0H20.3V-12.275h2.8v1.125A1.632,1.632,0,0,1,24.875-12.275Zm10.325,0H38V.925Q38,3.4,35.275,3.4H30.55V1.25h3.9A.826.826,0,0,0,35,1.113a.727.727,0,0,0,.15-.538v-1.95a1.622,1.622,0,0,1-1.725,1.05H32.65A2.221,2.221,0,0,1,30.1-2.8v-7a2.221,2.221,0,0,1,2.55-2.475h.775a1.591,1.591,0,0,1,1.775,1.2Zm-1.575,9.75h.75a.8.8,0,0,0,.6-.187.972.972,0,0,0,.175-.663V-9.25q0-.825-.775-.825h-.75a.826.826,0,0,0-.55.137.727.727,0,0,0-.15.538v6.2a.727.727,0,0,0,.15.538A.826.826,0,0,0,33.625-2.525Zm6.425-3.85V-8.45h6.075v2.075Zm13.075-5.9h2.8V.925Q55.925,3.4,53.2,3.4H48.475V1.25h3.9a.826.826,0,0,0,.55-.137.727.727,0,0,0,.15-.538v-1.95A1.622,1.622,0,0,1,51.35-.325h-.775A2.221,2.221,0,0,1,48.025-2.8v-7a2.221,2.221,0,0,1,2.55-2.475h.775a1.591,1.591,0,0,1,1.775,1.2ZM51.55-2.525h.75a.8.8,0,0,0,.6-.187.972.972,0,0,0,.175-.663V-9.25q0-.825-.775-.825h-.75a.826.826,0,0,0-.55.137.727.727,0,0,0-.15.538v6.2a.727.727,0,0,0,.15.538A.826.826,0,0,0,51.55-2.525Zm11.5-9.75H65.9V0H63.1V-1.225A1.593,1.593,0,0,1,61.325,0H60.55A2.221,2.221,0,0,1,58-2.475v-9.8h2.825v9.4a.727.727,0,0,0,.15.537.826.826,0,0,0,.55.138h.75q.775,0,.775-.825Zm4.75,8.9h3.05v1.8L68.75,3.55H67.8Zm14.125.5V-6.25a.727.727,0,0,0-.15-.537.826.826,0,0,0-.55-.138H79.2q-2.575,0-2.575-2.5V-13.3q0-2.475,2.7-2.475h2.75q2.7,0,2.7,2.475v2.2h-2.9v-1.8a.727.727,0,0,0-.15-.538.826.826,0,0,0-.55-.137h-.95a.876.876,0,0,0-.575.137.727.727,0,0,0-.15.538v3.175a.727.727,0,0,0,.15.538.876.876,0,0,0,.575.138H82.2q2.625,0,2.625,2.45v4.125Q84.825,0,82.1,0H79.4q-2.725,0-2.725-2.475V-4.65H79.55v1.775a.727.727,0,0,0,.15.537.876.876,0,0,0,.575.138h.95a.826.826,0,0,0,.55-.138A.727.727,0,0,0,81.925-2.875Zm7.45-9.4h2.65q2.7,0,2.7,2.475v4.475H89.4V-2.8a.772.772,0,0,0,.138.538.821.821,0,0,0,.563.137h1.15a.826.826,0,0,0,.55-.137.727.727,0,0,0,.15-.538v-.925H94.7v1.25Q94.7,0,91.975,0h-2.6Q86.65,0,86.65-2.475V-9.8Q86.65-12.275,89.375-12.275ZM89.4-7.15H92V-9.5a.727.727,0,0,0-.15-.537.826.826,0,0,0-.55-.138H90.1a.826.826,0,0,0-.55.138.727.727,0,0,0-.15.537Zm9.725-5.125h2.825q2.65,0,2.65,2.475v7.325Q104.6,0,101.95,0H99.125Q96.45,0,96.45-2.475V-9.8Q96.45-12.275,99.125-12.275Zm2.7,9.475V-9.475a.727.727,0,0,0-.15-.537.876.876,0,0,0-.575-.137H99.95a.876.876,0,0,0-.575.137.727.727,0,0,0-.15.537V-2.8a.727.727,0,0,0,.15.538.876.876,0,0,0,.575.137h1.15a.876.876,0,0,0,.575-.137A.727.727,0,0,0,101.825-2.8Zm9.8-9.475h2.85V0h-2.8V-1.225A1.593,1.593,0,0,1,109.9,0h-.775a2.221,2.221,0,0,1-2.55-2.475v-9.8H109.4v9.4a.727.727,0,0,0,.15.537.826.826,0,0,0,.55.138h.75q.775,0,.775-.825ZM119.425,0H116.6V-16.725h2.825Z" transform="translate(25 169)"/>
  </g>
</svg>
