<svg xmlns="http://www.w3.org/2000/svg" width="125" height="48" viewBox="0 0 125 48">
    <g id="prefix__그룹_661" data-name="그룹 661" transform="translate(-22 -129)">
        <path id="prefix__패스_1309" d="M0 0h123.5" data-name="패스 1309" transform="translate(23.5 176.5)" style="stroke:#858585;fill:none"/>
        <path id="prefix__패스_1308" d="M6.792-2.933A3.412 3.412 0 0 1 5.957-.66a2.836 2.836 0 0 1-2.142.787A2.648 2.648 0 0 1 1.606-.93 4.564 4.564 0 0 1 .787-3.8v-1.672a4.427 4.427 0 0 1 .841-2.85 2.785 2.785 0 0 1 2.295-1.047A2.664 2.664 0 0 1 6-8.566a3.518 3.518 0 0 1 .8 2.295H5.618a2.855 2.855 0 0 0-.476-1.612 1.492 1.492 0 0 0-1.219-.482 1.657 1.657 0 0 0-1.454.74 3.829 3.829 0 0 0-.508 2.168v1.695a4.048 4.048 0 0 0 .473 2.152 1.533 1.533 0 0 0 1.381.749 1.669 1.669 0 0 0 1.308-.451 2.836 2.836 0 0 0 .5-1.619zM11.581-.6A1.928 1.928 0 0 1 9.95.127a1.641 1.641 0 0 1-1.409-.644 3.155 3.155 0 0 1-.482-1.876v-4.475h1.117v4.393q0 1.606.965 1.606a1.407 1.407 0 0 0 1.409-.914v-5.085h1.124V0h-1.067zm5.488-5.211a2.733 2.733 0 0 0-.508-.044 1.233 1.233 0 0 0-1.206.946V0h-1.123v-6.868h1.092l.019.7A1.4 1.4 0 0 1 16.618-7a.989.989 0 0 1 .444.089zm3.825 0a2.733 2.733 0 0 0-.508-.044 1.233 1.233 0 0 0-1.206.946V0h-1.124v-6.868h1.092l.019.7A1.4 1.4 0 0 1 20.443-7a.989.989 0 0 1 .444.089zM24.217.127a2.505 2.505 0 0 1-1.968-.765 3.306 3.306 0 0 1-.7-2.244v-.832a3.871 3.871 0 0 1 .67-2.409A2.222 2.222 0 0 1 24.09-7a2.141 2.141 0 0 1 1.8.768 3.947 3.947 0 0 1 .61 2.398v.734h-3.832v.159a2.505 2.505 0 0 0 .416 1.606 1.466 1.466 0 0 0 1.2.5 1.941 1.941 0 0 0 .873-.187 2.168 2.168 0 0 0 .708-.594l.584.711A2.549 2.549 0 0 1 24.217.127zM24.09-6.03a1.178 1.178 0 0 0-1.035.479 2.845 2.845 0 0 0-.381 1.489h2.7v-.152a2.624 2.624 0 0 0-.352-1.4 1.086 1.086 0 0 0-.932-.416zm4.688-.838l.032.743A2 2 0 0 1 30.479-7q1.821 0 1.847 2.436V0h-1.117v-4.513a1.871 1.871 0 0 0-.27-1.146A.971.971 0 0 0 30.13-6a1.14 1.14 0 0 0-.752.279 2.012 2.012 0 0 0-.536.73V0h-1.124v-6.868zm6.573-1.663v1.663h1.035v.908h-1.035v4.26a1.157 1.157 0 0 0 .133.616.5.5 0 0 0 .457.209 1.419 1.419 0 0 0 .451-.076L36.379 0a2.453 2.453 0 0 1-.779.127 1.181 1.181 0 0 1-1.016-.476 2.244 2.244 0 0 1-.349-1.346V-5.96h-1.049v-.908h1.047v-1.663zM41.648 0h-1.124v-9.75h1.124zm1.4-3.751a3.591 3.591 0 0 1 .727-2.371A2.375 2.375 0 0 1 45.695-7a2.4 2.4 0 0 1 1.92.851 3.524 3.524 0 0 1 .746 2.317v.732a3.578 3.578 0 0 1-.724 2.361 2.383 2.383 0 0 1-1.93.87 2.391 2.391 0 0 1-1.914-.844A3.5 3.5 0 0 1 43.048-3zm1.124.647a2.91 2.91 0 0 0 .416 1.666 1.294 1.294 0 0 0 1.12.606q1.485 0 1.53-2.146v-.774a2.912 2.912 0 0 0-.419-1.666 1.3 1.3 0 0 0-1.124-.613 1.279 1.279 0 0 0-1.108.613 2.916 2.916 0 0 0-.416 1.66zm7.893 2.272a1.191 1.191 0 0 0 .9-.346 1.468 1.468 0 0 0 .368-.987h1.06a2.335 2.335 0 0 1-.7 1.641 2.228 2.228 0 0 1-1.622.651 2.389 2.389 0 0 1-1.946-.8 3.658 3.658 0 0 1-.67-2.39v-.755a3.641 3.641 0 0 1 .667-2.365A2.371 2.371 0 0 1 52.058-7a2.172 2.172 0 0 1 1.673.667 2.711 2.711 0 0 1 .657 1.822h-1.06a1.866 1.866 0 0 0-.365-1.143 1.129 1.129 0 0 0-.9-.381 1.288 1.288 0 0 0-1.111.492 2.837 2.837 0 0 0-.375 1.615v.876a3.055 3.055 0 0 0 .359 1.714 1.3 1.3 0 0 0 1.129.506zM59.089 0a2.471 2.471 0 0 1-.146-.749 1.784 1.784 0 0 1-1.523.876A1.969 1.969 0 0 1 55.962-.4a2 2 0 0 1-.524-1.476 2.088 2.088 0 0 1 .711-1.663 2.926 2.926 0 0 1 1.951-.625h.825v-.73a1.174 1.174 0 0 0-.273-.876 1.166 1.166 0 0 0-.832-.26 1.149 1.149 0 0 0-.825.3 1.01 1.01 0 0 0-.317.765h-1.125a1.82 1.82 0 0 1 .311-1.006 2.166 2.166 0 0 1 .838-.752A2.514 2.514 0 0 1 57.876-7a2.236 2.236 0 0 1 1.6.524 2.05 2.05 0 0 1 .562 1.527v3.466A4.183 4.183 0 0 0 60.257-.1V0zm-1.5-.9a1.488 1.488 0 0 0 .787-.229 1.409 1.409 0 0 0 .546-.571v-1.633h-.635a2.126 2.126 0 0 0-1.263.359 1.139 1.139 0 0 0-.463.968 1.256 1.256 0 0 0 .235.847 1.021 1.021 0 0 0 .795.259zm5.532-7.636v1.663h1.035v.908h-1.033V-1.7a1.157 1.157 0 0 0 .133.616.5.5 0 0 0 .457.209 1.419 1.419 0 0 0 .451-.076L64.151 0a2.453 2.453 0 0 1-.781.127 1.181 1.181 0 0 1-1.016-.476 2.244 2.244 0 0 1-.349-1.346V-5.96h-1.047v-.908h1.047v-1.663zM66.573 0h-1.124v-6.868h1.124zm.089-8.69a.719.719 0 0 1-.159.476.592.592 0 0 1-.482.19.584.584 0 0 1-.476-.19.719.719 0 0 1-.159-.476.744.744 0 0 1 .159-.482.575.575 0 0 1 .476-.2.58.58 0 0 1 .479.2.738.738 0 0 1 .162.482zm1.311 4.938a3.591 3.591 0 0 1 .727-2.37A2.375 2.375 0 0 1 70.619-7a2.4 2.4 0 0 1 1.92.851 3.524 3.524 0 0 1 .746 2.317v.732a3.578 3.578 0 0 1-.724 2.361 2.383 2.383 0 0 1-1.93.87 2.391 2.391 0 0 1-1.914-.844A3.5 3.5 0 0 1 67.972-3zM69.1-3.1a2.91 2.91 0 0 0 .416 1.666 1.294 1.294 0 0 0 1.12.606q1.485 0 1.53-2.146v-.774a2.912 2.912 0 0 0-.419-1.666 1.3 1.3 0 0 0-1.124-.613 1.279 1.279 0 0 0-1.108.613 2.916 2.916 0 0 0-.416 1.66zm6.567-3.764l.032.743A2 2 0 0 1 77.364-7q1.822 0 1.847 2.431V0h-1.117v-4.513a1.871 1.871 0 0 0-.27-1.146.971.971 0 0 0-.809-.341 1.14 1.14 0 0 0-.752.279 2.012 2.012 0 0 0-.536.73V0H74.6v-6.868z" data-name="패스 1308" transform="translate(42 141)" style="fill:#686868"/>
        <g id="prefix__pin" transform="translate(-178 -306)">
            <path id="prefix__사각형_1404" d="M0 0H16V16H0z" data-name="사각형 1404" transform="translate(200 435)" style="fill:none"/>
            <path id="prefix__패스_276" d="M6.23 8.962A2.638 2.638 0 0 0 8.872 6.32 2.719 2.719 0 0 0 6.23 3.583a2.638 2.638 0 0 0-2.643 2.642A2.785 2.785 0 0 0 6.23 8.962zM1.794 1.79a6.272 6.272 0 0 1 8.87 8.87L6.23 15.1l-4.436-4.44a6.443 6.443 0 0 1 0-8.87z" data-name="패스 276" transform="translate(201.079 435.05)" style="fill-rule:evenodd;fill:#686868"/>
        </g>
    </g>
</svg>
