<svg xmlns="http://www.w3.org/2000/svg" width="273.58" height="27.123" viewBox="0 0 273.58 27.123">
    <defs>
        <style>
            .prefix__cls-1{fill:none;stroke:#858585}.prefix__cls-2{fill:#133d25}
        </style>
    </defs>
    <g id="prefix__그룹_657" data-name="그룹 657" transform="translate(-42.096 -467.877)">
        <path id="prefix__패스_1292" d="M0 0h231.213" class="prefix__cls-1" data-name="패스 1292" transform="translate(42.096 494.5)"/>
        <path id="prefix__패스_1293" d="M0 0h31.918" class="prefix__cls-1" data-name="패스 1293" transform="translate(283.758 494.5)"/>
        <path id="prefix__패스_1294" d="M4.758-1.746h-2.35L1.951 0H.129l2.666-8.531h1.576L7.055 0h-1.84zM2.783-3.182h1.594l-.8-3.041zM10.9-4.74l-.551-.047a.9.9 0 0 0-.92.6V0H7.764v-6.34h1.564l.047.686a1.2 1.2 0 0 1 1.084-.8 1.161 1.161 0 0 1 .457.076zM14.2.117a2.6 2.6 0 0 1-1.992-.762 3.066 3.066 0 0 1-.715-2.18v-.5a3.6 3.6 0 0 1 .656-2.314 2.275 2.275 0 0 1 1.881-.814 2.152 2.152 0 0 1 1.8.765 3.653 3.653 0 0 1 .615 2.265v.814h-3.3a1.713 1.713 0 0 0 .311 1.028 1.052 1.052 0 0 0 .85.325 1.864 1.864 0 0 0 1.389-.568l.65 1a2.142 2.142 0 0 1-.885.683 3.037 3.037 0 0 1-1.26.258zm-1.046-3.89h1.658v-.152a1.772 1.772 0 0 0-.187-.861.652.652 0 0 0-.609-.293.689.689 0 0 0-.63.311 2.138 2.138 0 0 0-.232.995zM20.391 0a2.317 2.317 0 0 1-.141-.492 1.417 1.417 0 0 1-1.207.609 1.786 1.786 0 0 1-1.321-.527 1.853 1.853 0 0 1-.522-1.365 1.919 1.919 0 0 1 .636-1.541 2.78 2.78 0 0 1 1.831-.557h.5v-.51a.955.955 0 0 0-.146-.6.525.525 0 0 0-.428-.176q-.621 0-.621.727h-1.658a1.835 1.835 0 0 1 .659-1.45 2.454 2.454 0 0 1 1.667-.571 2.253 2.253 0 0 1 1.614.542 2.034 2.034 0 0 1 .571 1.55v2.982A3.121 3.121 0 0 0 22.061-.1V0zm-.979-1.184a.925.925 0 0 0 .469-.111.788.788 0 0 0 .287-.264v-1.318h-.4a.851.851 0 0 0-.665.27 1.035 1.035 0 0 0-.243.721q.001.702.552.702zM25.6-3.375a3.442 3.442 0 0 1 .68-2.262 2.31 2.31 0 0 1 1.881-.82 2.323 2.323 0 0 1 1.893.82 3.462 3.462 0 0 1 .68 2.273v.4A3.448 3.448 0 0 1 30.059-.7a2.313 2.313 0 0 1-1.887.814 2.325 2.325 0 0 1-1.9-.817 3.46 3.46 0 0 1-.672-2.268zm1.664.416q0 1.7.908 1.7.838 0 .9-1.418l.006-.7a2.668 2.668 0 0 0-.24-1.286.748.748 0 0 0-.68-.419.729.729 0 0 0-.659.419 2.7 2.7 0 0 0-.237 1.286zM32.145 0v-5.092h-.768V-6.34h.768v-.568A2.31 2.31 0 0 1 32.7-8.54a1.978 1.978 0 0 1 1.515-.583 3.152 3.152 0 0 1 .75.117l-.012 1.324a1.372 1.372 0 0 0-.4-.053q-.738 0-.738.879v.516h.99v1.248h-.99V0zM2.344 11H.68V4.66h1.664zM.6 3.02a.857.857 0 0 1 .25-.633.887.887 0 0 1 .656-.246.887.887 0 0 1 .656.246.857.857 0 0 1 .246.633.875.875 0 0 1-.243.633.873.873 0 0 1-.659.252.873.873 0 0 1-.659-.252A.875.875 0 0 1 .6 3.02zm4.545 1.64l.047.627a1.759 1.759 0 0 1 1.471-.744q1.635 0 1.682 2.291V11H6.68V6.957a1.457 1.457 0 0 0-.161-.782.627.627 0 0 0-.565-.243.774.774 0 0 0-.7.463V11H3.586V4.66zm6.316-1.56v1.56h.85v1.248h-.85v3.147a.927.927 0 0 0 .1.516.463.463 0 0 0 .4.141 1.549 1.549 0 0 0 .393-.041l-.012 1.289a2.583 2.583 0 0 1-.914.158q-1.605 0-1.623-1.84v-3.37H9.07V4.66h.73V3.1zm4.318 8.016a2.6 2.6 0 0 1-1.992-.762 3.066 3.066 0 0 1-.715-2.18v-.5a3.6 3.6 0 0 1 .656-2.314 2.275 2.275 0 0 1 1.881-.814 2.152 2.152 0 0 1 1.8.765 3.653 3.653 0 0 1 .615 2.265v.814h-3.3a1.713 1.713 0 0 0 .311 1.028 1.052 1.052 0 0 0 .85.325 1.864 1.864 0 0 0 1.389-.568l.65 1a2.142 2.142 0 0 1-.885.683 3.037 3.037 0 0 1-1.26.259zm-1.043-3.889h1.658v-.153a1.772 1.772 0 0 0-.187-.861.652.652 0 0 0-.607-.293.689.689 0 0 0-.63.311 2.138 2.138 0 0 0-.234.996zm7.354-.967l-.551-.047a.9.9 0 0 0-.92.6V11h-1.664V4.66h1.565l.047.686a1.2 1.2 0 0 1 1.084-.8 1.161 1.161 0 0 1 .457.076zm3.3 4.857a2.6 2.6 0 0 1-1.992-.762 3.066 3.066 0 0 1-.715-2.18v-.5a3.6 3.6 0 0 1 .656-2.314 2.275 2.275 0 0 1 1.881-.814 2.152 2.152 0 0 1 1.8.765 3.653 3.653 0 0 1 .615 2.265v.814h-3.3a1.713 1.713 0 0 0 .311 1.028 1.052 1.052 0 0 0 .85.325 1.864 1.864 0 0 0 1.389-.568l.65 1a2.142 2.142 0 0 1-.885.683 3.037 3.037 0 0 1-1.261.258zm-1.044-3.89H26v-.153a1.772 1.772 0 0 0-.187-.861.652.652 0 0 0-.609-.293.689.689 0 0 0-.63.311 2.138 2.138 0 0 0-.228.996zM31.377 9.3a.518.518 0 0 0-.2-.39 3.992 3.992 0 0 0-.9-.483 3.741 3.741 0 0 1-1.409-.861 1.636 1.636 0 0 1-.384-1.107 1.77 1.77 0 0 1 .6-1.374 2.284 2.284 0 0 1 1.591-.542 2.473 2.473 0 0 1 1.67.539 1.812 1.812 0 0 1 .627 1.447h-1.659q0-.773-.645-.773a.6.6 0 0 0-.434.164.606.606 0 0 0-.17.457.48.48 0 0 0 .188.372 4.123 4.123 0 0 0 .885.46 3.661 3.661 0 0 1 1.433.835 1.7 1.7 0 0 1 .419 1.192 1.667 1.667 0 0 1-.639 1.364 2.586 2.586 0 0 1-1.676.516 2.668 2.668 0 0 1-1.23-.272 2.066 2.066 0 0 1-.835-.759 1.953 1.953 0 0 1-.3-1.049h1.576a1 1 0 0 0 .2.65.792.792 0 0 0 .624.217q.668-.003.668-.603zm4.57-6.2v1.56h.85v1.248h-.85v3.147a.927.927 0 0 0 .1.516.463.463 0 0 0 .4.141 1.549 1.549 0 0 0 .393-.041l-.012 1.289a2.583 2.583 0 0 1-.914.158q-1.605 0-1.623-1.84v-3.37h-.732V4.66h.732V3.1zm8.127 7.9H42.41V4.484l-1.623.627V3.729L43.9 2.457h.176z" class="prefix__cls-2" data-name="패스 1294" transform="translate(70 477)"/>
        <g id="prefix__pin" transform="translate(-153 36)">
            <path id="prefix__사각형_1404" d="M0 0H16V16H0z" data-name="사각형 1404" transform="translate(200 435)" style="fill:none"/>
            <path id="prefix__패스_276" d="M6.23 8.962A2.638 2.638 0 0 0 8.872 6.32 2.719 2.719 0 0 0 6.23 3.583a2.638 2.638 0 0 0-2.643 2.642A2.785 2.785 0 0 0 6.23 8.962zM1.794 1.79a6.272 6.272 0 0 1 8.87 8.87L6.23 15.1l-4.436-4.44a6.443 6.443 0 0 1 0-8.87z" data-name="패스 276" transform="translate(201.079 435.05)" style="fill-rule:evenodd;fill:#133d25"/>
        </g>
        <path id="prefix__패스_1295" d="M5.7-2.645V-5.75a.669.669 0 0 0-.138-.494.76.76 0 0 0-.506-.127H3.2a2.064 2.064 0 0 1-2.369-2.3v-3.565q0-2.277 2.484-2.277h2.53q2.484 0 2.484 2.277v2.024H5.658v-1.656a.669.669 0 0 0-.138-.495.76.76 0 0 0-.506-.126H4.14a.806.806 0 0 0-.529.126.669.669 0 0 0-.138.495v2.921a.669.669 0 0 0 .138.494.806.806 0 0 0 .529.127h1.817q2.415 0 2.415 2.254v3.8Q8.372 0 5.865 0H3.381Q.874 0 .874-2.277v-2h2.645v1.633a.669.669 0 0 0 .138.494.806.806 0 0 0 .529.127h.874a.76.76 0 0 0 .506-.127.669.669 0 0 0 .134-.495zm9.062-8.648h2.622V0h-2.572v-1.127A1.466 1.466 0 0 1 13.179 0h-.713a2.044 2.044 0 0 1-2.346-2.277v-9.016h2.6v8.648a.669.669 0 0 0 .138.494.76.76 0 0 0 .506.127h.69q.713 0 .713-.759zm8.671 8.809v-1.587a.669.669 0 0 0-.138-.495.806.806 0 0 0-.529-.126h-1.238q-2.461 0-2.461-2.254v-2.07q0-2.277 2.507-2.277h1.817q2.484 0 2.484 2.277v1.058h-2.507v-.851a.669.669 0 0 0-.138-.491.76.76 0 0 0-.506-.127h-.46a.806.806 0 0 0-.529.127.669.669 0 0 0-.138.495v1.656a.669.669 0 0 0 .138.495.806.806 0 0 0 .529.126h1.242q2.484 0 2.484 2.254v2Q25.99 0 23.483 0H21.62q-2.507 0-2.507-2.277v-1.035h2.553v.828a.669.669 0 0 0 .138.495.76.76 0 0 0 .506.126h.46a.806.806 0 0 0 .529-.126.669.669 0 0 0 .138-.495zm6.624-8.809H32.5q2.484 0 2.484 2.277V-4.9h-4.9v2.323a.711.711 0 0 0 .127.494.755.755 0 0 0 .517.127h1.058a.76.76 0 0 0 .506-.127.669.669 0 0 0 .138-.494v-.851h2.53v1.15Q34.96 0 32.453 0h-2.392q-2.507 0-2.507-2.277v-6.739q0-2.277 2.507-2.277zm.023 4.715h2.392V-8.74a.669.669 0 0 0-.138-.495.76.76 0 0 0-.506-.127h-1.1a.76.76 0 0 0-.506.127.669.669 0 0 0-.138.495zm8.947-4.715h2.6q2.438 0 2.438 2.277v6.739Q44.068 0 41.63 0h-2.6q-2.46 0-2.46-2.277v-6.739q0-2.277 2.461-2.277zm2.484 8.717v-6.141a.669.669 0 0 0-.138-.495.806.806 0 0 0-.529-.126H39.79a.806.806 0 0 0-.529.126.669.669 0 0 0-.138.495v6.141a.669.669 0 0 0 .138.494.806.806 0 0 0 .529.127h1.058a.806.806 0 0 0 .529-.127.669.669 0 0 0 .138-.494zm8.625-8.717h.69q2.369 0 2.369 2.277V0h-2.618v-8.648a.669.669 0 0 0-.138-.495.76.76 0 0 0-.506-.127h-.69q-.713 0-.713.759V0h-2.6v-11.293h2.576v1.035a1.5 1.5 0 0 1 1.634-1.035zm9.5 0h2.576V.851q0 2.277-2.507 2.277h-4.344V1.15h3.588a.76.76 0 0 0 .506-.127.669.669 0 0 0 .138-.494v-1.794a1.492 1.492 0 0 1-1.587.965h-.713a2.044 2.044 0 0 1-2.346-2.277v-6.44a2.044 2.044 0 0 1 2.346-2.277h.713a1.463 1.463 0 0 1 1.633 1.1zm-1.446 8.97h.69a.732.732 0 0 0 .552-.172.894.894 0 0 0 .161-.61V-8.51q0-.759-.713-.759h-.69a.76.76 0 0 0-.506.127.669.669 0 0 0-.138.495v5.7a.669.669 0 0 0 .138.495.76.76 0 0 0 .506.129zm5.91-3.542v-1.909h5.59v1.909zm12.03-5.428h2.576V.851q0 2.277-2.507 2.277h-4.347V1.15h3.588a.76.76 0 0 0 .506-.127.668.668 0 0 0 .138-.494v-1.794A1.492 1.492 0 0 1 74.5-.3h-.713a2.044 2.044 0 0 1-2.346-2.277v-6.44a2.044 2.044 0 0 1 2.346-2.277h.713a1.463 1.463 0 0 1 1.633 1.1zm-1.449 8.97h.69a.732.732 0 0 0 .552-.172.894.894 0 0 0 .161-.61V-8.51q0-.759-.713-.759h-.69a.76.76 0 0 0-.506.127.668.668 0 0 0-.138.495v5.7a.668.668 0 0 0 .138.495.76.76 0 0 0 .506.129zm10.58-8.97h2.622V0h-2.576v-1.127A1.466 1.466 0 0 1 83.674 0h-.713a2.044 2.044 0 0 1-2.346-2.277v-9.016h2.6v8.648a.668.668 0 0 0 .138.494.76.76 0 0 0 .506.127h.69q.713 0 .713-.759zm4.37 8.188h2.806v1.656L90.5 3.266h-.874zm8.51-11.408h5.52q2.507 0 2.507 2.277v9.959q0 2.277-2.507 2.277h-5.52zm5.359 11.96v-9.407a.668.668 0 0 0-.138-.495.76.76 0 0 0-.506-.127h-2.07v10.65h2.07a.76.76 0 0 0 .506-.127.668.668 0 0 0 .138-.494zm9.2-8.74h2.576V0h-2.622v-.966a1.492 1.492 0 0 1-1.587.966h-.713a2.044 2.044 0 0 1-2.346-2.277v-6.739a2.044 2.044 0 0 1 2.346-2.277h.713a1.463 1.463 0 0 1 1.633 1.1zm-1.449 9.269h.69q.713 0 .713-.759V-8.51q0-.759-.713-.759h-.69a.76.76 0 0 0-.506.127.668.668 0 0 0-.138.495v6a.668.668 0 0 0 .138.494.76.76 0 0 0 .506.129zm8.372-9.269h2.438q2.484 0 2.484 2.277V-4.9h-4.9v2.323a.711.711 0 0 0 .127.494.755.755 0 0 0 .517.127h1.058a.76.76 0 0 0 .506-.127.668.668 0 0 0 .138-.494v-.851h2.53v1.15Q124.522 0 122.015 0h-2.392q-2.507 0-2.507-2.277v-6.739q0-2.277 2.507-2.277zm.023 4.715h2.392V-8.74a.668.668 0 0 0-.138-.495.76.76 0 0 0-.506-.127h-1.1a.76.76 0 0 0-.506.127.668.668 0 0 0-.138.495zm11.132-4.715h2.576V.851q0 2.277-2.507 2.277H126.5V1.15h3.588a.76.76 0 0 0 .506-.127.669.669 0 0 0 .138-.494v-1.794a1.492 1.492 0 0 1-1.587.966h-.713a2.044 2.044 0 0 1-2.346-2.277v-6.44a2.044 2.044 0 0 1 2.346-2.277h.713a1.463 1.463 0 0 1 1.633 1.1zm-1.449 8.97h.69a.732.732 0 0 0 .552-.172.894.894 0 0 0 .161-.61V-8.51q0-.759-.713-.759h-.69a.76.76 0 0 0-.506.127.669.669 0 0 0-.138.495v5.7a.669.669 0 0 0 .138.495.76.76 0 0 0 .506.129zm10.58-8.97h2.622V0h-2.576v-1.127A1.466 1.466 0 0 1 138.322 0h-.713a2.044 2.044 0 0 1-2.346-2.277v-9.016h2.6v8.648a.669.669 0 0 0 .138.494.76.76 0 0 0 .506.127h.69q.713 0 .713-.759z" class="prefix__cls-2" data-name="패스 1295" transform="translate(127 485)"/>
        <path id="prefix__패스_1296" d="M3.476-8.822h2.156q2.4 0 2.4 2.178v4.466Q8.03 0 5.632 0H3.278Q.88 0 .88-2.178v-2.376h2.552v2.024a.639.639 0 0 0 .132.473.727.727 0 0 0 .484.121h.836a.771.771 0 0 0 .506-.121.639.639 0 0 0 .132-.473v-3.762a.639.639 0 0 0-.132-.473.771.771 0 0 0-.506-.121H.968v-7h6.974v1.936H3.476zM9.526 0v-2.97h2.684V0zM16.1-11.352v1.87h-2.53V-11.7q0-2.178 2.4-2.178h2.222q2.4 0 2.4 2.178v2.97q0 1.364-.924 1.672a1.458 1.458 0 0 1 .924 1.584v3.3Q20.592 0 18.194 0h-2.222q-2.4 0-2.4-2.178v-2.2H16.1v1.848a.639.639 0 0 0 .132.473.727.727 0 0 0 .484.121h.748a.727.727 0 0 0 .484-.121.639.639 0 0 0 .132-.473V-5.5a.727.727 0 0 0-.121-.484.678.678 0 0 0-.5-.132h-1.685v-1.848h1.694a.727.727 0 0 0 .484-.121.639.639 0 0 0 .132-.473v-2.794a.639.639 0 0 0-.132-.473.727.727 0 0 0-.484-.121h-.748a.727.727 0 0 0-.484.121.639.639 0 0 0-.136.473z" class="prefix__cls-2" data-name="패스 1296" transform="translate(289 486)"/>
    </g>
</svg>
