<svg xmlns="http://www.w3.org/2000/svg" width="273.58" height="33" viewBox="0 0 273.58 33">
    <defs>
        <style>
            .prefix__cls-1,.prefix__cls-4{fill:#122277}.prefix__cls-1{fill-rule:evenodd}.prefix__cls-3{fill:none;stroke:#858585}.prefix__cls-4{font-size:23px;font-family:Teko-Medium,Teko;font-weight:500}
        </style>
    </defs>
    <g id="prefix__그룹_647" data-name="그룹 647" transform="translate(-42.096 -430)">
        <g id="prefix__그룹_621" data-name="그룹 621">
            <path id="prefix__패스_276" d="M8.974 12.948a3.8 3.8 0 0 0 3.811-3.811A3.921 3.921 0 0 0 8.974 5.19 3.8 3.8 0 0 0 5.163 9a4.017 4.017 0 0 0 3.811 3.948zM2.577 2.6a9.047 9.047 0 0 1 12.794 12.8l-6.4 6.4-6.4-6.4a9.294 9.294 0 0 1 .006-12.8z" class="prefix__cls-1" data-name="패스 276" transform="translate(45.975 434.05)"/>
            <text id="prefix__Current_location" data-name="Current location" transform="translate(71 444)" style="font-size:12px;font-family:RobotoCondensed-Bold,Roboto Condensed;font-weight:700;fill:#122277">
                <tspan x="0" y="0">Current</tspan><tspan x="0" y="11">location</tspan>
            </text>
            <path id="prefix__선_3" d="M0 0L231.213 0" class="prefix__cls-3" data-name="선 3" transform="translate(42.096 461.5)"/>
            <path id="prefix__선_3-2" d="M0 0L31.918 0" class="prefix__cls-3" data-name="선 3" transform="translate(283.758 461.5)"/>
            <text id="prefix__Jung-gu_Seoul" class="prefix__cls-4" data-name="Jung-gu, Seoul" transform="translate(127 452)">
                <tspan x="0" y="0">Jung-gu, Seoul</tspan>
            </text>
            <text id="prefix___1_4" data-name="1.4" transform="translate(290 453)" style="font-size:22px;font-family:Teko-Medium,Teko;font-weight:500;fill:#122277">
                <tspan x="0" y="0">1.4</tspan>
            </text>
        </g>
        <path id="prefix__패스_276-2" d="M8.974 12.948a3.8 3.8 0 0 0 3.811-3.811A3.921 3.921 0 0 0 8.974 5.19 3.8 3.8 0 0 0 5.163 9a4.017 4.017 0 0 0 3.811 3.948zM2.577 2.6a9.047 9.047 0 0 1 12.794 12.8l-6.4 6.4-6.4-6.4a9.294 9.294 0 0 1 .006-12.8z" class="prefix__cls-1" data-name="패스 276" transform="translate(45.975 434.05)"/>
        <path id="prefix__선_3-3" d="M0 0L231.213 0" class="prefix__cls-3" data-name="선 3" transform="translate(42.096 461.5)"/>
        <path id="prefix__선_3-4" d="M0 0L31.918 0" class="prefix__cls-3" data-name="선 3" transform="translate(283.758 461.5)"/>
        <text id="prefix__Jung-gu_Seoul-2" class="prefix__cls-4" data-name="Jung-gu, Seoul" transform="translate(127 452)">
            <tspan x="0" y="0">Jung-gu, Seoul</tspan>
        </text>
    </g>
</svg>
