<svg xmlns="http://www.w3.org/2000/svg" width="35" height="35" viewBox="0 0 35 35">
    <defs>
        <style>
            .cls-1{fill:#910004}.cls-2{clip-path:url(#clip-path)}.cls-3{clip-path:url(#clip-path-2)}.cls-4,.cls-5,.cls-6,.cls-8{fill:none}.cls-4,.cls-5,.cls-6{stroke:#910004}.cls-4{stroke-width:3px}.cls-5{stroke-width:1.5px}.cls-6{stroke-width:.7px}.cls-7{stroke:none}
        </style>
        <clipPath id="clip-path">
            <path id="패스_151" d="M0-13.747h13v-13H0z" class="cls-1" data-name="패스 151" transform="translate(0 26.747)"/>
        </clipPath>
        <clipPath id="clip-path-2">
            <path id="사각형_9" d="M0 0h21.7v16.888H0z" class="cls-1" data-name="사각형 9"/>
        </clipPath>
    </defs>
    <g id="그룹_410" data-name="그룹 410" transform="translate(-245 -290)">
        <g id="그룹_14" data-name="그룹 14" transform="translate(256 327.747)">
            <g id="그룹_13" class="cls-2" data-name="그룹 13" transform="translate(0 -26.747)">
                <g id="그룹_12" data-name="그룹 12" transform="translate(-4.35 -3.402)">
                    <g id="그룹_11" class="cls-3" data-name="그룹 11">
                        <g id="그룹_10" data-name="그룹 10" transform="translate(4.35 3.402)">
                            <path id="패스_150" d="M-6.949-13.747a6.5 6.5 0 0 0 6.5-6.5 6.5 6.5 0 0 0-6.5-6.5 6.5 6.5 0 0 0-6.5 6.5 6.5 6.5 0 0 0 6.5 6.5" class="cls-1" data-name="패스 150" transform="translate(13.449 26.747)"/>
                        </g>
                    </g>
                </g>
            </g>
        </g>
        <g id="타원_248" class="cls-4" data-name="타원 248" transform="translate(251 296)">
            <circle cx="11.5" cy="11.5" r="11.5" class="cls-7"/>
            <circle cx="11.5" cy="11.5" r="10" class="cls-8"/>
        </g>
        <g id="타원_249" class="cls-5" data-name="타원 249" transform="translate(248 293)">
            <circle cx="14.5" cy="14.5" r="14.5" class="cls-7"/>
            <circle cx="14.5" cy="14.5" r="13.75" class="cls-8"/>
        </g>
        <g id="타원_250" class="cls-6" data-name="타원 250" transform="translate(245 290)">
            <circle cx="17.5" cy="17.5" r="17.5" class="cls-7"/>
            <circle cx="17.5" cy="17.5" r="17.15" class="cls-8"/>
        </g>
    </g>
</svg>
