<svg xmlns="http://www.w3.org/2000/svg" width="289.384" height="450.085" viewBox="0 0 289.384 450.085">
    <defs>
        <style>
            .prefix__cls-1,.prefix__cls-6{fill:#2d2d2d}.prefix__cls-2{fill:none;stroke:#2d2d2d;stroke-width:6px}.prefix__cls-3{fill:#fc0}.prefix__cls-5,.prefix__cls-6{stroke:none}
        </style>
    </defs>
    <g id="prefix__그룹_653" data-name="그룹 653" transform="translate(-55 -115.915)">
        <path id="prefix__패스_1266" d="M1.079 0v-12.086H4.8a5.647 5.647 0 0 1 2.851.718 5.007 5.007 0 0 1 1.961 2.042 6.3 6.3 0 0 1 .706 3.009v.556a6.316 6.316 0 0 1-.693 3A4.964 4.964 0 0 1 7.67-.73 5.69 5.69 0 0 1 4.823 0zm2.49-10.069V-2h1.2a2.7 2.7 0 0 0 2.233-.955 4.314 4.314 0 0 0 .789-2.731v-.639a4.382 4.382 0 0 0-.764-2.793 2.7 2.7 0 0 0-2.233-.95zM16.1.166a4.409 4.409 0 0 1-3.217-1.212 4.308 4.308 0 0 1-1.241-3.229v-.232a5.426 5.426 0 0 1 .523-2.42 3.838 3.838 0 0 1 1.482-1.644 4.159 4.159 0 0 1 2.187-.577 3.727 3.727 0 0 1 2.9 1.162A4.722 4.722 0 0 1 19.8-4.69v.979h-5.722a2.229 2.229 0 0 0 .7 1.411 2.12 2.12 0 0 0 1.482.531 2.589 2.589 0 0 0 2.167-1l1.179 1.32a3.6 3.6 0 0 1-1.46 1.188A4.793 4.793 0 0 1 16.1.166zm-.27-7.371a1.5 1.5 0 0 0-1.158.481 2.487 2.487 0 0 0-.572 1.378h3.34v-.191a1.773 1.773 0 0 0-.432-1.233 1.55 1.55 0 0 0-1.178-.435zm8.2-3.984v2.208h1.536v1.76h-1.535v4.482a1.07 1.07 0 0 0 .191.714.959.959 0 0 0 .73.216 3.826 3.826 0 0 0 .706-.058V-.05a4.939 4.939 0 0 1-1.453.216 2.29 2.29 0 0 1-2.573-2.548v-4.84H20.32v-1.76h1.312v-2.208zM31.037.166a4.409 4.409 0 0 1-3.217-1.212 4.308 4.308 0 0 1-1.241-3.229v-.232a5.426 5.426 0 0 1 .523-2.42 3.838 3.838 0 0 1 1.482-1.644 4.159 4.159 0 0 1 2.187-.577 3.727 3.727 0 0 1 2.9 1.162 4.722 4.722 0 0 1 1.058 3.3v.979h-5.718a2.229 2.229 0 0 0 .7 1.411 2.12 2.12 0 0 0 1.482.531 2.589 2.589 0 0 0 2.167-1l1.179 1.32a3.6 3.6 0 0 1-1.46 1.184 4.793 4.793 0 0 1-2.042.427zm-.274-7.371a1.5 1.5 0 0 0-1.158.481 2.487 2.487 0 0 0-.569 1.378h3.337v-.191a1.773 1.773 0 0 0-.432-1.233 1.55 1.55 0 0 0-1.178-.435zm9.064 5.437a1.573 1.573 0 0 0 1.079-.365 1.28 1.28 0 0 0 .432-.971h2.25a3.077 3.077 0 0 1-.5 1.673 3.286 3.286 0 0 1-1.339 1.178 4.2 4.2 0 0 1-1.88.419 3.9 3.9 0 0 1-3.038-1.224 4.845 4.845 0 0 1-1.112-3.383V-4.6a4.79 4.79 0 0 1 1.1-3.312 3.854 3.854 0 0 1 3.03-1.237 3.778 3.778 0 0 1 2.7.959 3.4 3.4 0 0 1 1.033 2.552h-2.25a1.635 1.635 0 0 0-.432-1.133 1.443 1.443 0 0 0-1.1-.436 1.446 1.446 0 0 0-1.266.61 3.532 3.532 0 0 0-.427 1.98v.249a3.576 3.576 0 0 0 .423 1.992 1.464 1.464 0 0 0 1.297.608zm8-9.421v2.208h1.536v1.76h-1.534v4.482a1.07 1.07 0 0 0 .191.714.959.959 0 0 0 .73.216 3.826 3.826 0 0 0 .706-.058V-.05A4.939 4.939 0 0 1 48 .166a2.29 2.29 0 0 1-2.57-2.548v-4.84h-1.311v-1.76h1.311v-2.208zM53.233 0h-2.407v-8.981h2.407zm-2.548-11.306a1.181 1.181 0 0 1 .361-.888 1.356 1.356 0 0 1 .984-.349 1.36 1.36 0 0 1 .979.349 1.175 1.175 0 0 1 .365.888 1.178 1.178 0 0 1-.369.9 1.363 1.363 0 0 1-.975.349 1.363 1.363 0 0 1-.975-.349 1.178 1.178 0 0 1-.37-.9zm4.15 6.732a5.327 5.327 0 0 1 .515-2.382 3.767 3.767 0 0 1 1.482-1.619 4.323 4.323 0 0 1 2.245-.573 4.09 4.09 0 0 1 2.968 1.112 4.464 4.464 0 0 1 1.282 3.021l.017.614a4.694 4.694 0 0 1-1.154 3.316 4.011 4.011 0 0 1-3.1 1.249 4.031 4.031 0 0 1-3.1-1.245 4.777 4.777 0 0 1-1.158-3.387zm2.4.174a3.348 3.348 0 0 0 .481 1.955 1.589 1.589 0 0 0 1.378.677 1.593 1.593 0 0 0 1.361-.668 3.664 3.664 0 0 0 .49-2.137 3.315 3.315 0 0 0-.49-1.942 1.593 1.593 0 0 0-1.378-.689 1.567 1.567 0 0 0-1.361.685 3.725 3.725 0 0 0-.482 2.119zm9.795-4.582l.07 1.038a3.136 3.136 0 0 1 2.582-1.2 2.606 2.606 0 0 1 2.125.838 3.912 3.912 0 0 1 .717 2.506V0h-2.4v-5.744a1.556 1.556 0 0 0-.332-1.108 1.486 1.486 0 0 0-1.1-.344 1.65 1.65 0 0 0-1.519.863V0h-2.4v-8.981z" class="prefix__cls-1" data-name="패스 1266" transform="translate(96 323)"/>
        <path id="prefix__패스_1267" d="M7.346-3.171a1.278 1.278 0 0 0-.5-1.083 6.533 6.533 0 0 0-1.793-.8A12.71 12.71 0 0 1 3-5.877a3.35 3.35 0 0 1-2.059-3 2.919 2.919 0 0 1 .559-1.744 3.6 3.6 0 0 1 1.585-1.2 5.967 5.967 0 0 1 2.32-.432 5.432 5.432 0 0 1 2.308.469 3.674 3.674 0 0 1 1.573 1.324 3.464 3.464 0 0 1 .56 1.942H7.354a1.63 1.63 0 0 0-.523-1.291 2.15 2.15 0 0 0-1.469-.461 2.3 2.3 0 0 0-1.419.386 1.217 1.217 0 0 0-.506 1.017 1.166 1.166 0 0 0 .594.988 6.705 6.705 0 0 0 1.747.747 7.55 7.55 0 0 1 3.1 1.585 3.157 3.157 0 0 1 .971 2.357A2.909 2.909 0 0 1 8.658-.726a5.2 5.2 0 0 1-3.2.892 6.171 6.171 0 0 1-2.54-.51 4.019 4.019 0 0 1-1.747-1.4A3.582 3.582 0 0 1 .573-3.8h2.5q0 2 2.391 2a2.326 2.326 0 0 0 1.386-.361 1.175 1.175 0 0 0 .496-1.01zM13.9 0h-2.4v-8.981h2.4zm-2.545-11.306a1.181 1.181 0 0 1 .361-.888 1.356 1.356 0 0 1 .984-.349 1.36 1.36 0 0 1 .979.349 1.175 1.175 0 0 1 .365.888 1.178 1.178 0 0 1-.369.9 1.363 1.363 0 0 1-.975.349 1.363 1.363 0 0 1-.975-.349 1.178 1.178 0 0 1-.37-.9zm7.4.116v2.208h1.536v1.76h-1.54v4.482a1.07 1.07 0 0 0 .191.714.959.959 0 0 0 .73.216 3.826 3.826 0 0 0 .706-.058V-.05a4.939 4.939 0 0 1-1.453.216 2.29 2.29 0 0 1-2.573-2.548v-4.84h-1.311v-1.76h1.312v-2.208zM27-.913A3.008 3.008 0 0 1 24.545.166a2.837 2.837 0 0 1-2.2-.83 3.543 3.543 0 0 1-.78-2.436v-5.881h2.4v5.8q0 1.4 1.278 1.4a1.733 1.733 0 0 0 1.677-.847v-6.353h2.407V0h-2.258zM36.341 0a2.664 2.664 0 0 1-.241-.805 2.9 2.9 0 0 1-2.266.971A3.189 3.189 0 0 1 31.647-.6a2.456 2.456 0 0 1-.867-1.926 2.538 2.538 0 0 1 1.058-2.191 5.222 5.222 0 0 1 3.062-.77H36V-6a1.48 1.48 0 0 0-.32-1 1.257 1.257 0 0 0-1.009-.374 1.429 1.429 0 0 0-.95.291.987.987 0 0 0-.344.8h-2.4a2.41 2.41 0 0 1 .481-1.444 3.182 3.182 0 0 1 1.363-1.043 4.961 4.961 0 0 1 1.979-.377 3.92 3.92 0 0 1 2.635.834 2.918 2.918 0 0 1 .975 2.345v3.893a4.294 4.294 0 0 0 .357 1.934V0zm-1.984-1.668a2.066 2.066 0 0 0 .979-.237A1.554 1.554 0 0 0 36-2.54v-1.544h-.9q-1.8 0-1.917 1.245l-.008.141a.96.96 0 0 0 .315.739 1.225 1.225 0 0 0 .867.291zm8.766-9.521v2.208h1.536v1.76h-1.536v4.482a1.07 1.07 0 0 0 .191.714.959.959 0 0 0 .73.216 3.826 3.826 0 0 0 .706-.058V-.05a4.939 4.939 0 0 1-1.45.216 2.29 2.29 0 0 1-2.573-2.548v-4.84h-1.315v-1.76h1.312v-2.208zM48.526 0h-2.407v-8.981h2.407zm-2.548-11.306a1.181 1.181 0 0 1 .361-.888 1.356 1.356 0 0 1 .984-.349 1.36 1.36 0 0 1 .979.349 1.175 1.175 0 0 1 .365.888 1.178 1.178 0 0 1-.369.9 1.363 1.363 0 0 1-.975.349 1.363 1.363 0 0 1-.975-.349 1.178 1.178 0 0 1-.37-.9zm4.15 6.732a5.327 5.327 0 0 1 .515-2.382 3.767 3.767 0 0 1 1.482-1.619 4.323 4.323 0 0 1 2.245-.573 4.09 4.09 0 0 1 2.968 1.112 4.464 4.464 0 0 1 1.282 3.022l.017.614a4.694 4.694 0 0 1-1.154 3.316 4.011 4.011 0 0 1-3.1 1.249 4.031 4.031 0 0 1-3.1-1.245 4.777 4.777 0 0 1-1.158-3.387zm2.4.174a3.348 3.348 0 0 0 .481 1.955 1.589 1.589 0 0 0 1.378.677 1.593 1.593 0 0 0 1.361-.668 3.664 3.664 0 0 0 .49-2.137 3.315 3.315 0 0 0-.49-1.942 1.593 1.593 0 0 0-1.378-.689 1.567 1.567 0 0 0-1.361.685 3.725 3.725 0 0 0-.482 2.119zm9.795-4.582l.077 1.038a3.136 3.136 0 0 1 2.582-1.2 2.606 2.606 0 0 1 2.125.838 3.912 3.912 0 0 1 .71 2.506V0h-2.4v-5.744a1.556 1.556 0 0 0-.332-1.108 1.486 1.486 0 0 0-1.1-.344 1.65 1.65 0 0 0-1.519.863V0h-2.4v-8.981zM74.026 0v-12.086h4.234a5.559 5.559 0 0 1 3.337.843 2.881 2.881 0 0 1 1.137 2.469 2.731 2.731 0 0 1-.457 1.565 2.637 2.637 0 0 1-1.27.992 2.551 2.551 0 0 1 1.465.938 2.773 2.773 0 0 1 .535 1.727A3.19 3.19 0 0 1 81.9-.913 5.007 5.007 0 0 1 78.725 0zm2.49-5.263V-2h2.134a2.059 2.059 0 0 0 1.374-.419 1.437 1.437 0 0 0 .494-1.158A1.518 1.518 0 0 0 78.8-5.263zm0-1.76h1.843q1.884-.033 1.884-1.5a1.388 1.388 0 0 0-.477-1.183 2.51 2.51 0 0 0-1.507-.361h-1.742zm7.828 2.449a5.326 5.326 0 0 1 .515-2.382 3.768 3.768 0 0 1 1.482-1.619 4.323 4.323 0 0 1 2.245-.573 4.09 4.09 0 0 1 2.968 1.112 4.464 4.464 0 0 1 1.282 3.021l.017.614A4.694 4.694 0 0 1 91.7-1.083 4.011 4.011 0 0 1 88.6.166a4.031 4.031 0 0 1-3.1-1.245 4.777 4.777 0 0 1-1.158-3.387zm2.4.174a3.348 3.348 0 0 0 .481 1.955 1.589 1.589 0 0 0 1.378.677 1.593 1.593 0 0 0 1.361-.668 3.664 3.664 0 0 0 .49-2.137 3.315 3.315 0 0 0-.49-1.942 1.593 1.593 0 0 0-1.378-.689 1.567 1.567 0 0 0-1.361.685 3.725 3.725 0 0 0-.482 2.119zM99.535 0a2.664 2.664 0 0 1-.241-.805 2.9 2.9 0 0 1-2.266.971A3.189 3.189 0 0 1 94.841-.6a2.456 2.456 0 0 1-.867-1.926 2.538 2.538 0 0 1 1.058-2.191 5.222 5.222 0 0 1 3.059-.772h1.1V-6a1.48 1.48 0 0 0-.32-1 1.257 1.257 0 0 0-1.009-.374 1.429 1.429 0 0 0-.95.291.987.987 0 0 0-.344.8h-2.4a2.41 2.41 0 0 1 .481-1.444 3.182 3.182 0 0 1 1.366-1.043 4.961 4.961 0 0 1 1.976-.378 3.92 3.92 0 0 1 2.635.834 2.918 2.918 0 0 1 .975 2.345v3.893a4.294 4.294 0 0 0 .357 1.934V0zm-1.984-1.668a2.066 2.066 0 0 0 .979-.237 1.554 1.554 0 0 0 .664-.635v-1.544h-.9q-1.8 0-1.917 1.245l-.008.141a.96.96 0 0 0 .315.739 1.225 1.225 0 0 0 .867.291zm10.94-5.063a6.517 6.517 0 0 0-.863-.066 1.757 1.757 0 0 0-1.785.921V0h-2.4v-8.981h2.266l.066 1.071a2.223 2.223 0 0 1 2-1.237 2.514 2.514 0 0 1 .747.108zm.78 2.175a5.413 5.413 0 0 1 .942-3.345 3.057 3.057 0 0 1 2.577-1.245 2.751 2.751 0 0 1 2.167.979v-4.583h2.407V0H115.2l-.116-.955a2.823 2.823 0 0 1-2.31 1.121 3.049 3.049 0 0 1-2.544-1.249 5.587 5.587 0 0 1-.959-3.474zm2.4.174a3.536 3.536 0 0 0 .44 1.934 1.434 1.434 0 0 0 1.278.672 1.605 1.605 0 0 0 1.569-.938v-3.545a1.582 1.582 0 0 0-1.552-.938q-1.736-.003-1.736 2.814zm11.9-.531a12.739 12.739 0 0 1 .506-3.619 9.551 9.551 0 0 1 1.494-3.042 5.579 5.579 0 0 1 2.142-1.839l.465 1.295a5.778 5.778 0 0 0-1.893 2.772 12.837 12.837 0 0 0-.681 4.383v.257a13.082 13.082 0 0 0 .672 4.4 5.89 5.89 0 0 0 1.9 2.814l-.465 1.27a5.581 5.581 0 0 1-2.1-1.789 9.391 9.391 0 0 1-1.49-2.959 12.663 12.663 0 0 1-.548-3.5zM129.583 0v-12.086h4.233a5.559 5.559 0 0 1 3.337.843 2.881 2.881 0 0 1 1.137 2.469 2.731 2.731 0 0 1-.457 1.565 2.637 2.637 0 0 1-1.27.992 2.551 2.551 0 0 1 1.465.938 2.773 2.773 0 0 1 .535 1.727 3.19 3.19 0 0 1-1.112 2.64 5.007 5.007 0 0 1-3.169.912zm2.49-5.263V-2h2.133a2.059 2.059 0 0 0 1.374-.419 1.437 1.437 0 0 0 .494-1.158 1.518 1.518 0 0 0-1.718-1.685zm0-1.76h1.843q1.884-.033 1.884-1.5a1.388 1.388 0 0 0-.477-1.183 2.51 2.51 0 0 0-1.507-.361h-1.743zm13.248.291a6.517 6.517 0 0 0-.863-.066 1.757 1.757 0 0 0-1.785.921V0h-2.4v-8.981h2.266l.066 1.071a2.223 2.223 0 0 1 2-1.237 2.514 2.514 0 0 1 .747.108zm5.288 6.9a4.409 4.409 0 0 1-3.217-1.212 4.308 4.308 0 0 1-1.241-3.229v-.232a5.426 5.426 0 0 1 .523-2.42 3.838 3.838 0 0 1 1.482-1.644 4.159 4.159 0 0 1 2.187-.577 3.727 3.727 0 0 1 2.9 1.162 4.722 4.722 0 0 1 1.058 3.3v.979h-5.719a2.228 2.228 0 0 0 .7 1.411 2.12 2.12 0 0 0 1.482.531 2.589 2.589 0 0 0 2.167-1l1.179 1.32a3.6 3.6 0 0 1-1.461 1.191 4.793 4.793 0 0 1-2.04.418zm-.274-7.371a1.5 1.5 0 0 0-1.158.481 2.487 2.487 0 0 0-.569 1.378h3.337v-.191a1.773 1.773 0 0 0-.432-1.233 1.55 1.55 0 0 0-1.178-.437zM160.869 0a2.664 2.664 0 0 1-.241-.805 2.9 2.9 0 0 1-2.266.971 3.189 3.189 0 0 1-2.187-.766 2.456 2.456 0 0 1-.867-1.926 2.538 2.538 0 0 1 1.058-2.191 5.222 5.222 0 0 1 3.059-.772h1.1V-6a1.48 1.48 0 0 0-.32-1 1.257 1.257 0 0 0-1.009-.374 1.429 1.429 0 0 0-.95.291.987.987 0 0 0-.344.8h-2.4a2.41 2.41 0 0 1 .481-1.444 3.182 3.182 0 0 1 1.367-1.043 4.961 4.961 0 0 1 1.976-.378 3.92 3.92 0 0 1 2.635.834 2.918 2.918 0 0 1 .975 2.345v3.893a4.294 4.294 0 0 0 .357 1.934V0zm-1.984-1.668a2.066 2.066 0 0 0 .979-.237 1.554 1.554 0 0 0 .664-.635v-1.544h-.9q-1.8 0-1.917 1.245l-.008.141a.96.96 0 0 0 .315.739 1.225 1.225 0 0 0 .867.291zm9.156-1.932l-.863.863V0h-2.4v-12.75h2.4v7.064l.465-.6 2.3-2.7h2.88l-3.246 3.744L173.1 0h-2.756zm8.351 3.6h-2.407v-8.981h2.407zm-2.548-11.306a1.181 1.181 0 0 1 .361-.888 1.356 1.356 0 0 1 .984-.349 1.36 1.36 0 0 1 .979.349 1.175 1.175 0 0 1 .365.888 1.178 1.178 0 0 1-.369.9 1.363 1.363 0 0 1-.975.349 1.363 1.363 0 0 1-.975-.349 1.178 1.178 0 0 1-.371-.9zm6.732 2.324l.075 1.038a3.136 3.136 0 0 1 2.582-1.2 2.606 2.606 0 0 1 2.125.838 3.912 3.912 0 0 1 .712 2.506V0h-2.4v-5.744a1.556 1.556 0 0 0-.332-1.108 1.486 1.486 0 0 0-1.1-.344 1.65 1.65 0 0 0-1.519.863V0h-2.4v-8.981zm6.964 4.424a5.264 5.264 0 0 1 .984-3.329 3.187 3.187 0 0 1 2.652-1.262 2.8 2.8 0 0 1 2.3 1.013l.1-.847h2.175V-.3a3.839 3.839 0 0 1-.535 2.05 3.439 3.439 0 0 1-1.507 1.328 5.3 5.3 0 0 1-2.274.457 4.925 4.925 0 0 1-1.926-.394 3.418 3.418 0 0 1-1.419-1.017l1.06-1.46a2.81 2.81 0 0 0 2.175 1 2.057 2.057 0 0 0 1.486-.51 1.915 1.915 0 0 0 .531-1.448v-.478a2.775 2.775 0 0 1-2.183.938A3.179 3.179 0 0 1 188.54-1.1a5.262 5.262 0 0 1-1-3.358zm2.4.174a3.269 3.269 0 0 0 .49 1.913 1.559 1.559 0 0 0 1.345.693 1.666 1.666 0 0 0 1.569-.822v-3.775a1.663 1.663 0 0 0-1.554-.825 1.569 1.569 0 0 0-1.357.706 3.684 3.684 0 0 0-.495 2.111zM211.811 0h-2.49l-4.848-7.952V0h-2.49v-12.086h2.49l4.856 7.969v-7.969h2.482zm6.151.166a4.409 4.409 0 0 1-3.217-1.212 4.308 4.308 0 0 1-1.245-3.229v-.232a5.426 5.426 0 0 1 .523-2.42 3.838 3.838 0 0 1 1.482-1.644 4.159 4.159 0 0 1 2.187-.577 3.727 3.727 0 0 1 2.9 1.162 4.722 4.722 0 0 1 1.058 3.3v.979h-5.719a2.228 2.228 0 0 0 .7 1.411 2.12 2.12 0 0 0 1.482.531 2.589 2.589 0 0 0 2.167-1l1.179 1.32A3.6 3.6 0 0 1 220-.261a4.793 4.793 0 0 1-2.038.427zm-.274-7.371a1.5 1.5 0 0 0-1.158.481 2.487 2.487 0 0 0-.569 1.378h3.339v-.191a1.773 1.773 0 0 0-.432-1.233 1.55 1.55 0 0 0-1.18-.435zm13.14 3.943l1.179-5.719h2.316L232.032 0h-2.009l-1.7-5.653L226.62 0h-2l-2.291-8.981h2.316l1.17 5.711 1.644-5.711h1.735zm9.546.78a.773.773 0 0 0-.436-.693 4.95 4.95 0 0 0-1.4-.452q-3.2-.672-3.2-2.723a2.468 2.468 0 0 1 .992-2 4 4 0 0 1 2.594-.8 4.307 4.307 0 0 1 2.735.805 2.538 2.538 0 0 1 1.025 2.092h-2.4a1.161 1.161 0 0 0-.332-.851 1.405 1.405 0 0 0-1.038-.336 1.436 1.436 0 0 0-.938.274.865.865 0 0 0-.332.7.739.739 0 0 0 .378.643 3.885 3.885 0 0 0 1.274.423 10.407 10.407 0 0 1 1.511.4 2.482 2.482 0 0 1 1.9 2.416 2.343 2.343 0 0 1-1.054 1.988 4.548 4.548 0 0 1-2.723.76 4.75 4.75 0 0 1-2-.4 3.363 3.363 0 0 1-1.374-1.1 2.565 2.565 0 0 1-.5-1.515h2.274a1.252 1.252 0 0 0 .473.979 1.877 1.877 0 0 0 1.179.34 1.737 1.737 0 0 0 1.042-.261.814.814 0 0 0 .35-.689zm8.01-2.241a12.088 12.088 0 0 1-.54 3.611 9.8 9.8 0 0 1-1.552 3.063 5.592 5.592 0 0 1-2.167 1.826l-.465-1.27a5.837 5.837 0 0 0 1.859-2.739 12.685 12.685 0 0 0 .706-4.258v-.44a12.972 12.972 0 0 0-.677-4.375 6.084 6.084 0 0 0-1.888-2.839l.465-1.27a5.594 5.594 0 0 1 2.129 1.776 9.675 9.675 0 0 1 1.552 3 12 12 0 0 1 .577 3.544z" class="prefix__cls-1" data-name="패스 1267" transform="translate(96 555)"/>
        <path id="prefix__패스_1268" d="M8.351-5.238H3.569V-2h5.612v2h-8.1v-12.086h8.083v2.017H3.569v2.88h4.782zM15.688 0a2.664 2.664 0 0 1-.241-.805 2.9 2.9 0 0 1-2.266.971A3.189 3.189 0 0 1 10.994-.6a2.456 2.456 0 0 1-.867-1.926 2.538 2.538 0 0 1 1.058-2.191 5.222 5.222 0 0 1 3.059-.772h1.1V-6a1.48 1.48 0 0 0-.32-1 1.257 1.257 0 0 0-1.009-.374 1.429 1.429 0 0 0-.95.291.987.987 0 0 0-.344.8h-2.4a2.41 2.41 0 0 1 .481-1.444 3.182 3.182 0 0 1 1.367-1.043 4.961 4.961 0 0 1 1.976-.378 3.92 3.92 0 0 1 2.635.834 2.918 2.918 0 0 1 .975 2.345v3.893a4.294 4.294 0 0 0 .357 1.934V0zM13.7-1.668a2.066 2.066 0 0 0 .979-.237 1.554 1.554 0 0 0 .664-.635v-1.544h-.9q-1.8 0-1.917 1.245l-.008.141a.96.96 0 0 0 .315.739 1.225 1.225 0 0 0 .867.291zm10.94-5.063a6.517 6.517 0 0 0-.863-.066 1.757 1.757 0 0 0-1.777.92V0h-2.4v-8.981h2.266l.066 1.071a2.223 2.223 0 0 1 2-1.237 2.514 2.514 0 0 1 .747.108zm4.441-4.458v2.208h1.536v1.76h-1.531v4.482a1.07 1.07 0 0 0 .191.714.959.959 0 0 0 .73.216 3.826 3.826 0 0 0 .706-.058V-.05a4.939 4.939 0 0 1-1.453.216 2.29 2.29 0 0 1-2.573-2.548v-4.84h-1.312v-1.76h1.312v-2.208zM34.3-8a2.994 2.994 0 0 1 2.4-1.146q2.922 0 2.963 3.4V0h-2.4v-5.686a1.669 1.669 0 0 0-.332-1.141 1.423 1.423 0 0 0-1.1-.369 1.633 1.633 0 0 0-1.527.813V0H31.9v-12.75h2.4zm6.8 3.428a5.369 5.369 0 0 1 .942-3.345 3.08 3.08 0 0 1 2.586-1.229 2.758 2.758 0 0 1 2.3 1.1l.158-.938h2.104V3.453h-2.407V-.772a2.765 2.765 0 0 1-2.175.938 3.057 3.057 0 0 1-2.557-1.245 5.632 5.632 0 0 1-.951-3.495zm2.4.174a3.512 3.512 0 0 0 .452 1.959 1.449 1.449 0 0 0 1.274.672 1.614 1.614 0 0 0 1.561-.88v-3.71a1.6 1.6 0 0 0-1.544-.847 1.466 1.466 0 0 0-1.287.672A3.879 3.879 0 0 0 43.5-4.4zM56.454-.913A3.008 3.008 0 0 1 54 .166a2.837 2.837 0 0 1-2.2-.83 3.543 3.543 0 0 1-.783-2.436v-5.881h2.4v5.8q0 1.4 1.278 1.4a1.733 1.733 0 0 0 1.677-.847v-6.353h2.407V0H56.52zM65.792 0a2.664 2.664 0 0 1-.241-.805 2.9 2.9 0 0 1-2.266.971A3.189 3.189 0 0 1 61.1-.6a2.456 2.456 0 0 1-.867-1.926 2.538 2.538 0 0 1 1.058-2.191 5.222 5.222 0 0 1 3.059-.772h1.1V-6a1.48 1.48 0 0 0-.32-1 1.257 1.257 0 0 0-1.009-.374 1.429 1.429 0 0 0-.95.291.987.987 0 0 0-.344.8h-2.4a2.41 2.41 0 0 1 .481-1.444 3.182 3.182 0 0 1 1.364-1.043 4.961 4.961 0 0 1 1.976-.378 3.92 3.92 0 0 1 2.635.834 2.918 2.918 0 0 1 .975 2.345v3.893a4.294 4.294 0 0 0 .357 1.934V0zm-1.984-1.668a2.066 2.066 0 0 0 .979-.237 1.554 1.554 0 0 0 .664-.635v-1.544h-.9q-1.8 0-1.917 1.245l-.008.141a.96.96 0 0 0 .315.739 1.225 1.225 0 0 0 .867.291zM72.964-3.6l-.863.863V0H69.7v-12.75h2.4v7.064l.465-.6 2.3-2.7h2.88L74.5-5.238 78.027 0h-2.756zM82.917.166A4.409 4.409 0 0 1 79.7-1.046a4.308 4.308 0 0 1-1.241-3.229v-.232a5.426 5.426 0 0 1 .523-2.42 3.838 3.838 0 0 1 1.482-1.644 4.159 4.159 0 0 1 2.187-.577 3.727 3.727 0 0 1 2.9 1.162 4.722 4.722 0 0 1 1.058 3.3v.979h-5.718a2.229 2.229 0 0 0 .7 1.411 2.12 2.12 0 0 0 1.482.531 2.589 2.589 0 0 0 2.167-1l1.179 1.32a3.6 3.6 0 0 1-1.461 1.184 4.793 4.793 0 0 1-2.041.427zm-.274-7.371a1.5 1.5 0 0 0-1.158.481 2.487 2.487 0 0 0-.569 1.378h3.337v-.191a1.773 1.773 0 0 0-.432-1.233 1.55 1.55 0 0 0-1.178-.435zM97.41 0a2.664 2.664 0 0 1-.241-.805A2.9 2.9 0 0 1 94.9.166 3.189 3.189 0 0 1 92.716-.6a2.456 2.456 0 0 1-.867-1.926 2.538 2.538 0 0 1 1.058-2.191 5.222 5.222 0 0 1 3.059-.772h1.1V-6a1.48 1.48 0 0 0-.32-1 1.257 1.257 0 0 0-1.009-.374 1.429 1.429 0 0 0-.95.291.987.987 0 0 0-.344.8h-2.4a2.41 2.41 0 0 1 .481-1.444A3.182 3.182 0 0 1 93.89-8.77a4.961 4.961 0 0 1 1.976-.378 3.92 3.92 0 0 1 2.635.834 2.918 2.918 0 0 1 .975 2.345v3.893a4.294 4.294 0 0 0 .357 1.934V0zm-1.984-1.668a2.066 2.066 0 0 0 .979-.237 1.554 1.554 0 0 0 .664-.635v-1.544h-.9q-1.8 0-1.917 1.245l-.008.141a.96.96 0 0 0 .315.739 1.225 1.225 0 0 0 .867.291zm13.974-2.74a5.387 5.387 0 0 1-.942 3.324 3.021 3.021 0 0 1-2.54 1.25 2.8 2.8 0 0 1-2.2-.946v4.233h-2.4V-8.981h2.225l.083.88a2.819 2.819 0 0 1 2.274-1.046 3.041 3.041 0 0 1 2.582 1.229 5.532 5.532 0 0 1 .921 3.387zm-2.4-.174a3.535 3.535 0 0 0-.444-1.934 1.446 1.446 0 0 0-1.291-.681 1.571 1.571 0 0 0-1.552.863v3.677a1.6 1.6 0 0 0 1.569.888q1.723.001 1.723-2.813zm11.97.174a5.387 5.387 0 0 1-.942 3.324 3.021 3.021 0 0 1-2.539 1.25 2.8 2.8 0 0 1-2.2-.946v4.233h-2.4V-8.981h2.225l.083.88a2.819 2.819 0 0 1 2.274-1.046 3.041 3.041 0 0 1 2.582 1.229 5.532 5.532 0 0 1 .921 3.387zm-2.4-.174a3.535 3.535 0 0 0-.444-1.934 1.446 1.446 0 0 0-1.291-.681 1.571 1.571 0 0 0-1.552.863v3.677a1.6 1.6 0 0 0 1.569.888q1.724.001 1.724-2.813zm8.932-2.15a6.517 6.517 0 0 0-.863-.066 1.757 1.757 0 0 0-1.785.921V0h-2.4v-8.981h2.266l.066 1.071a2.223 2.223 0 0 1 2-1.237 2.514 2.514 0 0 1 .747.108zm.481 2.158a5.326 5.326 0 0 1 .515-2.382 3.768 3.768 0 0 1 1.482-1.619 4.323 4.323 0 0 1 2.245-.573 4.09 4.09 0 0 1 2.975 1.113 4.464 4.464 0 0 1 1.282 3.021l.017.614a4.694 4.694 0 0 1-1.154 3.316 4.011 4.011 0 0 1-3.1 1.249 4.031 4.031 0 0 1-3.1-1.245 4.777 4.777 0 0 1-1.158-3.387zm2.4.174a3.348 3.348 0 0 0 .481 1.955 1.589 1.589 0 0 0 1.378.677 1.593 1.593 0 0 0 1.361-.668 3.664 3.664 0 0 0 .49-2.137 3.315 3.315 0 0 0-.49-1.942 1.593 1.593 0 0 0-1.378-.689 1.567 1.567 0 0 0-1.361.685 3.725 3.725 0 0 0-.476 2.119zM141.18 0a2.664 2.664 0 0 1-.241-.805 2.9 2.9 0 0 1-2.266.971 3.189 3.189 0 0 1-2.187-.766 2.456 2.456 0 0 1-.867-1.926 2.538 2.538 0 0 1 1.058-2.191 5.222 5.222 0 0 1 3.059-.772h1.1V-6a1.48 1.48 0 0 0-.32-1 1.257 1.257 0 0 0-1.009-.374 1.429 1.429 0 0 0-.95.291.987.987 0 0 0-.344.8h-2.4a2.41 2.41 0 0 1 .481-1.444 3.182 3.182 0 0 1 1.366-1.043 4.961 4.961 0 0 1 1.976-.378 3.92 3.92 0 0 1 2.635.834 2.918 2.918 0 0 1 .975 2.345v3.893a4.294 4.294 0 0 0 .354 1.935V0zm-1.98-1.668a2.066 2.066 0 0 0 .979-.237 1.554 1.554 0 0 0 .664-.635v-1.544h-.9q-1.8 0-1.917 1.245l-.008.141a.96.96 0 0 0 .315.739 1.225 1.225 0 0 0 .867.291zm9.629-.1a1.573 1.573 0 0 0 1.079-.365 1.28 1.28 0 0 0 .432-.971h2.25a3.077 3.077 0 0 1-.5 1.673 3.286 3.286 0 0 1-1.341 1.179 4.2 4.2 0 0 1-1.88.419 3.9 3.9 0 0 1-3.038-1.224 4.845 4.845 0 0 1-1.112-3.383v-.16a4.79 4.79 0 0 1 1.1-3.312 3.854 3.854 0 0 1 3.03-1.237 3.778 3.778 0 0 1 2.7.959 3.4 3.4 0 0 1 1.033 2.552h-2.25a1.635 1.635 0 0 0-.432-1.133 1.443 1.443 0 0 0-1.1-.436 1.446 1.446 0 0 0-1.266.61 3.532 3.532 0 0 0-.427 1.98v.249a3.576 3.576 0 0 0 .423 1.992 1.464 1.464 0 0 0 1.295.608zM156.3-8a2.994 2.994 0 0 1 2.4-1.146q2.922 0 2.963 3.4V0h-2.4v-5.686a1.669 1.669 0 0 0-.332-1.141 1.423 1.423 0 0 0-1.1-.369 1.633 1.633 0 0 0-1.527.813V0h-2.4v-12.75h2.4zm9.7 8h-2.407v-8.981H166zm-2.548-11.306a1.181 1.181 0 0 1 .361-.888 1.356 1.356 0 0 1 .984-.349 1.36 1.36 0 0 1 .979.349 1.175 1.175 0 0 1 .365.888 1.178 1.178 0 0 1-.369.9 1.363 1.363 0 0 1-.975.349 1.363 1.363 0 0 1-.975-.349 1.178 1.178 0 0 1-.371-.9zm6.732 2.324l.075 1.038a3.136 3.136 0 0 1 2.582-1.2 2.606 2.606 0 0 1 2.125.838 3.912 3.912 0 0 1 .714 2.507V0h-2.4v-5.744a1.556 1.556 0 0 0-.332-1.108 1.486 1.486 0 0 0-1.1-.344 1.65 1.65 0 0 0-1.519.863V0h-2.4v-8.981zm6.964 4.424a5.264 5.264 0 0 1 .984-3.329 3.187 3.187 0 0 1 2.652-1.262 2.8 2.8 0 0 1 2.3 1.013l.1-.847h2.175V-.3a3.839 3.839 0 0 1-.535 2.05 3.439 3.439 0 0 1-1.507 1.328 5.3 5.3 0 0 1-2.274.457 4.925 4.925 0 0 1-1.926-.394 3.418 3.418 0 0 1-1.419-1.017l1.059-1.46a2.81 2.81 0 0 0 2.175 1 2.057 2.057 0 0 0 1.486-.51 1.915 1.915 0 0 0 .531-1.448v-.478a2.775 2.775 0 0 1-2.183.938 3.179 3.179 0 0 1-2.619-1.266 5.262 5.262 0 0 1-1-3.358zm2.4.174a3.269 3.269 0 0 0 .49 1.913 1.559 1.559 0 0 0 1.345.693 1.666 1.666 0 0 0 1.569-.822v-3.775A1.663 1.663 0 0 0 181.4-7.2a1.569 1.569 0 0 0-1.357.706 3.684 3.684 0 0 0-.497 2.111z" class="prefix__cls-1" data-name="패스 1268" transform="translate(96 381)"/>
        <path id="prefix__패스_1269" d="M8.351-5.238H3.569V-2h5.612v2h-8.1v-12.086h8.083v2.017H3.569v2.88h4.782zM15.688 0a2.664 2.664 0 0 1-.241-.805 2.9 2.9 0 0 1-2.266.971A3.189 3.189 0 0 1 10.994-.6a2.456 2.456 0 0 1-.867-1.926 2.538 2.538 0 0 1 1.058-2.191 5.222 5.222 0 0 1 3.059-.772h1.1V-6a1.48 1.48 0 0 0-.32-1 1.257 1.257 0 0 0-1.009-.374 1.429 1.429 0 0 0-.95.291.987.987 0 0 0-.344.8h-2.4a2.41 2.41 0 0 1 .481-1.444 3.182 3.182 0 0 1 1.367-1.043 4.961 4.961 0 0 1 1.976-.378 3.92 3.92 0 0 1 2.635.834 2.918 2.918 0 0 1 .975 2.345v3.893a4.294 4.294 0 0 0 .357 1.934V0zM13.7-1.668a2.066 2.066 0 0 0 .979-.237 1.554 1.554 0 0 0 .664-.635v-1.544h-.9q-1.8 0-1.917 1.245l-.008.141a.96.96 0 0 0 .315.739 1.225 1.225 0 0 0 .867.291zm10.94-5.063a6.517 6.517 0 0 0-.863-.066 1.757 1.757 0 0 0-1.777.92V0h-2.4v-8.981h2.266l.066 1.071a2.223 2.223 0 0 1 2-1.237 2.514 2.514 0 0 1 .747.108zm4.441-4.458v2.208h1.536v1.76h-1.531v4.482a1.07 1.07 0 0 0 .191.714.959.959 0 0 0 .73.216 3.826 3.826 0 0 0 .706-.058V-.05a4.939 4.939 0 0 1-1.453.216 2.29 2.29 0 0 1-2.573-2.548v-4.84h-1.312v-1.76h1.312v-2.208zM34.3-8a2.994 2.994 0 0 1 2.4-1.146q2.922 0 2.963 3.4V0h-2.4v-5.686a1.669 1.669 0 0 0-.332-1.141 1.423 1.423 0 0 0-1.1-.369 1.633 1.633 0 0 0-1.527.813V0H31.9v-12.75h2.4zm6.8 3.428a5.369 5.369 0 0 1 .942-3.345 3.08 3.08 0 0 1 2.586-1.229 2.758 2.758 0 0 1 2.3 1.1l.158-.938h2.104V3.453h-2.407V-.772a2.765 2.765 0 0 1-2.175.938 3.057 3.057 0 0 1-2.557-1.245 5.632 5.632 0 0 1-.951-3.495zm2.4.174a3.512 3.512 0 0 0 .452 1.959 1.449 1.449 0 0 0 1.274.672 1.614 1.614 0 0 0 1.561-.88v-3.71a1.6 1.6 0 0 0-1.544-.847 1.466 1.466 0 0 0-1.287.672A3.879 3.879 0 0 0 43.5-4.4zM56.454-.913A3.008 3.008 0 0 1 54 .166a2.837 2.837 0 0 1-2.2-.83 3.543 3.543 0 0 1-.783-2.436v-5.881h2.4v5.8q0 1.4 1.278 1.4a1.733 1.733 0 0 0 1.677-.847v-6.353h2.407V0H56.52zM65.792 0a2.664 2.664 0 0 1-.241-.805 2.9 2.9 0 0 1-2.266.971A3.189 3.189 0 0 1 61.1-.6a2.456 2.456 0 0 1-.867-1.926 2.538 2.538 0 0 1 1.058-2.191 5.222 5.222 0 0 1 3.059-.772h1.1V-6a1.48 1.48 0 0 0-.32-1 1.257 1.257 0 0 0-1.009-.374 1.429 1.429 0 0 0-.95.291.987.987 0 0 0-.344.8h-2.4a2.41 2.41 0 0 1 .481-1.444 3.182 3.182 0 0 1 1.364-1.043 4.961 4.961 0 0 1 1.976-.378 3.92 3.92 0 0 1 2.635.834 2.918 2.918 0 0 1 .975 2.345v3.893a4.294 4.294 0 0 0 .357 1.934V0zm-1.984-1.668a2.066 2.066 0 0 0 .979-.237 1.554 1.554 0 0 0 .664-.635v-1.544h-.9q-1.8 0-1.917 1.245l-.008.141a.96.96 0 0 0 .315.739 1.225 1.225 0 0 0 .867.291zM72.964-3.6l-.863.863V0H69.7v-12.75h2.4v7.064l.465-.6 2.3-2.7h2.88L74.5-5.238 78.027 0h-2.756zM82.917.166A4.409 4.409 0 0 1 79.7-1.046a4.308 4.308 0 0 1-1.241-3.229v-.232a5.426 5.426 0 0 1 .523-2.42 3.838 3.838 0 0 1 1.482-1.644 4.159 4.159 0 0 1 2.187-.577 3.727 3.727 0 0 1 2.9 1.162 4.722 4.722 0 0 1 1.058 3.3v.979h-5.718a2.229 2.229 0 0 0 .7 1.411 2.12 2.12 0 0 0 1.482.531 2.589 2.589 0 0 0 2.167-1l1.179 1.32a3.6 3.6 0 0 1-1.461 1.184 4.793 4.793 0 0 1-2.041.427zm-.274-7.371a1.5 1.5 0 0 0-1.158.481 2.487 2.487 0 0 0-.569 1.378h3.337v-.191a1.773 1.773 0 0 0-.432-1.233 1.55 1.55 0 0 0-1.178-.435zm9.189 2.631a5.326 5.326 0 0 1 .515-2.382 3.768 3.768 0 0 1 1.482-1.619 4.323 4.323 0 0 1 2.245-.573 4.09 4.09 0 0 1 2.968 1.112 4.464 4.464 0 0 1 1.282 3.021l.017.614a4.694 4.694 0 0 1-1.154 3.316A4.011 4.011 0 0 1 96.09.166a4.031 4.031 0 0 1-3.1-1.245 4.777 4.777 0 0 1-1.158-3.387zm2.4.174a3.348 3.348 0 0 0 .481 1.955 1.589 1.589 0 0 0 1.378.677 1.593 1.593 0 0 0 1.361-.668 3.664 3.664 0 0 0 .49-2.137 3.315 3.315 0 0 0-.49-1.942 1.593 1.593 0 0 0-1.378-.689 1.567 1.567 0 0 0-1.361.685A3.725 3.725 0 0 0 94.23-4.4zm9.795-4.582l.075 1.038a3.136 3.136 0 0 1 2.582-1.2 2.606 2.606 0 0 1 2.125.838 3.912 3.912 0 0 1 .714 2.507V0h-2.4v-5.744a1.556 1.556 0 0 0-.332-1.108 1.486 1.486 0 0 0-1.1-.344 1.65 1.65 0 0 0-1.519.863V0h-2.4v-8.981zm6.964 4.424a5.264 5.264 0 0 1 .984-3.329 3.187 3.187 0 0 1 2.652-1.262 2.8 2.8 0 0 1 2.3 1.013l.1-.847h2.173V-.3a3.839 3.839 0 0 1-.535 2.05 3.439 3.439 0 0 1-1.507 1.328 5.3 5.3 0 0 1-2.274.457 4.925 4.925 0 0 1-1.926-.394 3.418 3.418 0 0 1-1.419-1.017L112.6.664a2.81 2.81 0 0 0 2.175 1 2.057 2.057 0 0 0 1.486-.51 1.915 1.915 0 0 0 .531-1.448v-.478a2.775 2.775 0 0 1-2.183.938A3.179 3.179 0 0 1 111.99-1.1a5.262 5.262 0 0 1-1-3.358zm2.4.174a3.269 3.269 0 0 0 .49 1.913 1.559 1.559 0 0 0 1.345.693 1.666 1.666 0 0 0 1.569-.822v-3.775a1.663 1.663 0 0 0-1.555-.825 1.568 1.568 0 0 0-1.357.706 3.684 3.684 0 0 0-.494 2.111zm7.28-.191a5.326 5.326 0 0 1 .515-2.382 3.768 3.768 0 0 1 1.482-1.619 4.323 4.323 0 0 1 2.245-.573 4.09 4.09 0 0 1 2.968 1.112 4.464 4.464 0 0 1 1.282 3.021l.017.614a4.694 4.694 0 0 1-1.154 3.316 4.011 4.011 0 0 1-3.1 1.249 4.031 4.031 0 0 1-3.1-1.245 4.777 4.777 0 0 1-1.158-3.387zm2.4.174a3.348 3.348 0 0 0 .481 1.955 1.589 1.589 0 0 0 1.378.677 1.593 1.593 0 0 0 1.361-.668 3.664 3.664 0 0 0 .49-2.137 3.315 3.315 0 0 0-.49-1.942 1.593 1.593 0 0 0-1.378-.689 1.567 1.567 0 0 0-1.361.685 3.725 3.725 0 0 0-.485 2.12zM133.186 0h-2.407v-8.981h2.407zm-2.548-11.306a1.181 1.181 0 0 1 .361-.888 1.356 1.356 0 0 1 .984-.349 1.36 1.36 0 0 1 .979.349 1.175 1.175 0 0 1 .365.888 1.178 1.178 0 0 1-.369.9 1.363 1.363 0 0 1-.975.349 1.363 1.363 0 0 1-.975-.349 1.178 1.178 0 0 1-.37-.9zm6.732 2.324l.075 1.038a3.136 3.136 0 0 1 2.582-1.2 2.606 2.606 0 0 1 2.125.838 3.912 3.912 0 0 1 .714 2.507V0h-2.4v-5.744a1.556 1.556 0 0 0-.332-1.108 1.486 1.486 0 0 0-1.1-.344 1.65 1.65 0 0 0-1.519.863V0h-2.4v-8.981zm6.964 4.424a5.264 5.264 0 0 1 .984-3.329 3.187 3.187 0 0 1 2.652-1.262 2.8 2.8 0 0 1 2.3 1.013l.1-.847h2.175V-.3a3.839 3.839 0 0 1-.535 2.05 3.439 3.439 0 0 1-1.51 1.33 5.3 5.3 0 0 1-2.274.457 4.925 4.925 0 0 1-1.926-.394 3.418 3.418 0 0 1-1.419-1.017l1.063-1.462a2.81 2.81 0 0 0 2.175 1 2.057 2.057 0 0 0 1.486-.51 1.915 1.915 0 0 0 .531-1.448v-.478a2.775 2.775 0 0 1-2.183.938 3.179 3.179 0 0 1-2.619-1.266 5.262 5.262 0 0 1-1-3.358zm2.4.174a3.269 3.269 0 0 0 .49 1.913 1.559 1.559 0 0 0 1.345.693 1.666 1.666 0 0 0 1.569-.822v-3.775a1.663 1.663 0 0 0-1.552-.822 1.569 1.569 0 0 0-1.357.706 3.684 3.684 0 0 0-.496 2.108z" class="prefix__cls-1" data-name="패스 1269" transform="translate(96 439)"/>
        <path id="prefix__패스_1270" d="M7.346-3.171a1.278 1.278 0 0 0-.5-1.083 6.533 6.533 0 0 0-1.793-.8A12.71 12.71 0 0 1 3-5.877a3.35 3.35 0 0 1-2.059-3 2.919 2.919 0 0 1 .559-1.744 3.6 3.6 0 0 1 1.585-1.2 5.967 5.967 0 0 1 2.32-.432 5.432 5.432 0 0 1 2.308.469 3.674 3.674 0 0 1 1.573 1.324 3.464 3.464 0 0 1 .56 1.942H7.354a1.63 1.63 0 0 0-.523-1.291 2.15 2.15 0 0 0-1.469-.461 2.3 2.3 0 0 0-1.419.386 1.217 1.217 0 0 0-.506 1.017 1.166 1.166 0 0 0 .594.988 6.705 6.705 0 0 0 1.747.747 7.55 7.55 0 0 1 3.1 1.585 3.157 3.157 0 0 1 .971 2.357A2.909 2.909 0 0 1 8.658-.726a5.2 5.2 0 0 1-3.2.892 6.171 6.171 0 0 1-2.54-.51 4.019 4.019 0 0 1-1.747-1.4A3.582 3.582 0 0 1 .573-3.8h2.5q0 2 2.391 2a2.326 2.326 0 0 0 1.386-.361 1.175 1.175 0 0 0 .496-1.01zM13.9 0h-2.4v-8.981h2.4zm-2.545-11.306a1.181 1.181 0 0 1 .361-.888 1.356 1.356 0 0 1 .984-.349 1.36 1.36 0 0 1 .979.349 1.175 1.175 0 0 1 .365.888 1.178 1.178 0 0 1-.369.9 1.363 1.363 0 0 1-.975.349 1.363 1.363 0 0 1-.975-.349 1.178 1.178 0 0 1-.37-.9zm7.4.116v2.208h1.536v1.76h-1.54v4.482a1.07 1.07 0 0 0 .191.714.959.959 0 0 0 .73.216 3.826 3.826 0 0 0 .706-.058V-.05a4.939 4.939 0 0 1-1.453.216 2.29 2.29 0 0 1-2.573-2.548v-4.84h-1.311v-1.76h1.312v-2.208zM27-.913A3.008 3.008 0 0 1 24.545.166a2.837 2.837 0 0 1-2.2-.83 3.543 3.543 0 0 1-.78-2.436v-5.881h2.4v5.8q0 1.4 1.278 1.4a1.733 1.733 0 0 0 1.677-.847v-6.353h2.407V0h-2.258zM36.341 0a2.664 2.664 0 0 1-.241-.805 2.9 2.9 0 0 1-2.266.971A3.189 3.189 0 0 1 31.647-.6a2.456 2.456 0 0 1-.867-1.926 2.538 2.538 0 0 1 1.058-2.191 5.222 5.222 0 0 1 3.062-.77H36V-6a1.48 1.48 0 0 0-.32-1 1.257 1.257 0 0 0-1.009-.374 1.429 1.429 0 0 0-.95.291.987.987 0 0 0-.344.8h-2.4a2.41 2.41 0 0 1 .481-1.444 3.182 3.182 0 0 1 1.363-1.043 4.961 4.961 0 0 1 1.979-.377 3.92 3.92 0 0 1 2.635.834 2.918 2.918 0 0 1 .975 2.345v3.893a4.294 4.294 0 0 0 .357 1.934V0zm-1.984-1.668a2.066 2.066 0 0 0 .979-.237A1.554 1.554 0 0 0 36-2.54v-1.544h-.9q-1.8 0-1.917 1.245l-.008.141a.96.96 0 0 0 .315.739 1.225 1.225 0 0 0 .867.291zm8.766-9.521v2.208h1.536v1.76h-1.536v4.482a1.07 1.07 0 0 0 .191.714.959.959 0 0 0 .73.216 3.826 3.826 0 0 0 .706-.058V-.05a4.939 4.939 0 0 1-1.45.216 2.29 2.29 0 0 1-2.573-2.548v-4.84h-1.315v-1.76h1.312v-2.208zM48.526 0h-2.407v-8.981h2.407zm-2.548-11.306a1.181 1.181 0 0 1 .361-.888 1.356 1.356 0 0 1 .984-.349 1.36 1.36 0 0 1 .979.349 1.175 1.175 0 0 1 .365.888 1.178 1.178 0 0 1-.369.9 1.363 1.363 0 0 1-.975.349 1.363 1.363 0 0 1-.975-.349 1.178 1.178 0 0 1-.37-.9zm4.15 6.732a5.327 5.327 0 0 1 .515-2.382 3.767 3.767 0 0 1 1.482-1.619 4.323 4.323 0 0 1 2.245-.573 4.09 4.09 0 0 1 2.968 1.112 4.464 4.464 0 0 1 1.282 3.022l.017.614a4.694 4.694 0 0 1-1.154 3.316 4.011 4.011 0 0 1-3.1 1.249 4.031 4.031 0 0 1-3.1-1.245 4.777 4.777 0 0 1-1.158-3.387zm2.4.174a3.348 3.348 0 0 0 .481 1.955 1.589 1.589 0 0 0 1.378.677 1.593 1.593 0 0 0 1.361-.668 3.664 3.664 0 0 0 .49-2.137 3.315 3.315 0 0 0-.49-1.942 1.593 1.593 0 0 0-1.378-.689 1.567 1.567 0 0 0-1.361.685 3.725 3.725 0 0 0-.482 2.119zm9.795-4.582l.077 1.038a3.136 3.136 0 0 1 2.582-1.2 2.606 2.606 0 0 1 2.125.838 3.912 3.912 0 0 1 .71 2.506V0h-2.4v-5.744a1.556 1.556 0 0 0-.332-1.108 1.486 1.486 0 0 0-1.1-.344 1.65 1.65 0 0 0-1.519.863V0h-2.4v-8.981zM74.026 0v-12.086h4.234a5.559 5.559 0 0 1 3.337.843 2.881 2.881 0 0 1 1.137 2.469 2.731 2.731 0 0 1-.457 1.565 2.637 2.637 0 0 1-1.27.992 2.551 2.551 0 0 1 1.465.938 2.773 2.773 0 0 1 .535 1.727A3.19 3.19 0 0 1 81.9-.913 5.007 5.007 0 0 1 78.725 0zm2.49-5.263V-2h2.134a2.059 2.059 0 0 0 1.374-.419 1.437 1.437 0 0 0 .494-1.158A1.518 1.518 0 0 0 78.8-5.263zm0-1.76h1.843q1.884-.033 1.884-1.5a1.388 1.388 0 0 0-.477-1.183 2.51 2.51 0 0 0-1.507-.361h-1.742zm7.828 2.449a5.326 5.326 0 0 1 .515-2.382 3.768 3.768 0 0 1 1.482-1.619 4.323 4.323 0 0 1 2.245-.573 4.09 4.09 0 0 1 2.968 1.112 4.464 4.464 0 0 1 1.282 3.021l.017.614A4.694 4.694 0 0 1 91.7-1.083 4.011 4.011 0 0 1 88.6.166a4.031 4.031 0 0 1-3.1-1.245 4.777 4.777 0 0 1-1.158-3.387zm2.4.174a3.348 3.348 0 0 0 .481 1.955 1.589 1.589 0 0 0 1.378.677 1.593 1.593 0 0 0 1.361-.668 3.664 3.664 0 0 0 .49-2.137 3.315 3.315 0 0 0-.49-1.942 1.593 1.593 0 0 0-1.378-.689 1.567 1.567 0 0 0-1.361.685 3.725 3.725 0 0 0-.482 2.119zM99.535 0a2.664 2.664 0 0 1-.241-.805 2.9 2.9 0 0 1-2.266.971A3.189 3.189 0 0 1 94.841-.6a2.456 2.456 0 0 1-.867-1.926 2.538 2.538 0 0 1 1.058-2.191 5.222 5.222 0 0 1 3.059-.772h1.1V-6a1.48 1.48 0 0 0-.32-1 1.257 1.257 0 0 0-1.009-.374 1.429 1.429 0 0 0-.95.291.987.987 0 0 0-.344.8h-2.4a2.41 2.41 0 0 1 .481-1.444 3.182 3.182 0 0 1 1.366-1.043 4.961 4.961 0 0 1 1.976-.378 3.92 3.92 0 0 1 2.635.834 2.918 2.918 0 0 1 .975 2.345v3.893a4.294 4.294 0 0 0 .357 1.934V0zm-1.984-1.668a2.066 2.066 0 0 0 .979-.237 1.554 1.554 0 0 0 .664-.635v-1.544h-.9q-1.8 0-1.917 1.245l-.008.141a.96.96 0 0 0 .315.739 1.225 1.225 0 0 0 .867.291zm10.94-5.063a6.517 6.517 0 0 0-.863-.066 1.757 1.757 0 0 0-1.785.921V0h-2.4v-8.981h2.266l.066 1.071a2.223 2.223 0 0 1 2-1.237 2.514 2.514 0 0 1 .747.108zm.78 2.175a5.413 5.413 0 0 1 .942-3.345 3.057 3.057 0 0 1 2.577-1.245 2.751 2.751 0 0 1 2.167.979v-4.583h2.407V0H115.2l-.116-.955a2.823 2.823 0 0 1-2.31 1.121 3.049 3.049 0 0 1-2.544-1.249 5.587 5.587 0 0 1-.959-3.474zm2.4.174a3.536 3.536 0 0 0 .44 1.934 1.434 1.434 0 0 0 1.278.672 1.605 1.605 0 0 0 1.569-.938v-3.545a1.582 1.582 0 0 0-1.552-.938q-1.736-.003-1.736 2.814z" class="prefix__cls-1" data-name="패스 1270" transform="translate(96 497)"/>
        <g id="prefix__그룹_438" data-name="그룹 438" transform="translate(-12 55)">
            <path id="prefix__패스_1190" d="M0 0v19.2" class="prefix__cls-2" data-name="패스 1190" transform="translate(84.5 275)"/>
            <path id="prefix__패스_1186" d="M157.5 369.119l-7.361-10.689h14.516z" class="prefix__cls-1" data-name="패스 1186" transform="translate(-73.141 -68.031)"/>
        </g>
        <g id="prefix__그룹_439" data-name="그룹 439" transform="translate(-12 113)">
            <path id="prefix__패스_1190-2" d="M0 0v19.2" class="prefix__cls-2" data-name="패스 1190" transform="translate(84.5 275)"/>
            <path id="prefix__패스_1186-2" d="M157.5 369.119l-7.361-10.689h14.516z" class="prefix__cls-1" data-name="패스 1186" transform="translate(-73.141 -68.031)"/>
        </g>
        <g id="prefix__그룹_440" data-name="그룹 440" transform="translate(-12 171)">
            <path id="prefix__패스_1190-3" d="M0 0v19.2" class="prefix__cls-2" data-name="패스 1190" transform="translate(84.5 275)"/>
            <path id="prefix__패스_1186-3" d="M157.5 369.119l-7.361-10.689h14.516z" class="prefix__cls-1" data-name="패스 1186" transform="translate(-73.141 -68.031)"/>
        </g>
        <g id="prefix__그룹_441" data-name="그룹 441" transform="translate(-12 229)">
            <path id="prefix__패스_1190-4" d="M0 0v19.2" class="prefix__cls-2" data-name="패스 1190" transform="translate(84.5 275)"/>
            <path id="prefix__패스_1186-4" d="M157.5 369.119l-7.361-10.689h14.516z" class="prefix__cls-1" data-name="패스 1186" transform="translate(-73.141 -68.031)"/>
        </g>
        <g id="prefix__패스_1271" class="prefix__cls-3" data-name="패스 1271">
            <path d="M17 33c-4.274 0-8.292-1.664-11.314-4.686C2.664 25.292 1 21.274 1 17S2.664 8.708 5.686 5.686C8.708 2.664 12.726 1 17 1s8.292 1.664 11.314 4.686C31.336 8.708 33 12.726 33 17s-1.664 8.292-4.686 11.314C25.292 31.336 21.274 33 17 33z" class="prefix__cls-5" transform="translate(55 358)"/>
            <path d="M17 2C12.993 2 9.227 3.56 6.393 6.393 3.56 9.227 2 12.993 2 17s1.56 7.773 4.393 10.607C9.227 30.44 12.993 32 17 32s7.773-1.56 10.607-4.393C30.44 24.773 32 21.007 32 17s-1.56-7.773-4.393-10.607C24.773 3.56 21.007 2 17 2m0-2c9.389 0 17 7.611 17 17s-7.611 17-17 17S0 26.389 0 17 7.611 0 17 0z" class="prefix__cls-6" transform="translate(55 358)"/>
        </g>
        <path id="prefix__패스_1272" d="M-6.79-4.258V0h-2.49v-12.086h4.715a5.455 5.455 0 0 1 2.395.5 3.67 3.67 0 0 1 1.59 1.415 3.946 3.946 0 0 1 .555 2.086 3.47 3.47 0 0 1-1.216 2.8 5.065 5.065 0 0 1-3.366 1.027zm0-2.017h2.225a2.187 2.187 0 0 0 1.506-.465 1.691 1.691 0 0 0 .519-1.328A1.994 1.994 0 0 0-3.063-9.5a1.953 1.953 0 0 0-1.444-.564H-6.79zM9.712 0H1.428v-1.644l3.91-4.167a9.645 9.645 0 0 0 1.191-1.535 2.467 2.467 0 0 0 .386-1.245 1.846 1.846 0 0 0-.407-1.266 1.468 1.468 0 0 0-1.162-.461 1.584 1.584 0 0 0-1.282.56 2.219 2.219 0 0 0-.469 1.473H1.187a3.962 3.962 0 0 1 .527-2.015A3.715 3.715 0 0 1 3.2-11.733a4.529 4.529 0 0 1 2.183-.519 4.288 4.288 0 0 1 2.9.9 3.172 3.172 0 0 1 1.039 2.528A4.064 4.064 0 0 1 8.857-7a10.148 10.148 0 0 1-1.594 2.169l-2.748 2.9h5.2z" class="prefix__cls-1" data-name="패스 1272" transform="translate(72 381)"/>
        <g id="prefix__패스_1273" class="prefix__cls-3" data-name="패스 1273">
            <path d="M17 33c-4.274 0-8.292-1.664-11.314-4.686C2.664 25.292 1 21.274 1 17S2.664 8.708 5.686 5.686C8.708 2.664 12.726 1 17 1s8.292 1.664 11.314 4.686C31.336 8.708 33 12.726 33 17s-1.664 8.292-4.686 11.314C25.292 31.336 21.274 33 17 33z" class="prefix__cls-5" transform="translate(55 416)"/>
            <path d="M17 2C12.993 2 9.227 3.56 6.393 6.393 3.56 9.227 2 12.993 2 17s1.56 7.773 4.393 10.607C9.227 30.44 12.993 32 17 32s7.773-1.56 10.607-4.393C30.44 24.773 32 21.007 32 17s-1.56-7.773-4.393-10.607C24.773 3.56 21.007 2 17 2m0-2c9.389 0 17 7.611 17 17s-7.611 17-17 17S0 26.389 0 17 7.611 0 17 0z" class="prefix__cls-6" transform="translate(55 416)"/>
        </g>
        <path id="prefix__패스_1274" d="M-6.79-4.258V0h-2.49v-12.086h4.715a5.455 5.455 0 0 1 2.395.5 3.67 3.67 0 0 1 1.59 1.415 3.946 3.946 0 0 1 .555 2.086 3.47 3.47 0 0 1-1.216 2.8 5.065 5.065 0 0 1-3.366 1.027zm0-2.017h2.225a2.187 2.187 0 0 0 1.506-.465 1.691 1.691 0 0 0 .519-1.328A1.994 1.994 0 0 0-3.063-9.5a1.953 1.953 0 0 0-1.444-.564H-6.79zm10.658-.83h1.278A1.8 1.8 0 0 0 6.5-7.562a1.673 1.673 0 0 0 .44-1.212 1.479 1.479 0 0 0-.44-1.137 1.689 1.689 0 0 0-1.2-.407 1.77 1.77 0 0 0-1.15.378 1.208 1.208 0 0 0-.465.984h-2.4a2.95 2.95 0 0 1 .51-1.7 3.4 3.4 0 0 1 1.428-1.175 4.765 4.765 0 0 1 2.021-.423 4.519 4.519 0 0 1 3 .917 3.13 3.13 0 0 1 1.094 2.53 2.543 2.543 0 0 1-.506 1.527A3.29 3.29 0 0 1 7.5-6.209a3 3 0 0 1 1.523 1.1 2.972 2.972 0 0 1 .5 1.727A3.181 3.181 0 0 1 8.355-.805a4.723 4.723 0 0 1-3.109.971 4.478 4.478 0 0 1-2.959-.955 3.118 3.118 0 0 1-1.15-2.523h2.4a1.39 1.39 0 0 0 .51 1.112 1.881 1.881 0 0 0 1.253.432 1.89 1.89 0 0 0 1.345-.452 1.562 1.562 0 0 0 .486-1.2q0-1.81-1.992-1.81H3.868z" class="prefix__cls-1" data-name="패스 1274" transform="translate(72 439)"/>
        <g id="prefix__패스_1275" class="prefix__cls-3" data-name="패스 1275">
            <path d="M17 33c-4.274 0-8.292-1.664-11.314-4.686C2.664 25.292 1 21.274 1 17S2.664 8.708 5.686 5.686C8.708 2.664 12.726 1 17 1s8.292 1.664 11.314 4.686C31.336 8.708 33 12.726 33 17s-1.664 8.292-4.686 11.314C25.292 31.336 21.274 33 17 33z" class="prefix__cls-5" transform="translate(55 474)"/>
            <path d="M17 2C12.993 2 9.227 3.56 6.393 6.393 3.56 9.227 2 12.993 2 17s1.56 7.773 4.393 10.607C9.227 30.44 12.993 32 17 32s7.773-1.56 10.607-4.393C30.44 24.773 32 21.007 32 17s-1.56-7.773-4.393-10.607C24.773 3.56 21.007 2 17 2m0-2c9.389 0 17 7.611 17 17s-7.611 17-17 17S0 26.389 0 17 7.611 0 17 0z" class="prefix__cls-6" transform="translate(55 474)"/>
        </g>
        <path id="prefix__패스_1276" d="M-6.79-4.258V0h-2.49v-12.086h4.715a5.455 5.455 0 0 1 2.395.5 3.67 3.67 0 0 1 1.59 1.415 3.946 3.946 0 0 1 .555 2.086 3.47 3.47 0 0 1-1.216 2.8 5.065 5.065 0 0 1-3.366 1.027zm0-2.017h2.225a2.187 2.187 0 0 0 1.506-.465 1.691 1.691 0 0 0 .519-1.328A1.994 1.994 0 0 0-3.063-9.5a1.953 1.953 0 0 0-1.444-.564H-6.79zM8.525-4.549h1.37v1.934h-1.37V0h-2.4v-2.615H1.17l-.107-1.51L6.1-12.086h2.425zm-5.072 0h2.673v-4.266l-.158.274z" class="prefix__cls-1" data-name="패스 1276" transform="translate(72 497)"/>
        <g id="prefix__패스_1181" class="prefix__cls-3" data-name="패스 1181">
            <path d="M17 33c-4.274 0-8.292-1.664-11.314-4.686C2.664 25.292 1 21.274 1 17S2.664 8.708 5.686 5.686C8.708 2.664 12.726 1 17 1s8.292 1.664 11.314 4.686C31.336 8.708 33 12.726 33 17s-1.664 8.292-4.686 11.314C25.292 31.336 21.274 33 17 33z" class="prefix__cls-5" transform="translate(55 532)"/>
            <path d="M17 2C12.993 2 9.227 3.56 6.393 6.393 3.56 9.227 2 12.993 2 17s1.56 7.773 4.393 10.607C9.227 30.44 12.993 32 17 32s7.773-1.56 10.607-4.393C30.44 24.773 32 21.007 32 17s-1.56-7.773-4.393-10.607C24.773 3.56 21.007 2 17 2m0-2c9.389 0 17 7.611 17 17s-7.611 17-17 17S0 26.389 0 17 7.611 0 17 0z" class="prefix__cls-6" transform="translate(55 532)"/>
        </g>
        <path id="prefix__패스_1277" d="M-6.79-4.258V0h-2.49v-12.086h4.715a5.455 5.455 0 0 1 2.395.5 3.67 3.67 0 0 1 1.59 1.415 3.946 3.946 0 0 1 .555 2.086 3.47 3.47 0 0 1-1.216 2.8 5.065 5.065 0 0 1-3.366 1.027zm0-2.017h2.225a2.187 2.187 0 0 0 1.506-.465 1.691 1.691 0 0 0 .519-1.328A1.994 1.994 0 0 0-3.063-9.5a1.953 1.953 0 0 0-1.444-.564H-6.79zm8.575.332l.7-6.143h6.77v2H4.449l-.3 2.6a3.8 3.8 0 0 1 1.818-.457 3.484 3.484 0 0 1 2.707 1.07 4.277 4.277 0 0 1 .979 3 4.382 4.382 0 0 1-.494 2.1A3.486 3.486 0 0 1 7.745-.344a4.418 4.418 0 0 1-2.175.51 4.692 4.692 0 0 1-2.034-.444 3.607 3.607 0 0 1-1.482-1.249 3.4 3.4 0 0 1-.577-1.834h2.375a1.773 1.773 0 0 0 .527 1.175 1.671 1.671 0 0 0 1.183.419 1.475 1.475 0 0 0 1.253-.585 2.711 2.711 0 0 0 .44-1.656 2.242 2.242 0 0 0-.506-1.577 1.858 1.858 0 0 0-1.436-.548 2.077 2.077 0 0 0-1.386.448l-.232.216z" class="prefix__cls-1" data-name="패스 1277" transform="translate(72 555)"/>
        <g id="prefix__패스_1278" class="prefix__cls-3" data-name="패스 1278">
            <path d="M17 33c-4.274 0-8.292-1.664-11.314-4.686C2.664 25.292 1 21.274 1 17S2.664 8.708 5.686 5.686C8.708 2.664 12.726 1 17 1s8.292 1.664 11.314 4.686C31.336 8.708 33 12.726 33 17s-1.664 8.292-4.686 11.314C25.292 31.336 21.274 33 17 33z" class="prefix__cls-5" transform="translate(55 300)"/>
            <path d="M17 2C12.993 2 9.227 3.56 6.393 6.393 3.56 9.227 2 12.993 2 17s1.56 7.773 4.393 10.607C9.227 30.44 12.993 32 17 32s7.773-1.56 10.607-4.393C30.44 24.773 32 21.007 32 17s-1.56-7.773-4.393-10.607C24.773 3.56 21.007 2 17 2m0-2c9.389 0 17 7.611 17 17s-7.611 17-17 17S0 26.389 0 17 7.611 0 17 0z" class="prefix__cls-6" transform="translate(55 300)"/>
        </g>
        <path id="prefix__패스_1279" d="M-6.79-4.258V0h-2.49v-12.086h4.715a5.455 5.455 0 0 1 2.395.5 3.67 3.67 0 0 1 1.59 1.415 3.946 3.946 0 0 1 .555 2.086 3.47 3.47 0 0 1-1.216 2.8 5.065 5.065 0 0 1-3.366 1.027zm0-2.017h2.225a2.187 2.187 0 0 0 1.506-.465 1.691 1.691 0 0 0 .519-1.328A1.994 1.994 0 0 0-3.063-9.5a1.953 1.953 0 0 0-1.444-.564H-6.79zM7.255 0h-2.4v-9.247l-2.864.888v-1.951L7-12.1h.257z" class="prefix__cls-1" data-name="패스 1279" transform="translate(72 323)"/>
        <path id="prefix__패스_1280" d="M0 0h167" data-name="패스 1280" transform="translate(97.5 252.5)" style="stroke-linecap:round;fill:none;stroke:#2d2d2d;stroke-width:6px"/>
        <path id="prefix__패스_1281" d="M35.793 34h-5.46V11.53h6.685l3.64 12.005L44.3 11.53h6.685V34h-5.427V19.72l-2.8 9.415h-4.2l-2.765-9.345zm26.18-17.465h5.95V34h-5.845v-2.24Q61.588 34 58.893 34h-.63q-4.655 0-4.655-4.34V16.535h5.95v12.32q0 .77.875.77h.6q.945 0 .945-1.05zM76.673 34h-5.95V10.585h5.95zm11.654-13.09h-2.2v7.945q0 .77.875.77h1.295V34h-2.979q-5.145 0-5.145-4.34v-8.75h-1.925v-4.375h1.925V13.1h5.95v3.43h2.2zm1.645-6.125v-4.2h6.16v4.2zM96.028 34h-5.95V16.535h5.95zm20.195-17.465h.63q4.655 0 4.655 4.34V34h-5.95V21.68q0-.77-.875-.77h-.595q-.945 0-.945 1.05V34h-5.95V21.68q0-.77-.875-.77h-.6q-.945 0-.945 1.05V34h-5.95V16.535h5.845v2.24q.49-2.24 3.185-2.24h.63q3.255 0 4.27 2.205a2.709 2.709 0 0 1 1.225-1.61 4.116 4.116 0 0 1 2.245-.595zm12.705 0h4.27q5.145 0 5.145 4.34v5.95h-8.925v2.31q0 .77.875.77h1.54q.875 0 .875-.84v-.98h5.635v1.575q0 4.34-5.145 4.34h-4.27q-5.145 0-5.145-4.34v-8.785q0-4.34 5.145-4.34zm.49 7.07h3.29V21.4q0-.77-.875-.77h-1.54q-.875 0-.875.77zm19.215-13.02h5.95V34h-5.845v-2.24q-.49 2.24-3.185 2.24h-.63q-4.655 0-4.655-4.34v-8.785q0-4.34 4.655-4.34h.63a2.891 2.891 0 0 1 3.08 1.89zm-1.54 19.04h.6q.945 0 .945-1.05V21.96q0-1.05-.945-1.05h-.6q-.875 0-.875.77v7.175q-.001.77.874.77zm10.185-14.84v-4.2h6.16v4.2zM163.333 34h-5.95V16.535h5.95zm10.92-17.465h5.847V34h-5.95v-1.89a2.891 2.891 0 0 1-3.08 1.89h-.63q-4.655 0-4.655-4.34v-8.785q0-4.34 4.655-4.34h.63q2.695 0 3.185 2.24zm-1.645 13.09h.6q.945 0 .945-1.05V21.96q0-1.05-.945-1.05h-.6q-.875 0-.875.77v7.175q0 .77.875.77zM201.342 34l-.7-3.36h-5.39l-.734 3.36H188.5l5.775-22.47h7.455L207.5 34zm-5.142-7.7h3.5l-1.715-8.085zm18.653 7.7H208.9V10.585h5.95zm7.6-17.465h4.27q5.145 0 5.145 4.34v5.95h-8.925v2.31q0 .77.875.77h1.54q.875 0 .875-.84v-.98h5.635v1.575q0 4.34-5.145 4.34h-4.27q-5.145 0-5.145-4.34v-8.785q-.008-4.34 5.14-4.34zm.49 7.07h3.29V21.4q0-.77-.875-.77h-1.54q-.875 0-.875.77zm20.825-7.245h.525v5.18h-2q-2.2 0-2.2 2.38V34h-5.95V16.535h5.845v2.695a3.485 3.485 0 0 1 1.26-2.1 3.957 3.957 0 0 1 2.514-.77zm10.955 4.55h-2.205v7.945q0 .77.875.77h1.295V34h-2.975q-5.145 0-5.145-4.34v-8.75h-1.925v-4.375h1.925V13.1h5.95v3.43h2.205zM62.648 48.616h15.444q7.644 0 7.644 6.448v9.568q0 6.448-7.644 6.448h-6.344V82h-9.1zm13.988 14.82V56.26q0-1.144-1.3-1.144h-3.588v9.464h3.588q1.3 0 1.3-1.144zm26.52-7.644h.78v7.7h-2.964q-3.276 0-3.276 3.536V82h-8.84V56.052h8.684v4a5.177 5.177 0 0 1 1.872-3.12 5.879 5.879 0 0 1 3.744-1.14zm10.244.26h6.6q3.952 0 5.668 1.664a6.36 6.36 0 0 1 1.716 4.784v13.052a6.36 6.36 0 0 1-1.716 4.784Q123.956 82 120 82h-6.6q-3.952 0-5.668-1.664a6.36 6.36 0 0 1-1.716-4.784V62.5a6.36 6.36 0 0 1 1.716-4.784q1.716-1.664 5.668-1.664zm5.3 18.668V63.332q0-1.144-1.3-1.144H116q-1.3 0-1.3 1.144V74.72q0 1.144 1.3 1.144h1.4q1.3 0 1.3-1.144zm32.916-8.632h-8.528V63.7q0-1.144-1.3-1.144h-.884q-1.3 0-1.3 1.144v10.66q0 1.144 1.3 1.144h.884q1.3 0 1.3-1.144v-2.396h8.528v3.588q0 6.448-7.644 6.448h-5.564q-7.644 0-7.644-6.448V62.5q0-6.448 7.644-6.448h5.564q7.644 0 7.644 6.448zm10.244-10.036h6.344q7.644 0 7.644 6.448v8.84h-13.26v3.432q0 1.144 1.3 1.144h2.288q1.3 0 1.3-1.248v-1.456h8.372v2.34q0 6.448-7.644 6.448h-6.344q-7.644 0-7.644-6.448V62.5q.004-6.448 7.648-6.448zm.728 10.5h4.888V63.28q0-1.144-1.3-1.144h-2.288q-1.3 0-1.3 1.144zm27.82 8.58v-2.08q0-1.144-1.3-1.144h-3.168q-7.488 0-7.488-6.4V62.5q0-6.448 7.644-6.448h4.836q7.644 0 7.644 6.448v2.184h-8.424v-1.768q0-1.144-1.3-1.144h-.52q-1.3 0-1.3 1.144V65.2q0 1.144 1.3 1.144h3.168q4 0 5.746 1.638a6.148 6.148 0 0 1 1.742 4.706v2.86q0 6.448-7.644 6.448h-5.1q-7.644 0-7.644-6.448V73.42h8.58v1.716q0 1.144 1.3 1.144h.624q1.308 0 1.308-1.144zm23.14 0v-2.08q0-1.144-1.3-1.144h-3.168q-7.488 0-7.488-6.4V62.5q0-6.448 7.644-6.448h4.836q7.644 0 7.644 6.448v2.184h-8.424v-1.768q0-1.144-1.3-1.144h-.52q-1.3 0-1.3 1.144V65.2q0 1.144 1.3 1.144h3.172q4 0 5.746 1.638a6.148 6.148 0 0 1 1.742 4.706v2.86q0 6.448-7.644 6.448h-5.1q-7.644 0-7.644-6.448V73.42h8.58v1.716q0 1.144 1.3 1.144h.624q1.304 0 1.304-1.144z" class="prefix__cls-1" data-name="패스 1281" transform="translate(38 105.33)"/>
        <path id="prefix__패스_1282" d="M-74.585-3.652a1.831 1.831 0 0 0-.659-1.455 6.191 6.191 0 0 0-2.329-1.016 9.852 9.852 0 0 1-3.667-1.655 3.3 3.3 0 0 1-1.284-2.7 3.448 3.448 0 0 1 1.424-2.833 5.77 5.77 0 0 1 3.667-1.113 5.466 5.466 0 0 1 3.765 1.26 3.76 3.76 0 0 1 1.368 3.027l-.02.059h-2.275a2.29 2.29 0 0 0-.742-1.772 3.03 3.03 0 0 0-2.119-.679 3.1 3.1 0 0 0-2 .566 1.8 1.8 0 0 0-.7 1.465 1.6 1.6 0 0 0 .757 1.348 8.381 8.381 0 0 0 2.5 1.016 8.342 8.342 0 0 1 3.486 1.7 3.571 3.571 0 0 1 1.191 2.764 3.335 3.335 0 0 1-1.411 2.825 6.135 6.135 0 0 1-3.735 1.05 6.636 6.636 0 0 1-3.906-1.177A3.618 3.618 0 0 1-82.905-4.2l.02-.059h2.285a2.221 2.221 0 0 0 .9 1.938 3.935 3.935 0 0 0 2.334.64 3.438 3.438 0 0 0 2.051-.532 1.689 1.689 0 0 0 .73-1.439zm7.52-9.482v2.568h1.895v1.758h-1.895v5.84a1.273 1.273 0 0 0 .283.933 1.026 1.026 0 0 0 .752.278 2.1 2.1 0 0 0 .381-.034 2.315 2.315 0 0 0 .352-.093l.254 1.738a2.721 2.721 0 0 1-.723.259 4.017 4.017 0 0 1-.869.093 2.721 2.721 0 0 1-2.051-.767 3.357 3.357 0 0 1-.742-2.407v-5.84h-1.612v-1.758h1.611v-2.568zm9.265 4.706l-1.016-.039a2.128 2.128 0 0 0-1.157.293 1.929 1.929 0 0 0-.718.83V0h-2.373v-10.566h2.168l.156 1.533a3.389 3.389 0 0 1 1.03-1.27 2.4 2.4 0 0 1 1.45-.459 2.211 2.211 0 0 1 .4.034 2.924 2.924 0 0 1 .342.083zm1.221 3.047a5.756 5.756 0 0 1 1.289-3.867 4.445 4.445 0 0 1 3.545-1.514 4.431 4.431 0 0 1 3.564 1.514 5.705 5.705 0 0 1 1.3 3.867v.205a5.734 5.734 0 0 1-1.3 3.887A4.435 4.435 0 0 1-51.724.205a4.463 4.463 0 0 1-3.564-1.5 5.747 5.747 0 0 1-1.289-3.877zm2.373.205a4.718 4.718 0 0 0 .605 2.52 2.042 2.042 0 0 0 1.875.967 2.052 2.052 0 0 0 1.855-.967 4.6 4.6 0 0 0 .625-2.52v-.205a4.542 4.542 0 0 0-.625-2.49 2.059 2.059 0 0 0-1.875-.986 2.041 2.041 0 0 0-1.855.986 4.688 4.688 0 0 0-.605 2.49zm11.543-5.391l.137 1.523a3.779 3.779 0 0 1 1.3-1.265 3.479 3.479 0 0 1 1.772-.454 3.326 3.326 0 0 1 2.573 1 4.49 4.49 0 0 1 .923 3.12V0h-2.373v-6.621a2.374 2.374 0 0 0-.493-1.694 2.014 2.014 0 0 0-1.5-.5 2.486 2.486 0 0 0-1.24.308 2.564 2.564 0 0 0-.9.845V0h-2.373v-10.566zm8.75 5.43a6.88 6.88 0 0 1 1.1-4.072 3.552 3.552 0 0 1 3.066-1.553 3.329 3.329 0 0 1 1.665.405 3.518 3.518 0 0 1 1.222 1.168l.234-1.377h1.973V0a3.988 3.988 0 0 1-1.26 3.154 5.224 5.224 0 0 1-3.574 1.113 7 7 0 0 1-1.665-.22 7.735 7.735 0 0 1-1.616-.581l.508-1.865a5.744 5.744 0 0 0 1.294.474 6.2 6.2 0 0 0 1.46.171 2.711 2.711 0 0 0 1.885-.552A2.2 2.2 0 0 0-27.026 0v-1.084a3.32 3.32 0 0 1-1.174.962 3.545 3.545 0 0 1-1.558.327 3.649 3.649 0 0 1-3.047-1.416 5.883 5.883 0 0 1-1.1-3.721zm2.373.205a4.148 4.148 0 0 0 .583 2.332 2.011 2.011 0 0 0 1.8.874 2.431 2.431 0 0 0 1.284-.317 2.343 2.343 0 0 0 .845-.913v-4.632a2.536 2.536 0 0 0-.854-.9 2.317 2.317 0 0 0-1.255-.327 1.952 1.952 0 0 0-1.812 1.025 5.28 5.28 0 0 0-.591 2.656zM-8.276-6.4H-14.5v4.5h7.22V0h-9.59v-14.219h9.521v1.9H-14.5V-8.3h6.221zM.776 0Q.649-.4.566-.781a5.585 5.585 0 0 1-.112-.762A4.193 4.193 0 0 1-.83-.3a3.267 3.267 0 0 1-1.782.5 3.513 3.513 0 0 1-2.534-.85 3.085 3.085 0 0 1-.884-2.329 2.757 2.757 0 0 1 1.211-2.387 5.847 5.847 0 0 1 3.408-.854H.435v-.928a1.715 1.715 0 0 0-.488-1.3 1.937 1.937 0 0 0-1.4-.469 1.978 1.978 0 0 0-1.289.391 1.24 1.24 0 0 0-.476 1.006H-5.5l-.01-.059a2.617 2.617 0 0 1 1.115-2.216 4.738 4.738 0 0 1 3.095-.967 4.521 4.521 0 0 1 2.979.938 3.3 3.3 0 0 1 1.133 2.7v4.7A8.662 8.662 0 0 0 2.9-1.177 6.663 6.663 0 0 0 3.179 0zm-2.91-1.7a2.983 2.983 0 0 0 1.616-.448 2.262 2.262 0 0 0 .953-1.026v-1.562H-1.45a2.379 2.379 0 0 0-1.621.513 1.558 1.558 0 0 0-.586 1.206 1.23 1.23 0 0 0 .4.962 1.628 1.628 0 0 0 1.123.355zm12.7-6.729l-1.02-.038a2.128 2.128 0 0 0-1.157.293 1.929 1.929 0 0 0-.718.83V0H5.3v-10.566h2.166l.156 1.533a3.389 3.389 0 0 1 1.03-1.27 2.4 2.4 0 0 1 1.45-.459 2.211 2.211 0 0 1 .4.034 2.924 2.924 0 0 1 .342.083zm4.814-4.707v2.568h1.895v1.758h-1.899v5.84a1.273 1.273 0 0 0 .283.933 1.026 1.026 0 0 0 .752.278 2.1 2.1 0 0 0 .381-.034 2.315 2.315 0 0 0 .352-.093l.256 1.74a2.721 2.721 0 0 1-.723.259 4.017 4.017 0 0 1-.869.093 2.721 2.721 0 0 1-2.051-.767 3.357 3.357 0 0 1-.742-2.407v-5.84H11.4v-1.758h1.611v-2.568zM21.724-9.2a3.767 3.767 0 0 1 1.284-1.152 3.458 3.458 0 0 1 1.675-.41A3.327 3.327 0 0 1 27.3-9.7a4.809 4.809 0 0 1 .942 3.267V0h-2.368v-6.455a2.675 2.675 0 0 0-.5-1.807 1.9 1.9 0 0 0-1.494-.557 2.65 2.65 0 0 0-1.245.288 2.559 2.559 0 0 0-.913.8V0h-2.371v-15.234h2.373zm8.545 4.063a6.968 6.968 0 0 1 1.084-4.077 3.506 3.506 0 0 1 3.047-1.548 3.35 3.35 0 0 1 1.621.381 3.486 3.486 0 0 1 1.2 1.094l.273-1.279h1.924V4.063h-2.372V-1a3.19 3.19 0 0 1-1.152.9 3.611 3.611 0 0 1-1.514.3 3.6 3.6 0 0 1-3.027-1.416 5.958 5.958 0 0 1-1.084-3.721zm2.373.205a4.358 4.358 0 0 0 .558 2.354 1.953 1.953 0 0 0 1.782.889 2.43 2.43 0 0 0 1.226-.288 2.331 2.331 0 0 0 .835-.835v-4.922a2.451 2.451 0 0 0-.84-.825 2.332 2.332 0 0 0-1.2-.3 1.907 1.907 0 0 0-1.787 1.04 5.5 5.5 0 0 0-.576 2.681zm15.976 3.389a3.615 3.615 0 0 1-1.26 1.294A3.367 3.367 0 0 1 45.6.205a3.359 3.359 0 0 1-2.656-1.084 4.993 4.993 0 0 1-.957-3.369v-6.318h2.363v6.338a3.167 3.167 0 0 0 .45 1.943 1.64 1.64 0 0 0 1.357.557 3.052 3.052 0 0 0 1.44-.308 2.234 2.234 0 0 0 .913-.894v-7.637h2.373V0h-2.07zM59.722 0q-.127-.4-.21-.781a5.585 5.585 0 0 1-.112-.762A4.193 4.193 0 0 1 58.115-.3a3.267 3.267 0 0 1-1.782.5A3.513 3.513 0 0 1 53.8-.645a3.085 3.085 0 0 1-.884-2.334 2.757 2.757 0 0 1 1.211-2.388 5.847 5.847 0 0 1 3.408-.854h1.845v-.928a1.715 1.715 0 0 0-.488-1.3 1.937 1.937 0 0 0-1.4-.469 1.978 1.978 0 0 0-1.289.391 1.24 1.24 0 0 0-.479 1.006h-2.282l-.01-.059a2.617 2.617 0 0 1 1.118-2.217 4.738 4.738 0 0 1 3.091-.967 4.521 4.521 0 0 1 2.979.938 3.3 3.3 0 0 1 1.133 2.7v4.7a8.662 8.662 0 0 0 .088 1.255A6.664 6.664 0 0 0 62.124 0zm-2.91-1.7a2.983 2.983 0 0 0 1.616-.449 2.262 2.262 0 0 0 .952-1.025v-1.562H57.5a2.379 2.379 0 0 0-1.621.513 1.558 1.558 0 0 0-.586 1.206 1.23 1.23 0 0 0 .4.962 1.628 1.628 0 0 0 1.119.355zm10.869-2.92h-1.065V0h-2.363v-15.234h2.363v8.711h.984l2.666-4.043h2.793l-3.486 4.8 4 5.762h-2.748zM79.038.205a4.594 4.594 0 0 1-3.579-1.47 5.4 5.4 0 0 1-1.333-3.774v-.391a5.61 5.61 0 0 1 1.323-3.823 4.186 4.186 0 0 1 3.315-1.509 4.13 4.13 0 0 1 3.276 1.294A5.069 5.069 0 0 1 83.179-6v1.4h-6.592l-.02.049A3.327 3.327 0 0 0 77.3-2.49a2.332 2.332 0 0 0 1.88.8 5.081 5.081 0 0 0 1.641-.234 5.375 5.375 0 0 0 1.323-.676l.762 1.553a4.916 4.916 0 0 1-1.582.889 6.628 6.628 0 0 1-2.286.363zm-.273-9.062a1.78 1.78 0 0 0-1.445.7 3.438 3.438 0 0 0-.7 1.772l.02.049h4.189v-.244a2.529 2.529 0 0 0-.513-1.641 1.871 1.871 0 0 0-1.551-.636z" class="prefix__cls-1" data-name="패스 1282" transform="translate(180 238)"/>
    </g>
</svg>
