<svg xmlns="http://www.w3.org/2000/svg" width="121.255" height="133" viewBox="0 0 121.255 133">
    <defs>
        <clipPath id="prefix__clip-path">
            <path id="prefix__패스_151" d="M0-11.747h15v-15H0z" class="prefix__cls-1" data-name="패스 151" transform="translate(0 26.747)"/>
        </clipPath>
        <clipPath id="prefix__clip-path-2">
            <path id="prefix__사각형_9" d="M0 0H25.038V19.486H0z" class="prefix__cls-1" data-name="사각형 9"/>
        </clipPath>
        <style>
            .prefix__cls-1{fill:#910004}
        </style>
    </defs>
    <g id="prefix__그룹_604" data-name="그룹 604" transform="translate(-229.747 -269)">
        <g id="prefix__그룹_14" data-name="그룹 14" transform="translate(283 387)">
            <g id="prefix__그룹_13" data-name="그룹 13">
                <g id="prefix__그룹_12" data-name="그룹 12" transform="translate(-5.019 -3.925)">
                    <g id="prefix__그룹_11" data-name="그룹 11">
                        <g id="prefix__그룹_10" data-name="그룹 10" transform="translate(5.019 3.925)">
                            <path id="prefix__패스_150" d="M-5.949-11.747a7.5 7.5 0 0 0 7.5-7.5 7.5 7.5 0 0 0-7.5-7.5 7.5 7.5 0 0 0-7.5 7.5 7.5 7.5 0 0 0 7.5 7.5" class="prefix__cls-1" data-name="패스 150" transform="translate(13.449 26.747)"/>
                        </g>
                    </g>
                </g>
            </g>
        </g>
        <path id="prefix__선_18" d="M0 104L0 0" data-name="선 18" transform="translate(290.5 290.5)" style="fill:none;stroke:#910004"/>
        <path id="prefix__패스_980" d="M472.255 269.714l-60.673 17.616L351 269.714v-42.206h121.255z" class="prefix__cls-1" data-name="패스 980" transform="translate(-121.253 41.492)"/>
        <text id="prefix___12_km_al_norte_de_Pohang" data-name="12 km al norte de Pohang" transform="translate(290 288.541)" style="font-size:11px;letter-spacing:-.01em;fill:#fff;font-family:RobotoCondensed-Bold,Roboto Condensed;font-weight:700">
            <tspan x="-55.003" y="0">12 km al norte de Pohang</tspan>
        </text>
        <text id="prefix__Magnitud_5_9" data-name="Magnitud 5.9" transform="translate(290 307.541)" style="font-size:16px;letter-spacing:-.015em;fill:#fff;font-family:RobotoCondensed-Bold,Roboto Condensed;font-weight:700">
            <tspan x="-41.114" y="0">Magnitud 5.9</tspan>
        </text>
    </g>
</svg>
