<svg xmlns="http://www.w3.org/2000/svg" width="52" height="52" viewBox="0 0 52 52">
    <defs>
        <style>
            .cls-1{fill:#ffa200}.cls-2,.cls-4{fill:none;stroke:#fff;stroke-linecap:round;stroke-linejoin:round}.cls-2{stroke-width:2.5px}.cls-3{fill:#fff}.cls-4{stroke-width:2px}
        </style>
    </defs>
    <g id="그룹_575" data-name="그룹 575" transform="translate(-154 -186)">
        <g id="그룹_544" data-name="그룹 544" transform="translate(3 37)">
            <circle id="타원_255" cx="26" cy="26" r="26" class="cls-1" data-name="타원 255" transform="translate(151 149)"/>
            <path id="패스_1193" d="M705.4 95.618h.272a1.69 1.69 0 0 1 1.685 1.685v21.907a1.69 1.69 0 0 1-1.685 1.685h-.272c-.938 0-6.024-8.589-12.244-8.589h-4.605a2.29 2.29 0 0 1-2.283-2.283v-3.533a2.289 2.289 0 0 1 2.283-2.283h4.606c6.221 0 11.306-8.589 12.243-8.589z" class="cls-2" data-name="패스 1193" transform="translate(-527.318 67.104)"/>
            <path id="패스_1194" d="M711.283 105.648a4.513 4.513 0 0 1 0 8.665" class="cls-3" data-name="패스 1194" transform="translate(-531.033 65.38)"/>
            <path id="선_28" d="M0 0v7.378" class="cls-2" data-name="선 28" transform="translate(165.98 171.389)"/>
            <g id="그룹_472" data-name="그룹 472" transform="translate(185.643 166.694)">
                <path id="패스_1195" d="M720.6 103.084a7.738 7.738 0 0 1 0 12.563" class="cls-4" data-name="패스 1195" transform="translate(-718.059 -100.649)"/>
                <path id="패스_1196" d="M723.46 117.658a11.15 11.15 0 0 0 0-17.433" class="cls-4" data-name="패스 1196" transform="translate(-718.484 -100.225)"/>
                <path id="패스_1197" d="M717.616 106.069a4.222 4.222 0 0 1 0 7.48" class="cls-4" data-name="패스 1197" transform="translate(-717.616 -101.093)"/>
                <path id="패스_1198" d="M720.6 115.647a7.738 7.738 0 0 0 0-12.563" class="cls-4" data-name="패스 1198" transform="translate(-718.059 -100.649)"/>
                <path id="패스_1199" d="M717.616 113.549a4.222 4.222 0 0 0 0-7.48" class="cls-4" data-name="패스 1199" transform="translate(-717.616 -101.093)"/>
            </g>
        </g>
    </g>
</svg>
