<svg xmlns="http://www.w3.org/2000/svg" id="Instagram" width="32.435" height="32.434" viewBox="0 0 32.435 32.434">
    <defs>
        <style>
            .cls-1{fill:#ffa200;fill-rule:evenodd}
        </style>
    </defs>
    <path id="패스_3" d="M16.217 2.883a49.725 49.725 0 0 1 6.487.18 8.357 8.357 0 0 1 3.063.541 6.328 6.328 0 0 1 3.063 3.063 8.358 8.358 0 0 1 .541 3.063c0 1.622.18 2.162.18 6.487a49.725 49.725 0 0 1-.18 6.487 8.358 8.358 0 0 1-.541 3.063 6.328 6.328 0 0 1-3.063 3.063 8.358 8.358 0 0 1-3.063.541c-1.622 0-2.162.18-6.487.18a49.725 49.725 0 0 1-6.487-.18 8.358 8.358 0 0 1-3.063-.541A6.328 6.328 0 0 1 3.6 25.767a8.358 8.358 0 0 1-.537-3.067c0-1.622-.18-2.162-.18-6.487a49.725 49.725 0 0 1 .18-6.487A8.358 8.358 0 0 1 3.6 6.667a6.472 6.472 0 0 1 1.261-1.8A3.046 3.046 0 0 1 6.667 3.6a8.358 8.358 0 0 1 3.063-.537 49.725 49.725 0 0 1 6.487-.18m0-2.883A53.241 53.241 0 0 0 9.55.18 11.124 11.124 0 0 0 5.586.9 7.054 7.054 0 0 0 2.7 2.7 7.054 7.054 0 0 0 .9 5.586 8.21 8.21 0 0 0 .18 9.55 53.241 53.241 0 0 0 0 16.217a53.241 53.241 0 0 0 .18 6.667 11.124 11.124 0 0 0 .72 3.964 7.054 7.054 0 0 0 1.8 2.883 7.054 7.054 0 0 0 2.883 1.8 11.124 11.124 0 0 0 3.964.721 53.24 53.24 0 0 0 6.667.18 53.24 53.24 0 0 0 6.667-.18 11.124 11.124 0 0 0 3.964-.721 7.56 7.56 0 0 0 4.685-4.685 11.124 11.124 0 0 0 .721-3.964c0-1.8.18-2.342.18-6.667a53.24 53.24 0 0 0-.18-6.667 11.124 11.124 0 0 0-.721-3.964 7.054 7.054 0 0 0-1.8-2.883A7.054 7.054 0 0 0 26.848.9a11.124 11.124 0 0 0-3.964-.72A53.241 53.241 0 0 0 16.217 0m0 7.928a8.155 8.155 0 0 0-8.289 8.289 8.289 8.289 0 1 0 8.289-8.289m0 13.694a5.309 5.309 0 0 1-5.406-5.406 5.309 5.309 0 0 1 5.406-5.406 5.309 5.309 0 0 1 5.406 5.406 5.309 5.309 0 0 1-5.406 5.406m8.649-16.036a1.982 1.982 0 1 0 1.982 1.982 2 2 0 0 0-1.982-1.982" class="cls-1" data-name="패스 3"/>
</svg>
