<svg xmlns="http://www.w3.org/2000/svg" width="125" height="52" viewBox="0 0 125 52">
    <g id="prefix__그룹_643" data-name="그룹 643" transform="translate(-22 -129)">
        <path id="prefix__선_3" d="M0 0L123.5 0" data-name="선 3" transform="translate(23.5 176.5)" style="stroke:#858585;fill:none"/>
        <g id="prefix__pin" transform="translate(-178 -306)">
            <path id="prefix__사각형_1404" d="M0 0H16V16H0z" data-name="사각형 1404" transform="translate(200 435)" style="fill:none"/>
            <path id="prefix__패스_276" d="M6.23 8.962A2.638 2.638 0 0 0 8.872 6.32 2.719 2.719 0 0 0 6.23 3.583a2.638 2.638 0 0 0-2.643 2.642A2.785 2.785 0 0 0 6.23 8.962zM1.794 1.79a6.272 6.272 0 0 1 8.87 8.87L6.23 15.1l-4.436-4.44a6.443 6.443 0 0 1 0-8.87z" data-name="패스 276" transform="translate(201.079 435.05)" style="fill-rule:evenodd;fill:#686868"/>
        </g>
        <text id="prefix__Ubicación_actual" data-name="Ubicación actual" transform="translate(42 141)" style="font-size:13px;font-family:RobotoCondensed-Regular,Roboto Condensed;letter-spacing:-.01em;fill:#686868">
            <tspan x="0" y="0">Ubicación actual</tspan>
        </text>
        <text id="prefix__Jung-go_Seúl" data-name="Jung-go, Seúl" transform="translate(25 169)" style="font-size:25px;font-family:Teko-Medium,Teko;font-weight:500;fill:#686868">
            <tspan x="0" y="0">Jung-go, Seúl</tspan>
        </text>
    </g>
</svg>
