<svg xmlns="http://www.w3.org/2000/svg" id="그룹_207" width="50.425" height="39.709" data-name="그룹 207" viewBox="0 0 50.425 39.709">
    <defs>
        <style>
            .cls-1{fill:#ffa200}
        </style>
    </defs>
    <path id="패스_885" d="M147.255 179.227a18.146 18.146 0 0 0 16.646 0c2.421-1.4 3.755-3.32 3.755-5.412v-24.843c0-2.092-1.334-4.014-3.755-5.412a18.147 18.147 0 0 0-16.646 0c-2.421 1.4-3.755 3.32-3.755 5.412v24.843c0 2.092 1.334 4.014 3.755 5.412zm8.323-35.584a14.868 14.868 0 0 1 7.273 1.737c1.745 1.007 2.705 2.283 2.705 3.593s-.96 2.585-2.705 3.593a16.1 16.1 0 0 1-14.545 0c-1.745-1.007-2.705-2.283-2.705-3.593s.96-2.585 2.705-3.593a14.868 14.868 0 0 1 7.272-1.737zm-7.273 33.765c-1.745-1.007-2.705-2.283-2.705-3.593V153.2a9.91 9.91 0 0 0 1.655 1.184 18.147 18.147 0 0 0 16.646 0 9.91 9.91 0 0 0 1.655-1.184v20.616c0 1.31-.96 2.585-2.705 3.593a16.1 16.1 0 0 1-14.545-.002z" class="cls-1" data-name="패스 885" transform="translate(-130.366 -141.539)"/>
    <path id="패스_886" d="M167.254 193.99q-.284.2-.6.382a16.1 16.1 0 0 1-14.545 0q-.321-.185-.6-.382v2.434a18.249 18.249 0 0 0 15.754 0z" class="cls-1" data-name="패스 886" transform="translate(-134.165 -166.446)"/>
    <path id="패스_887" d="M152.1 186.064q-.321-.185-.6-.382v2.434a18.25 18.25 0 0 0 15.754 0v-2.434q-.284.2-.6.382a16.1 16.1 0 0 1-14.554 0z" class="cls-1" data-name="패스 887" transform="translate(-134.165 -162.501)"/>
    <path id="패스_888" d="M207.244 177.558a11.2 11.2 0 0 1-3.306 7.967 1.05 1.05 0 1 0 1.485 1.485 13.352 13.352 0 0 0 0-18.9 1.05 1.05 0 0 0-1.485 1.485 11.2 11.2 0 0 1 3.306 7.963z" class="cls-1" data-name="패스 888" transform="translate(-158.919 -154.009)"/>
    <path id="패스_889" d="M199.163 180.708a6.3 6.3 0 0 1-1.86 4.483 1.05 1.05 0 0 0 1.486 1.485 8.432 8.432 0 0 0 0-11.936 1.05 1.05 0 1 0-1.486 1.485 6.3 6.3 0 0 1 1.86 4.483z" class="cls-1" data-name="패스 889" transform="translate(-155.769 -157.159)"/>
    <path id="패스_890" d="M123.154 187.318a1.05 1.05 0 0 0 .743-1.793 11.252 11.252 0 0 1 0-15.933 1.05 1.05 0 1 0-1.486-1.485 13.353 13.353 0 0 0 0 18.9 1.047 1.047 0 0 0 .743.311z" class="cls-1" data-name="패스 890" transform="translate(-118.49 -154.009)"/>
    <path id="패스_891" d="M130.352 186.677a1.05 1.05 0 0 0 1.485-1.485 6.331 6.331 0 0 1 0-8.966 1.05 1.05 0 0 0-1.486-1.485 8.432 8.432 0 0 0 0 11.936z" class="cls-1" data-name="패스 891" transform="translate(-122.947 -157.159)"/>
    <path id="패스_892" d="M166.246 154.5a2.011 2.011 0 0 0-1.819 0 .554.554 0 0 0 0 1.05 2.011 2.011 0 0 0 1.819 0 .554.554 0 0 0 0-1.05z" class="cls-1" data-name="패스 892" transform="translate(-140.124 -147.589)"/>
</svg>
