<svg xmlns="http://www.w3.org/2000/svg" id="Twitter" width="27.72" height="27.72" viewBox="0 0 27.72 27.72">
    <defs>
        <style>
            .cls-1{fill:none}.cls-2{fill:#ffa200;fill-rule:evenodd}
        </style>
    </defs>
    <path id="사각형_1457" d="M0 0h27.72v27.72H0z" class="cls-1" data-name="사각형 1457"/>
    <path id="패스_2" d="M46.778 24.484c10.472 0 16.17-8.624 16.17-16.17v-.77a12.518 12.518 0 0 0 2.772-2.926 12.784 12.784 0 0 1-3.234.924 5.992 5.992 0 0 0 2.464-3.08 14.125 14.125 0 0 1-3.542 1.386A5.5 5.5 0 0 0 57.25 2a5.786 5.786 0 0 0-5.7 5.7 3 3 0 0 0 .154 1.232A15.922 15.922 0 0 1 40 2.924a5.9 5.9 0 0 0-.77 2.926 6.119 6.119 0 0 0 2.47 4.774 5.192 5.192 0 0 1-2.618-.77A5.628 5.628 0 0 0 43.7 15.4a4.748 4.748 0 0 1-1.54.154 2.621 2.621 0 0 1-1.08-.154 5.834 5.834 0 0 0 5.39 4 11.627 11.627 0 0 1-7.084 2.464A4.264 4.264 0 0 1 38 21.712a14.536 14.536 0 0 0 8.778 2.772" class="cls-2" data-name="패스 2" transform="translate(-38 1.465)"/>
</svg>
