<svg xmlns="http://www.w3.org/2000/svg" width="54.8" height="26.49" viewBox="0 0 54.8 26.49">
    <defs>
        <style>
            .cls-1{fill:none;stroke:#ffa200;stroke-miterlimit:10;stroke-width:1.8px}.cls-2,.cls-3,.cls-5{fill:#ffa200}.cls-4,.cls-5{stroke:none}
        </style>
    </defs>
    <g id="그룹_499" data-name="그룹 499" transform="translate(-36.385 -446.1)">
        <path id="패스_1212" d="M461.068 293.056h-6.857c-6.006 0-8.237 7.425-8.237 7.425h15.094z" class="cls-1" data-name="패스 1212" transform="translate(-393.809 153.944)"/>
        <path id="패스_1213" d="M488.038 293.056h4.782c6.008 0 8.234 7.425 8.234 7.425h-13.016z" class="cls-1" data-name="패스 1213" transform="translate(-420.758 153.944)"/>
        <path id="패스_1214" d="M456.425 326.083a4.775 4.775 0 0 0 .207-1.33v-5.848a4.932 4.932 0 0 0-4.93-4.927h-40.811a4.927 4.927 0 0 0-4.924 4.927v5.848a4.594 4.594 0 0 0 .071.711 1.747 1.747 0 0 0-1.477 1.712 1.778 1.778 0 0 0 1.777 1.782h2.012a4.883 4.883 0 0 0 2.541.725h.7a5.906 5.906 0 1 1 11.457-2.018 5.877 5.877 0 0 1-.368 2.018h16.632a5.906 5.906 0 1 1 11.457-2.018 5.844 5.844 0 0 1-.368 2.018h1.3a4.829 4.829 0 0 0 3.032-1.074 1.139 1.139 0 0 0 .3.06h1.214a1.315 1.315 0 0 0 1.317-1.3 1.3 1.3 0 0 0-1.139-1.286z" class="cls-1" data-name="패스 1214" transform="translate(-367.276 140.54)"/>
        <path id="패스_1215" d="M431.866 340.027a4.32 4.32 0 1 0 4.321 4.325 4.319 4.319 0 0 0-4.321-4.325zm0 6.293a1.974 1.974 0 1 1 1.972-1.968c0 .565-.869 1.631-.869 1.631a2.639 2.639 0 0 1-1.103.337z" class="cls-2" data-name="패스 1215" transform="translate(-382.003 123.851)"/>
        <path id="패스_1216" d="M508.881 339.825a4.392 4.392 0 1 0 4.386 4.4 4.393 4.393 0 0 0-4.386-4.4zm0 6.4a2.007 2.007 0 1 1 2.01-2 2.009 2.009 0 0 1-2.01 2.002z" class="cls-2" data-name="패스 1216" transform="translate(-431.297 123.98)"/>
        <path id="패스_1217" d="M461.954 322.114a.578.578 0 0 1-.578.578h-4.134a.571.571 0 0 1-.57-.578v-.684a.577.577 0 0 1 .57-.578h4.134a.584.584 0 0 1 .578.578z" class="cls-2" data-name="패스 1217" transform="translate(-400.663 136.136)"/>
        <g id="빼기_3" class="cls-3" data-name="빼기 3">
            <path d="M.5 5.243V.553a2.402 2.402 0 0 1 1.898 2.345c0 1.15-.815 2.114-1.898 2.345z" class="cls-4" transform="translate(38.94 458.587)"/>
            <path d="M1 4.51a1.898 1.898 0 0 0 0-3.225V4.51M.001 5.795H0V0c1.599 0 2.898 1.3 2.898 2.898 0 1.597-1.3 2.897-2.897 2.897z" class="cls-5" transform="translate(38.94 458.587)"/>
        </g>
    </g>
</svg>
