<svg xmlns="http://www.w3.org/2000/svg" id="그룹_208" width="49.781" height="46.226" data-name="그룹 208" viewBox="0 0 49.781 46.226">
    <defs>
        <style>
            .cls-1{fill:#ffa200}
        </style>
    </defs>
    <path id="패스_893" d="M44.575 74.855h-1.451V63.931a13.461 13.461 0 0 0-26.923 0v10.924h-1.452a3.806 3.806 0 0 0-3.8 3.8v6.064a.889.889 0 0 0 .889.889h35.651a.889.889 0 0 0 .889-.889v-6.062a3.806 3.806 0 0 0-3.803-3.802zm-26.6-10.924a11.684 11.684 0 0 1 23.367 0v10.924H22.579v-9.444a.889.889 0 0 0-1.778 0v9.444h-2.822zm-5.254 19.9v-5.174a2.027 2.027 0 0 1 2.024-2.024h29.83a2.027 2.027 0 0 1 2.025 2.024v.687H34.809a.889.889 0 1 0 0 1.778H46.6v2.71z" class="cls-1" data-name="패스 893" transform="translate(-4.771 -39.385)"/>
    <path id="패스_894" d="M23.048 63.03a.919.919 0 0 0 .269.042.889.889 0 0 0 .847-.62 7.115 7.115 0 0 1 6.773-4.838.889.889 0 1 0 0-1.778 8.8 8.8 0 0 0-8.467 6.078.89.89 0 0 0 .578 1.116z" class="cls-1" data-name="패스 894" transform="translate(-6.046 -39.981)"/>
    <path id="패스_895" d="M33.018 82.951h-3.973a.889.889 0 0 0 0 1.778h3.973a.889.889 0 0 0 0-1.778z" class="cls-1" data-name="패스 895" transform="translate(-6.682 -42.991)"/>
    <path id="패스_896" d="M31.889 45.786a.889.889 0 0 0 .889-.889v-6.008a.889.889 0 1 0-1.778 0V44.9a.889.889 0 0 0 .889.886z" class="cls-1" data-name="패스 896" transform="translate(-6.998 -38)"/>
    <path id="패스_897" d="M16.559 51.445a.889.889 0 0 0 1.241-1.276l-4.381-4.248a.889.889 0 1 0-1.241 1.279z" class="cls-1" data-name="패스 897" transform="translate(-4.878 -38.852)"/>
    <path id="패스_898" d="M11.974 65.074a.889.889 0 0 0-.889-.889h-6.2a.889.889 0 1 0 0 1.778h6.2a.889.889 0 0 0 .889-.889z" class="cls-1" data-name="패스 898" transform="translate(-4 -40.908)"/>
    <path id="패스_899" d="M58.115 64.185h-6.2a.889.889 0 1 0 0 1.778h6.2a.889.889 0 1 0 0-1.778z" class="cls-1" data-name="패스 899" transform="translate(-9.222 -40.908)"/>
    <path id="패스_900" d="M46.053 51.7a.887.887 0 0 0 .619-.251l4.38-4.249a.889.889 0 1 0-1.238-1.276l-4.381 4.248a.889.889 0 0 0 .62 1.527z" class="cls-1" data-name="패스 900" transform="translate(-8.571 -38.852)"/>
</svg>
