<svg xmlns="http://www.w3.org/2000/svg" width="46" height="54" viewBox="0 0 46 54">
    <defs>
        <style>
            .cls-1{font-size:13px;font-family:NotoSansCJKkr-Bold,Noto Sans CJK KR;font-weight:700;letter-spacing:-.05em}.cls-2,.cls-4,.cls-6{fill:none}.cls-2{stroke:#000}.cls-2,.cls-4{stroke-width:3px}.cls-3{fill:#2d2d2d}.cls-4{stroke:#2d2d2d}.cls-5{stroke:none}
        </style>
    </defs>
    <g id="그룹_230" data-name="그룹 230" transform="translate(-300 -574)">
        <text id="경보인지" class="cls-1" transform="translate(323 624)">
            <tspan x="-22.945" y="0">경보인지</tspan>
        </text>
        <g id="타원_245" class="cls-2" data-name="타원 245" transform="translate(307 574)">
            <circle cx="16" cy="16" r="16" class="cls-5"/>
            <circle cx="16" cy="16" r="14.5" class="cls-6"/>
        </g>
        <g id="그룹_229" data-name="그룹 229" transform="translate(314.2 582)">
            <path id="패스_848" d="M8.766.5v15.96a.361.361 0 0 1-.336.336.52.52 0 0 1-.336-.168l-4.536-4.364H.366c-.168 0-.168 0-.336-.168s0-.168 0-.336V5.04c0-.168 0-.168.168-.336a.587.587 0 0 1 .336-.168h3.192L8.262 0H8.6c.166.168.166.168.166.5z" class="cls-3" data-name="패스 848" transform="translate(.044)"/>
            <path id="빼기_2" d="M4.477 13.847a.661.661 0 0 1-.438-.088l-1.23-1.229a.107.107 0 0 0-.024-.062.081.081 0 0 0-.063-.025v-.088c0-.086 0-.175.088-.175A7.122 7.122 0 0 0 5 6.913a7.038 7.038 0 0 0-2.191-5.267c-.088 0-.088-.089-.088-.175v-.088a.086.086 0 0 1 .088-.088L4.038.066A.257.257 0 0 1 4.224 0a.58.58 0 0 1 .253.066 9.621 9.621 0 0 1 2.545 4.389 9.712 9.712 0 0 1 0 5 9.621 9.621 0 0 1-2.545 4.389zm-2.722-2.634a.482.482 0 0 1-.438-.175L.088 9.809a.107.107 0 0 0-.024-.062A.081.081 0 0 0 0 9.722v-.089c0-.086 0-.175.088-.175a3.529 3.529 0 0 0 1.054-2.545A3.531 3.531 0 0 0 .088 4.367.273.273 0 0 1 0 4.192V4.1a.086.086 0 0 1 .088-.088l1.229-1.225c.093-.093.157-.131.219-.131s.126.038.22.131A5.768 5.768 0 0 1 3.512 7a5.768 5.768 0 0 1-1.756 4.213z" class="cls-3" data-name="빼기 2" transform="translate(10.789 1.05)"/>
        </g>
        <path id="선_25" d="M0 0l21 21" class="cls-4" data-name="선 25" transform="translate(312.5 579.5)"/>
    </g>
</svg>
